%TF.GenerationSoftware,KiCad,Pcbnew,(6.0.2)*%
%TF.CreationDate,2022-12-19T21:30:03+03:00*%
%TF.ProjectId,buck,6275636b-2e6b-4696-9361-645f70636258,rev?*%
%TF.SameCoordinates,Original*%
%TF.FileFunction,Legend,Top*%
%TF.FilePolarity,Positive*%
%FSLAX46Y46*%
G04 Gerber Fmt 4.6, Leading zero omitted, Abs format (unit mm)*
G04 Created by KiCad (PCBNEW (6.0.2)) date 2022-12-19 21:30:03*
%MOMM*%
%LPD*%
G01*
G04 APERTURE LIST*
%ADD10C,0.150000*%
%ADD11C,0.120000*%
G04 APERTURE END LIST*
D10*
X175142857Y-38294761D02*
X174952380Y-38199523D01*
X174857142Y-38104285D01*
X174761904Y-37913809D01*
X174761904Y-37342380D01*
X174857142Y-37151904D01*
X174952380Y-37056666D01*
X175142857Y-36961428D01*
X175428571Y-36961428D01*
X175619047Y-37056666D01*
X175714285Y-37151904D01*
X175809523Y-37342380D01*
X175809523Y-37913809D01*
X175714285Y-38104285D01*
X175619047Y-38199523D01*
X175428571Y-38294761D01*
X175142857Y-38294761D01*
X177523809Y-36961428D02*
X177523809Y-38294761D01*
X176666666Y-36961428D02*
X176666666Y-38009047D01*
X176761904Y-38199523D01*
X176952380Y-38294761D01*
X177238095Y-38294761D01*
X177428571Y-38199523D01*
X177523809Y-38104285D01*
X178190476Y-36961428D02*
X178952380Y-36961428D01*
X178476190Y-36294761D02*
X178476190Y-38009047D01*
X178571428Y-38199523D01*
X178761904Y-38294761D01*
X178952380Y-38294761D01*
X179619047Y-37532857D02*
X181142857Y-37532857D01*
X133357142Y-67571428D02*
X136357142Y-66571428D01*
X133357142Y-65571428D01*
X136357142Y-64142857D02*
X136214285Y-64428571D01*
X136071428Y-64571428D01*
X135785714Y-64714285D01*
X134928571Y-64714285D01*
X134642857Y-64571428D01*
X134500000Y-64428571D01*
X134357142Y-64142857D01*
X134357142Y-63714285D01*
X134500000Y-63428571D01*
X134642857Y-63285714D01*
X134928571Y-63142857D01*
X135785714Y-63142857D01*
X136071428Y-63285714D01*
X136214285Y-63428571D01*
X136357142Y-63714285D01*
X136357142Y-64142857D01*
X136357142Y-61428571D02*
X136214285Y-61714285D01*
X135928571Y-61857142D01*
X133357142Y-61857142D01*
X134357142Y-60714285D02*
X134357142Y-59571428D01*
X133357142Y-60285714D02*
X135928571Y-60285714D01*
X136214285Y-60142857D01*
X136357142Y-59857142D01*
X136357142Y-59571428D01*
X136357142Y-56285714D02*
X133357142Y-56285714D01*
X135500000Y-55285714D01*
X133357142Y-54285714D01*
X136357142Y-54285714D01*
X136357142Y-52428571D02*
X136214285Y-52714285D01*
X136071428Y-52857142D01*
X135785714Y-53000000D01*
X134928571Y-53000000D01*
X134642857Y-52857142D01*
X134500000Y-52714285D01*
X134357142Y-52428571D01*
X134357142Y-52000000D01*
X134500000Y-51714285D01*
X134642857Y-51571428D01*
X134928571Y-51428571D01*
X135785714Y-51428571D01*
X136071428Y-51571428D01*
X136214285Y-51714285D01*
X136357142Y-52000000D01*
X136357142Y-52428571D01*
X134357142Y-50571428D02*
X134357142Y-49428571D01*
X133357142Y-50142857D02*
X135928571Y-50142857D01*
X136214285Y-50000000D01*
X136357142Y-49714285D01*
X136357142Y-49428571D01*
X136357142Y-48000000D02*
X136214285Y-48285714D01*
X136071428Y-48428571D01*
X135785714Y-48571428D01*
X134928571Y-48571428D01*
X134642857Y-48428571D01*
X134500000Y-48285714D01*
X134357142Y-48000000D01*
X134357142Y-47571428D01*
X134500000Y-47285714D01*
X134642857Y-47142857D01*
X134928571Y-47000000D01*
X135785714Y-47000000D01*
X136071428Y-47142857D01*
X136214285Y-47285714D01*
X136357142Y-47571428D01*
X136357142Y-48000000D01*
X136357142Y-45714285D02*
X134357142Y-45714285D01*
X134928571Y-45714285D02*
X134642857Y-45571428D01*
X134500000Y-45428571D01*
X134357142Y-45142857D01*
X134357142Y-44857142D01*
X136214285Y-44000000D02*
X136357142Y-43714285D01*
X136357142Y-43142857D01*
X136214285Y-42857142D01*
X135928571Y-42714285D01*
X135785714Y-42714285D01*
X135500000Y-42857142D01*
X135357142Y-43142857D01*
X135357142Y-43571428D01*
X135214285Y-43857142D01*
X134928571Y-44000000D01*
X134785714Y-44000000D01*
X134500000Y-43857142D01*
X134357142Y-43571428D01*
X134357142Y-43142857D01*
X134500000Y-42857142D01*
X159857142Y-130904761D02*
X159857142Y-129571428D01*
X159857142Y-128904761D02*
X159761904Y-129000000D01*
X159857142Y-129095238D01*
X159952380Y-129000000D01*
X159857142Y-128904761D01*
X159857142Y-129095238D01*
X160809523Y-129571428D02*
X160809523Y-130904761D01*
X160809523Y-129761904D02*
X160904761Y-129666666D01*
X161095238Y-129571428D01*
X161380952Y-129571428D01*
X161571428Y-129666666D01*
X161666666Y-129857142D01*
X161666666Y-130904761D01*
X162619047Y-130142857D02*
X164142857Y-130142857D01*
X187142857Y-37904761D02*
X186952380Y-37809523D01*
X186857142Y-37714285D01*
X186761904Y-37523809D01*
X186761904Y-36952380D01*
X186857142Y-36761904D01*
X186952380Y-36666666D01*
X187142857Y-36571428D01*
X187428571Y-36571428D01*
X187619047Y-36666666D01*
X187714285Y-36761904D01*
X187809523Y-36952380D01*
X187809523Y-37523809D01*
X187714285Y-37714285D01*
X187619047Y-37809523D01*
X187428571Y-37904761D01*
X187142857Y-37904761D01*
X189523809Y-36571428D02*
X189523809Y-37904761D01*
X188666666Y-36571428D02*
X188666666Y-37619047D01*
X188761904Y-37809523D01*
X188952380Y-37904761D01*
X189238095Y-37904761D01*
X189428571Y-37809523D01*
X189523809Y-37714285D01*
X190190476Y-36571428D02*
X190952380Y-36571428D01*
X190476190Y-35904761D02*
X190476190Y-37619047D01*
X190571428Y-37809523D01*
X190761904Y-37904761D01*
X190952380Y-37904761D01*
X191619047Y-37142857D02*
X193142857Y-37142857D01*
X192380952Y-37904761D02*
X192380952Y-36380952D01*
X139857142Y-62785714D02*
X139952380Y-62500000D01*
X140047619Y-62404761D01*
X140238095Y-62309523D01*
X140523809Y-62309523D01*
X140714285Y-62404761D01*
X140809523Y-62500000D01*
X140904761Y-62690476D01*
X140904761Y-63452380D01*
X138904761Y-63452380D01*
X138904761Y-62785714D01*
X139000000Y-62595238D01*
X139095238Y-62500000D01*
X139285714Y-62404761D01*
X139476190Y-62404761D01*
X139666666Y-62500000D01*
X139761904Y-62595238D01*
X139857142Y-62785714D01*
X139857142Y-63452380D01*
X139571428Y-60595238D02*
X140904761Y-60595238D01*
X139571428Y-61452380D02*
X140619047Y-61452380D01*
X140809523Y-61357142D01*
X140904761Y-61166666D01*
X140904761Y-60880952D01*
X140809523Y-60690476D01*
X140714285Y-60595238D01*
X140809523Y-58785714D02*
X140904761Y-58976190D01*
X140904761Y-59357142D01*
X140809523Y-59547619D01*
X140714285Y-59642857D01*
X140523809Y-59738095D01*
X139952380Y-59738095D01*
X139761904Y-59642857D01*
X139666666Y-59547619D01*
X139571428Y-59357142D01*
X139571428Y-58976190D01*
X139666666Y-58785714D01*
X140904761Y-57928571D02*
X138904761Y-57928571D01*
X140142857Y-57738095D02*
X140904761Y-57166666D01*
X139571428Y-57166666D02*
X140333333Y-57928571D01*
X140714285Y-53642857D02*
X140809523Y-53738095D01*
X140904761Y-54023809D01*
X140904761Y-54214285D01*
X140809523Y-54500000D01*
X140619047Y-54690476D01*
X140428571Y-54785714D01*
X140047619Y-54880952D01*
X139761904Y-54880952D01*
X139380952Y-54785714D01*
X139190476Y-54690476D01*
X139000000Y-54500000D01*
X138904761Y-54214285D01*
X138904761Y-54023809D01*
X139000000Y-53738095D01*
X139095238Y-53642857D01*
X140904761Y-52500000D02*
X140809523Y-52690476D01*
X140714285Y-52785714D01*
X140523809Y-52880952D01*
X139952380Y-52880952D01*
X139761904Y-52785714D01*
X139666666Y-52690476D01*
X139571428Y-52500000D01*
X139571428Y-52214285D01*
X139666666Y-52023809D01*
X139761904Y-51928571D01*
X139952380Y-51833333D01*
X140523809Y-51833333D01*
X140714285Y-51928571D01*
X140809523Y-52023809D01*
X140904761Y-52214285D01*
X140904761Y-52500000D01*
X139571428Y-50976190D02*
X140904761Y-50976190D01*
X139761904Y-50976190D02*
X139666666Y-50880952D01*
X139571428Y-50690476D01*
X139571428Y-50404761D01*
X139666666Y-50214285D01*
X139857142Y-50119047D01*
X140904761Y-50119047D01*
X139571428Y-49357142D02*
X140904761Y-48880952D01*
X139571428Y-48404761D01*
X140809523Y-46880952D02*
X140904761Y-47071428D01*
X140904761Y-47452380D01*
X140809523Y-47642857D01*
X140619047Y-47738095D01*
X139857142Y-47738095D01*
X139666666Y-47642857D01*
X139571428Y-47452380D01*
X139571428Y-47071428D01*
X139666666Y-46880952D01*
X139857142Y-46785714D01*
X140047619Y-46785714D01*
X140238095Y-47738095D01*
X140904761Y-45928571D02*
X139571428Y-45928571D01*
X139952380Y-45928571D02*
X139761904Y-45833333D01*
X139666666Y-45738095D01*
X139571428Y-45547619D01*
X139571428Y-45357142D01*
X139571428Y-44976190D02*
X139571428Y-44214285D01*
X138904761Y-44690476D02*
X140619047Y-44690476D01*
X140809523Y-44595238D01*
X140904761Y-44404761D01*
X140904761Y-44214285D01*
X140809523Y-42785714D02*
X140904761Y-42976190D01*
X140904761Y-43357142D01*
X140809523Y-43547619D01*
X140619047Y-43642857D01*
X139857142Y-43642857D01*
X139666666Y-43547619D01*
X139571428Y-43357142D01*
X139571428Y-42976190D01*
X139666666Y-42785714D01*
X139857142Y-42690476D01*
X140047619Y-42690476D01*
X140238095Y-43642857D01*
X140904761Y-41833333D02*
X139571428Y-41833333D01*
X139952380Y-41833333D02*
X139761904Y-41738095D01*
X139666666Y-41642857D01*
X139571428Y-41452380D01*
X139571428Y-41261904D01*
X137857142Y-130294761D02*
X137857142Y-128961428D01*
X137857142Y-128294761D02*
X137761904Y-128390000D01*
X137857142Y-128485238D01*
X137952380Y-128390000D01*
X137857142Y-128294761D01*
X137857142Y-128485238D01*
X138809523Y-128961428D02*
X138809523Y-130294761D01*
X138809523Y-129151904D02*
X138904761Y-129056666D01*
X139095238Y-128961428D01*
X139380952Y-128961428D01*
X139571428Y-129056666D01*
X139666666Y-129247142D01*
X139666666Y-130294761D01*
X140619047Y-129532857D02*
X142142857Y-129532857D01*
X141380952Y-130294761D02*
X141380952Y-128770952D01*
%TO.C,REF\u002A\u002A*%
X206952380Y-61008333D02*
X206476190Y-61341666D01*
X206952380Y-61579761D02*
X205952380Y-61579761D01*
X205952380Y-61198809D01*
X206000000Y-61103571D01*
X206047619Y-61055952D01*
X206142857Y-61008333D01*
X206285714Y-61008333D01*
X206380952Y-61055952D01*
X206428571Y-61103571D01*
X206476190Y-61198809D01*
X206476190Y-61579761D01*
X206428571Y-60579761D02*
X206428571Y-60246428D01*
X206952380Y-60103571D02*
X206952380Y-60579761D01*
X205952380Y-60579761D01*
X205952380Y-60103571D01*
X206428571Y-59341666D02*
X206428571Y-59675000D01*
X206952380Y-59675000D02*
X205952380Y-59675000D01*
X205952380Y-59198809D01*
X205952380Y-58675000D02*
X206190476Y-58675000D01*
X206095238Y-58913095D02*
X206190476Y-58675000D01*
X206095238Y-58436904D01*
X206380952Y-58817857D02*
X206190476Y-58675000D01*
X206380952Y-58532142D01*
X205952380Y-57913095D02*
X206190476Y-57913095D01*
X206095238Y-58151190D02*
X206190476Y-57913095D01*
X206095238Y-57675000D01*
X206380952Y-58055952D02*
X206190476Y-57913095D01*
X206380952Y-57770238D01*
%TO.C,R1*%
X182831833Y-125180880D02*
X182498500Y-124704690D01*
X182260404Y-125180880D02*
X182260404Y-124180880D01*
X182641357Y-124180880D01*
X182736595Y-124228500D01*
X182784214Y-124276119D01*
X182831833Y-124371357D01*
X182831833Y-124514214D01*
X182784214Y-124609452D01*
X182736595Y-124657071D01*
X182641357Y-124704690D01*
X182260404Y-124704690D01*
X183784214Y-125180880D02*
X183212785Y-125180880D01*
X183498500Y-125180880D02*
X183498500Y-124180880D01*
X183403261Y-124323738D01*
X183308023Y-124418976D01*
X183212785Y-124466595D01*
%TO.C,U1*%
X179130880Y-109560404D02*
X179940404Y-109560404D01*
X180035642Y-109512785D01*
X180083261Y-109465166D01*
X180130880Y-109369928D01*
X180130880Y-109179452D01*
X180083261Y-109084214D01*
X180035642Y-109036595D01*
X179940404Y-108988976D01*
X179130880Y-108988976D01*
X180130880Y-107988976D02*
X180130880Y-108560404D01*
X180130880Y-108274690D02*
X179130880Y-108274690D01*
X179273738Y-108369928D01*
X179368976Y-108465166D01*
X179416595Y-108560404D01*
%TO.C,J2*%
X169225166Y-117180880D02*
X169225166Y-117895166D01*
X169177547Y-118038023D01*
X169082309Y-118133261D01*
X168939452Y-118180880D01*
X168844214Y-118180880D01*
X169653738Y-117276119D02*
X169701357Y-117228500D01*
X169796595Y-117180880D01*
X170034690Y-117180880D01*
X170129928Y-117228500D01*
X170177547Y-117276119D01*
X170225166Y-117371357D01*
X170225166Y-117466595D01*
X170177547Y-117609452D01*
X169606119Y-118180880D01*
X170225166Y-118180880D01*
%TO.C,F1*%
X163166666Y-57928571D02*
X162833333Y-57928571D01*
X162833333Y-58452380D02*
X162833333Y-57452380D01*
X163309523Y-57452380D01*
X164214285Y-58452380D02*
X163642857Y-58452380D01*
X163928571Y-58452380D02*
X163928571Y-57452380D01*
X163833333Y-57595238D01*
X163738095Y-57690476D01*
X163642857Y-57738095D01*
%TO.C,D1*%
X204402380Y-60188095D02*
X203402380Y-60188095D01*
X203402380Y-59950000D01*
X203450000Y-59807142D01*
X203545238Y-59711904D01*
X203640476Y-59664285D01*
X203830952Y-59616666D01*
X203973809Y-59616666D01*
X204164285Y-59664285D01*
X204259523Y-59711904D01*
X204354761Y-59807142D01*
X204402380Y-59950000D01*
X204402380Y-60188095D01*
X204402380Y-58664285D02*
X204402380Y-59235714D01*
X204402380Y-58950000D02*
X203402380Y-58950000D01*
X203545238Y-59045238D01*
X203640476Y-59140476D01*
X203688095Y-59235714D01*
%TO.C,J3*%
X190475166Y-124130880D02*
X190475166Y-124845166D01*
X190427547Y-124988023D01*
X190332309Y-125083261D01*
X190189452Y-125130880D01*
X190094214Y-125130880D01*
X190856119Y-124130880D02*
X191475166Y-124130880D01*
X191141833Y-124511833D01*
X191284690Y-124511833D01*
X191379928Y-124559452D01*
X191427547Y-124607071D01*
X191475166Y-124702309D01*
X191475166Y-124940404D01*
X191427547Y-125035642D01*
X191379928Y-125083261D01*
X191284690Y-125130880D01*
X190998976Y-125130880D01*
X190903738Y-125083261D01*
X190856119Y-125035642D01*
%TO.C,J1*%
X174225166Y-117180880D02*
X174225166Y-117895166D01*
X174177547Y-118038023D01*
X174082309Y-118133261D01*
X173939452Y-118180880D01*
X173844214Y-118180880D01*
X175225166Y-118180880D02*
X174653738Y-118180880D01*
X174939452Y-118180880D02*
X174939452Y-117180880D01*
X174844214Y-117323738D01*
X174748976Y-117418976D01*
X174653738Y-117466595D01*
%TO.C,R2*%
X183532380Y-96666666D02*
X183056190Y-97000000D01*
X183532380Y-97238095D02*
X182532380Y-97238095D01*
X182532380Y-96857142D01*
X182580000Y-96761904D01*
X182627619Y-96714285D01*
X182722857Y-96666666D01*
X182865714Y-96666666D01*
X182960952Y-96714285D01*
X183008571Y-96761904D01*
X183056190Y-96857142D01*
X183056190Y-97238095D01*
X182627619Y-96285714D02*
X182580000Y-96238095D01*
X182532380Y-96142857D01*
X182532380Y-95904761D01*
X182580000Y-95809523D01*
X182627619Y-95761904D01*
X182722857Y-95714285D01*
X182818095Y-95714285D01*
X182960952Y-95761904D01*
X183532380Y-96333333D01*
X183532380Y-95714285D01*
%TO.C,C1*%
X152902834Y-79357142D02*
X152855215Y-79404761D01*
X152712358Y-79452380D01*
X152617120Y-79452380D01*
X152474262Y-79404761D01*
X152379024Y-79309523D01*
X152331405Y-79214285D01*
X152283786Y-79023809D01*
X152283786Y-78880952D01*
X152331405Y-78690476D01*
X152379024Y-78595238D01*
X152474262Y-78500000D01*
X152617120Y-78452380D01*
X152712358Y-78452380D01*
X152855215Y-78500000D01*
X152902834Y-78547619D01*
X153855215Y-79452380D02*
X153283786Y-79452380D01*
X153569501Y-79452380D02*
X153569501Y-78452380D01*
X153474262Y-78595238D01*
X153379024Y-78690476D01*
X153283786Y-78738095D01*
%TO.C,J5*%
X183416666Y-53512380D02*
X183416666Y-54226666D01*
X183369047Y-54369523D01*
X183273809Y-54464761D01*
X183130952Y-54512380D01*
X183035714Y-54512380D01*
X184369047Y-53512380D02*
X183892857Y-53512380D01*
X183845238Y-53988571D01*
X183892857Y-53940952D01*
X183988095Y-53893333D01*
X184226190Y-53893333D01*
X184321428Y-53940952D01*
X184369047Y-53988571D01*
X184416666Y-54083809D01*
X184416666Y-54321904D01*
X184369047Y-54417142D01*
X184321428Y-54464761D01*
X184226190Y-54512380D01*
X183988095Y-54512380D01*
X183892857Y-54464761D01*
X183845238Y-54417142D01*
%TO.C,J4*%
X150416666Y-119642380D02*
X150416666Y-120356666D01*
X150369047Y-120499523D01*
X150273809Y-120594761D01*
X150130952Y-120642380D01*
X150035714Y-120642380D01*
X151321428Y-119975714D02*
X151321428Y-120642380D01*
X151083333Y-119594761D02*
X150845238Y-120309047D01*
X151464285Y-120309047D01*
%TO.C,REF\u002A\u002A*%
X206952380Y-99808333D02*
X206476190Y-100141666D01*
X206952380Y-100379761D02*
X205952380Y-100379761D01*
X205952380Y-99998809D01*
X206000000Y-99903571D01*
X206047619Y-99855952D01*
X206142857Y-99808333D01*
X206285714Y-99808333D01*
X206380952Y-99855952D01*
X206428571Y-99903571D01*
X206476190Y-99998809D01*
X206476190Y-100379761D01*
X206428571Y-99379761D02*
X206428571Y-99046428D01*
X206952380Y-98903571D02*
X206952380Y-99379761D01*
X205952380Y-99379761D01*
X205952380Y-98903571D01*
X206428571Y-98141666D02*
X206428571Y-98475000D01*
X206952380Y-98475000D02*
X205952380Y-98475000D01*
X205952380Y-97998809D01*
X205952380Y-97475000D02*
X206190476Y-97475000D01*
X206095238Y-97713095D02*
X206190476Y-97475000D01*
X206095238Y-97236904D01*
X206380952Y-97617857D02*
X206190476Y-97475000D01*
X206380952Y-97332142D01*
X205952380Y-96713095D02*
X206190476Y-96713095D01*
X206095238Y-96951190D02*
X206190476Y-96713095D01*
X206095238Y-96475000D01*
X206380952Y-96855952D02*
X206190476Y-96713095D01*
X206380952Y-96570238D01*
%TO.C,C2*%
X156583333Y-72757142D02*
X156535714Y-72804761D01*
X156392857Y-72852380D01*
X156297619Y-72852380D01*
X156154761Y-72804761D01*
X156059523Y-72709523D01*
X156011904Y-72614285D01*
X155964285Y-72423809D01*
X155964285Y-72280952D01*
X156011904Y-72090476D01*
X156059523Y-71995238D01*
X156154761Y-71900000D01*
X156297619Y-71852380D01*
X156392857Y-71852380D01*
X156535714Y-71900000D01*
X156583333Y-71947619D01*
X156964285Y-71947619D02*
X157011904Y-71900000D01*
X157107142Y-71852380D01*
X157345238Y-71852380D01*
X157440476Y-71900000D01*
X157488095Y-71947619D01*
X157535714Y-72042857D01*
X157535714Y-72138095D01*
X157488095Y-72280952D01*
X156916666Y-72852380D01*
X157535714Y-72852380D01*
%TO.C,J6*%
X165666666Y-53512380D02*
X165666666Y-54226666D01*
X165619047Y-54369523D01*
X165523809Y-54464761D01*
X165380952Y-54512380D01*
X165285714Y-54512380D01*
X166571428Y-53512380D02*
X166380952Y-53512380D01*
X166285714Y-53560000D01*
X166238095Y-53607619D01*
X166142857Y-53750476D01*
X166095238Y-53940952D01*
X166095238Y-54321904D01*
X166142857Y-54417142D01*
X166190476Y-54464761D01*
X166285714Y-54512380D01*
X166476190Y-54512380D01*
X166571428Y-54464761D01*
X166619047Y-54417142D01*
X166666666Y-54321904D01*
X166666666Y-54083809D01*
X166619047Y-53988571D01*
X166571428Y-53940952D01*
X166476190Y-53893333D01*
X166285714Y-53893333D01*
X166190476Y-53940952D01*
X166142857Y-53988571D01*
X166095238Y-54083809D01*
%TO.C,PS1*%
X178433880Y-110115785D02*
X177433880Y-110115785D01*
X177433880Y-109734833D01*
X177481500Y-109639595D01*
X177529119Y-109591976D01*
X177624357Y-109544357D01*
X177767214Y-109544357D01*
X177862452Y-109591976D01*
X177910071Y-109639595D01*
X177957690Y-109734833D01*
X177957690Y-110115785D01*
X178386261Y-109163404D02*
X178433880Y-109020547D01*
X178433880Y-108782452D01*
X178386261Y-108687214D01*
X178338642Y-108639595D01*
X178243404Y-108591976D01*
X178148166Y-108591976D01*
X178052928Y-108639595D01*
X178005309Y-108687214D01*
X177957690Y-108782452D01*
X177910071Y-108972928D01*
X177862452Y-109068166D01*
X177814833Y-109115785D01*
X177719595Y-109163404D01*
X177624357Y-109163404D01*
X177529119Y-109115785D01*
X177481500Y-109068166D01*
X177433880Y-108972928D01*
X177433880Y-108734833D01*
X177481500Y-108591976D01*
X178433880Y-107639595D02*
X178433880Y-108211023D01*
X178433880Y-107925309D02*
X177433880Y-107925309D01*
X177576738Y-108020547D01*
X177671976Y-108115785D01*
X177719595Y-108211023D01*
X173353880Y-106694833D02*
X173353880Y-106075785D01*
X173734833Y-106409119D01*
X173734833Y-106266261D01*
X173782452Y-106171023D01*
X173830071Y-106123404D01*
X173925309Y-106075785D01*
X174163404Y-106075785D01*
X174258642Y-106123404D01*
X174306261Y-106171023D01*
X174353880Y-106266261D01*
X174353880Y-106551976D01*
X174306261Y-106647214D01*
X174258642Y-106694833D01*
X173687214Y-103631023D02*
X174353880Y-103631023D01*
X173306261Y-103869119D02*
X174020547Y-104107214D01*
X174020547Y-103488166D01*
X174353880Y-111155785D02*
X174353880Y-111727214D01*
X174353880Y-111441500D02*
X173353880Y-111441500D01*
X173496738Y-111536738D01*
X173591976Y-111631976D01*
X173639595Y-111727214D01*
X173449119Y-109187214D02*
X173401500Y-109139595D01*
X173353880Y-109044357D01*
X173353880Y-108806261D01*
X173401500Y-108711023D01*
X173449119Y-108663404D01*
X173544357Y-108615785D01*
X173639595Y-108615785D01*
X173782452Y-108663404D01*
X174353880Y-109234833D01*
X174353880Y-108615785D01*
%TO.C,Q1*%
X204177619Y-98595238D02*
X204130000Y-98690476D01*
X204034761Y-98785714D01*
X203891904Y-98928571D01*
X203844285Y-99023809D01*
X203844285Y-99119047D01*
X204082380Y-99071428D02*
X204034761Y-99166666D01*
X203939523Y-99261904D01*
X203749047Y-99309523D01*
X203415714Y-99309523D01*
X203225238Y-99261904D01*
X203130000Y-99166666D01*
X203082380Y-99071428D01*
X203082380Y-98880952D01*
X203130000Y-98785714D01*
X203225238Y-98690476D01*
X203415714Y-98642857D01*
X203749047Y-98642857D01*
X203939523Y-98690476D01*
X204034761Y-98785714D01*
X204082380Y-98880952D01*
X204082380Y-99071428D01*
X204082380Y-97690476D02*
X204082380Y-98261904D01*
X204082380Y-97976190D02*
X203082380Y-97976190D01*
X203225238Y-98071428D01*
X203320476Y-98166666D01*
X203368095Y-98261904D01*
D11*
%TO.C,REF\u002A\u002A*%
X207750000Y-47490000D02*
X210630000Y-42190000D01*
X210600000Y-51130000D02*
X206890000Y-49520000D01*
X210550000Y-72570000D02*
X207750000Y-71910000D01*
X210550000Y-46830000D02*
X207750000Y-47490000D01*
X203150000Y-67600000D02*
X197400000Y-67600000D01*
X200250000Y-71910000D02*
X197370000Y-77210000D01*
X210600000Y-67600000D02*
X210600000Y-68270000D01*
X203150000Y-59700000D02*
X203150000Y-67600000D01*
X197400000Y-68270000D02*
X201110000Y-69880000D01*
X206740000Y-75180000D02*
X207420000Y-77230000D01*
X206890000Y-69890000D02*
X210610000Y-72390000D01*
X210630000Y-77210000D02*
X210510000Y-77330000D01*
X210510000Y-42070000D02*
X206740000Y-44220000D01*
X204850000Y-59700000D02*
X204850000Y-51800000D01*
X197370000Y-77210000D02*
X197490000Y-77330000D01*
X200580000Y-42170000D02*
X200730000Y-42080000D01*
X206890000Y-49510000D02*
X210610000Y-47010000D01*
X197450000Y-72570000D02*
X200250000Y-71910000D01*
X197390000Y-47010000D02*
X197450000Y-46830000D01*
X201260000Y-44220000D02*
X200580000Y-42170000D01*
X197370000Y-42190000D02*
X197490000Y-42070000D01*
X210610000Y-47010000D02*
X210550000Y-46830000D01*
X200730000Y-77320000D02*
X202620000Y-75360000D01*
X197390000Y-72390000D02*
X197450000Y-72570000D01*
X197450000Y-46830000D02*
X200250000Y-47490000D01*
X210510000Y-77330000D02*
X206740000Y-75180000D01*
X200580000Y-77230000D02*
X200730000Y-77320000D01*
X197400000Y-67600000D02*
X197400000Y-68270000D01*
X201110000Y-49510000D02*
X197390000Y-47010000D01*
X203150000Y-51800000D02*
X197400000Y-51800000D01*
X201110000Y-69890000D02*
X197390000Y-72390000D01*
X207750000Y-71910000D02*
X210630000Y-77210000D01*
X197400000Y-51130000D02*
X201110000Y-49520000D01*
X207420000Y-77230000D02*
X207270000Y-77320000D01*
X200250000Y-47490000D02*
X197370000Y-42190000D01*
X204850000Y-59700000D02*
X204850000Y-67600000D01*
X206740000Y-44220000D02*
X207420000Y-42170000D01*
X210600000Y-68270000D02*
X206890000Y-69880000D01*
X204850000Y-67600000D02*
X210600000Y-67600000D01*
X204850000Y-51800000D02*
X210600000Y-51800000D01*
X207420000Y-42170000D02*
X207270000Y-42080000D01*
X210630000Y-42190000D02*
X210510000Y-42070000D01*
X197490000Y-77330000D02*
X201260000Y-75180000D01*
X197490000Y-42070000D02*
X201260000Y-44220000D01*
X210600000Y-51800000D02*
X210600000Y-51130000D01*
X200730000Y-42080000D02*
X202620000Y-44040000D01*
X207270000Y-77320000D02*
X205380000Y-75360000D01*
X210610000Y-72390000D02*
X210550000Y-72570000D01*
X203150000Y-59700000D02*
X203150000Y-51800000D01*
X197400000Y-51800000D02*
X197400000Y-51130000D01*
X201260000Y-75180000D02*
X200580000Y-77230000D01*
X207270000Y-42080000D02*
X205380000Y-44040000D01*
%TO.C,R1*%
X185868500Y-122808500D02*
X184918500Y-122808500D01*
X184918500Y-123728500D02*
X184918500Y-121888500D01*
X181078500Y-123728500D02*
X184918500Y-123728500D01*
X181078500Y-121888500D02*
X181078500Y-123728500D01*
X180128500Y-122808500D02*
X181078500Y-122808500D01*
X184918500Y-121888500D02*
X181078500Y-121888500D01*
%TO.C,U1*%
X180678500Y-109798500D02*
X180678500Y-111448500D01*
X180678500Y-106148500D02*
X180678500Y-107798500D01*
X190958500Y-111448500D02*
X190958500Y-106148500D01*
X190958500Y-106148500D02*
X180678500Y-106148500D01*
X180678500Y-111448500D02*
X190958500Y-111448500D01*
X180678500Y-109798500D02*
G75*
G03*
X180678500Y-107798500I0J1000000D01*
G01*
%TO.C,J2*%
X168228500Y-121328500D02*
X170888500Y-121328500D01*
X168228500Y-134088500D02*
X170888500Y-134088500D01*
X170888500Y-121328500D02*
X170888500Y-134088500D01*
X168228500Y-121328500D02*
X168228500Y-134088500D01*
X168228500Y-118728500D02*
X169558500Y-118728500D01*
X168228500Y-120058500D02*
X168228500Y-118728500D01*
%TO.C,F1*%
X152140000Y-59090000D02*
X174860000Y-59090000D01*
X174860000Y-68910000D02*
X174860000Y-65750000D01*
X152140000Y-62250000D02*
X152140000Y-59090000D01*
X152140000Y-68910000D02*
X174860000Y-68910000D01*
X152140000Y-68910000D02*
X152140000Y-65750000D01*
X174860000Y-62250000D02*
X174860000Y-59090000D01*
%TO.C,D1*%
X202951000Y-51380000D02*
X202951000Y-67520000D01*
X202951000Y-51380000D02*
X197680000Y-51380000D01*
X202951000Y-67520000D02*
X197680000Y-67520000D01*
X202951000Y-57646000D02*
X197680000Y-57646000D01*
X202951000Y-61255000D02*
X197680000Y-61255000D01*
X197680000Y-51380000D02*
X197680000Y-67520000D01*
%TO.C,J3*%
X192138500Y-122348500D02*
X192138500Y-123678500D01*
X192138500Y-121078500D02*
X189478500Y-121078500D01*
X192138500Y-123678500D02*
X190808500Y-123678500D01*
X192138500Y-121078500D02*
X192138500Y-118478500D01*
X189478500Y-121078500D02*
X189478500Y-118478500D01*
X192138500Y-118478500D02*
X189478500Y-118478500D01*
%TO.C,J1*%
X173228500Y-134088500D02*
X175888500Y-134088500D01*
X173228500Y-121328500D02*
X175888500Y-121328500D01*
X173228500Y-121328500D02*
X173228500Y-134088500D01*
X173228500Y-118728500D02*
X174558500Y-118728500D01*
X175888500Y-121328500D02*
X175888500Y-134088500D01*
X173228500Y-120058500D02*
X173228500Y-118728500D01*
%TO.C,R2*%
X184080000Y-98420000D02*
X185920000Y-98420000D01*
X185920000Y-98420000D02*
X185920000Y-94580000D01*
X184080000Y-94580000D02*
X184080000Y-98420000D01*
X185000000Y-93630000D02*
X185000000Y-94580000D01*
X185000000Y-99370000D02*
X185000000Y-98420000D01*
X185920000Y-94580000D02*
X184080000Y-94580000D01*
%TO.C,C1*%
X154310501Y-80213000D02*
X154310501Y-115287000D01*
X157590501Y-99990000D02*
X157590501Y-114741000D01*
X160150501Y-81655000D02*
X160150501Y-95510000D01*
X160790501Y-81951000D02*
X160790501Y-113549000D01*
X158390501Y-80992000D02*
X158390501Y-95510000D01*
X166989501Y-86987000D02*
X166989501Y-108513000D01*
X167229501Y-87303000D02*
X167229501Y-108197000D01*
X159710501Y-81469000D02*
X159710501Y-95510000D01*
X156310501Y-80470000D02*
X156310501Y-95510000D01*
X156270501Y-80463000D02*
X156270501Y-95510000D01*
X159710501Y-99990000D02*
X159710501Y-114031000D01*
X165029501Y-84850000D02*
X165029501Y-110650000D01*
X160070501Y-81620000D02*
X160070501Y-95510000D01*
X165109501Y-84925000D02*
X165109501Y-110575000D01*
X157830501Y-80825000D02*
X157830501Y-95510000D01*
X166269501Y-86118000D02*
X166269501Y-109382000D01*
X170269501Y-93965000D02*
X170269501Y-101535000D01*
X155350501Y-80318000D02*
X155350501Y-115182000D01*
X165789501Y-85597000D02*
X165789501Y-109903000D01*
X167109501Y-87143000D02*
X167109501Y-108357000D01*
X156070501Y-99990000D02*
X156070501Y-115073000D01*
X157790501Y-80813000D02*
X157790501Y-95510000D01*
X165549501Y-85351000D02*
X165549501Y-110149000D01*
X158270501Y-99990000D02*
X158270501Y-114546000D01*
X156710501Y-99990000D02*
X156710501Y-114950000D01*
X170309501Y-94150000D02*
X170309501Y-101350000D01*
X158710501Y-99990000D02*
X158710501Y-114403000D01*
X155910501Y-99990000D02*
X155910501Y-115100000D01*
X159030501Y-99990000D02*
X159030501Y-114292000D01*
X158350501Y-80979000D02*
X158350501Y-95510000D01*
X168509501Y-89300000D02*
X168509501Y-106200000D01*
X163389501Y-83508000D02*
X163389501Y-111992000D01*
X168069501Y-88545000D02*
X168069501Y-106955000D01*
X162029501Y-82618000D02*
X162029501Y-112882000D01*
X166029501Y-85852000D02*
X166029501Y-109648000D01*
X156070501Y-80427000D02*
X156070501Y-95510000D01*
X159390501Y-99990000D02*
X159390501Y-114158000D01*
X165429501Y-85232000D02*
X165429501Y-110268000D01*
X155950501Y-99990000D02*
X155950501Y-115094000D01*
X156510501Y-80509000D02*
X156510501Y-95510000D01*
X156430501Y-99990000D02*
X156430501Y-115007000D01*
X164229501Y-84154000D02*
X164229501Y-111346000D01*
X154790501Y-80254000D02*
X154790501Y-115246000D01*
X158350501Y-99990000D02*
X158350501Y-114521000D01*
X158750501Y-99990000D02*
X158750501Y-114390000D01*
X153389501Y-80172000D02*
X153389501Y-115328000D01*
X164509501Y-84388000D02*
X164509501Y-111112000D01*
X159310501Y-99990000D02*
X159310501Y-114189000D01*
X160950501Y-82030000D02*
X160950501Y-113470000D01*
X158030501Y-99990000D02*
X158030501Y-114618000D01*
X156550501Y-99990000D02*
X156550501Y-114983000D01*
X164389501Y-84287000D02*
X164389501Y-111213000D01*
X162469501Y-82886000D02*
X162469501Y-112614000D01*
X169389501Y-91147000D02*
X169389501Y-104353000D01*
X160870501Y-81990000D02*
X160870501Y-113510000D01*
X165709501Y-85514000D02*
X165709501Y-109986000D01*
X156430501Y-80493000D02*
X156430501Y-95510000D01*
X157990501Y-80870000D02*
X157990501Y-95510000D01*
X156710501Y-80550000D02*
X156710501Y-95510000D01*
X157550501Y-99990000D02*
X157550501Y-114751000D01*
X159270501Y-81296000D02*
X159270501Y-95510000D01*
X159350501Y-81327000D02*
X159350501Y-95510000D01*
X154550501Y-80232000D02*
X154550501Y-115268000D01*
X156990501Y-99990000D02*
X156990501Y-114889000D01*
X156190501Y-99990000D02*
X156190501Y-115052000D01*
X158230501Y-80942000D02*
X158230501Y-95510000D01*
X155030501Y-80279000D02*
X155030501Y-115221000D01*
X160270501Y-81708000D02*
X160270501Y-95510000D01*
X154350501Y-80216000D02*
X154350501Y-115284000D01*
X158910501Y-81165000D02*
X158910501Y-95510000D01*
X161030501Y-82070000D02*
X161030501Y-113430000D01*
X156790501Y-80567000D02*
X156790501Y-95510000D01*
X154870501Y-80262000D02*
X154870501Y-115238000D01*
X164349501Y-84253000D02*
X164349501Y-111247000D01*
X160710501Y-81912000D02*
X160710501Y-113588000D01*
X154750501Y-80250000D02*
X154750501Y-115250000D01*
X164909501Y-84740000D02*
X164909501Y-110760000D01*
X169829501Y-92352000D02*
X169829501Y-103148000D01*
X169749501Y-92111000D02*
X169749501Y-103389000D01*
X168149501Y-88676000D02*
X168149501Y-106824000D01*
X160350501Y-81744000D02*
X160350501Y-113756000D01*
X157110501Y-99990000D02*
X157110501Y-114861000D01*
X161549501Y-82344000D02*
X161549501Y-113156000D01*
X153950501Y-80191000D02*
X153950501Y-115309000D01*
X170669501Y-96950000D02*
X170669501Y-98550000D01*
X157670501Y-99990000D02*
X157670501Y-114719000D01*
X157910501Y-80847000D02*
X157910501Y-95510000D01*
X166509501Y-86395000D02*
X166509501Y-109105000D01*
X167869501Y-88228000D02*
X167869501Y-107272000D01*
X158870501Y-99990000D02*
X158870501Y-114349000D01*
X157030501Y-80620000D02*
X157030501Y-95510000D01*
X163429501Y-83537000D02*
X163429501Y-111963000D01*
X158310501Y-80967000D02*
X158310501Y-95510000D01*
X165589501Y-85391000D02*
X165589501Y-110109000D01*
X161749501Y-82456000D02*
X161749501Y-113044000D01*
X153349501Y-80172000D02*
X153349501Y-115328000D01*
X155470501Y-80334000D02*
X155470501Y-115166000D01*
X161469501Y-82301000D02*
X161469501Y-113199000D01*
X160190501Y-81672000D02*
X160190501Y-95510000D01*
X163349501Y-83479000D02*
X163349501Y-112021000D01*
X154950501Y-80270000D02*
X154950501Y-115230000D01*
X160270501Y-99990000D02*
X160270501Y-113792000D01*
X156910501Y-99990000D02*
X156910501Y-114907000D01*
X156150501Y-99990000D02*
X156150501Y-115059000D01*
X168429501Y-89156000D02*
X168429501Y-106344000D01*
X157150501Y-80648000D02*
X157150501Y-95510000D01*
X170069501Y-93157000D02*
X170069501Y-102343000D01*
X160190501Y-99990000D02*
X160190501Y-113828000D01*
X156950501Y-80602000D02*
X156950501Y-95510000D01*
X168549501Y-89373000D02*
X168549501Y-106127000D01*
X154670501Y-80242000D02*
X154670501Y-115258000D01*
X165749501Y-85555000D02*
X165749501Y-109945000D01*
X157910501Y-99990000D02*
X157910501Y-114653000D01*
X158670501Y-81083000D02*
X158670501Y-95510000D01*
X135965499Y-86125000D02*
X135965499Y-89625000D01*
X164469501Y-84354000D02*
X164469501Y-111146000D01*
X165909501Y-85723000D02*
X165909501Y-109777000D01*
X163829501Y-83836000D02*
X163829501Y-111664000D01*
X159470501Y-81373000D02*
X159470501Y-95510000D01*
X167829501Y-88166000D02*
X167829501Y-107334000D01*
X157070501Y-99990000D02*
X157070501Y-114870000D01*
X162309501Y-82787000D02*
X162309501Y-112713000D01*
X159430501Y-99990000D02*
X159430501Y-114143000D01*
X156390501Y-99990000D02*
X156390501Y-115015000D01*
X155070501Y-80283000D02*
X155070501Y-115217000D01*
X159270501Y-99990000D02*
X159270501Y-114204000D01*
X159590501Y-81420000D02*
X159590501Y-95510000D01*
X167949501Y-88353000D02*
X167949501Y-107147000D01*
X169349501Y-91050000D02*
X169349501Y-104450000D01*
X163069501Y-83282000D02*
X163069501Y-112218000D01*
X158790501Y-99990000D02*
X158790501Y-114376000D01*
X163509501Y-83595000D02*
X163509501Y-111905000D01*
X166389501Y-86255000D02*
X166389501Y-109245000D01*
X158990501Y-99990000D02*
X158990501Y-114306000D01*
X170629501Y-96337000D02*
X170629501Y-99163000D01*
X157630501Y-99990000D02*
X157630501Y-114730000D01*
X159910501Y-99990000D02*
X159910501Y-113949000D01*
X160030501Y-81602000D02*
X160030501Y-95510000D01*
X170349501Y-94345000D02*
X170349501Y-101155000D01*
X156350501Y-99990000D02*
X156350501Y-115023000D01*
X156190501Y-80448000D02*
X156190501Y-95510000D01*
X158670501Y-99990000D02*
X158670501Y-114417000D01*
X158790501Y-81124000D02*
X158790501Y-95510000D01*
X157630501Y-80770000D02*
X157630501Y-95510000D01*
X162869501Y-83146000D02*
X162869501Y-112354000D01*
X157230501Y-80668000D02*
X157230501Y-95510000D01*
X156590501Y-80525000D02*
X156590501Y-95510000D01*
X159110501Y-81237000D02*
X159110501Y-95510000D01*
X169029501Y-90323000D02*
X169029501Y-105177000D01*
X162429501Y-82861000D02*
X162429501Y-112639000D01*
X167989501Y-88416000D02*
X167989501Y-107084000D01*
X170549501Y-95573000D02*
X170549501Y-99927000D01*
X155670501Y-80362000D02*
X155670501Y-115138000D01*
X159910501Y-81551000D02*
X159910501Y-95510000D01*
X158150501Y-80918000D02*
X158150501Y-95510000D01*
X154590501Y-80235000D02*
X154590501Y-115265000D01*
X157950501Y-99990000D02*
X157950501Y-114641000D01*
X159950501Y-99990000D02*
X159950501Y-113932000D01*
X170109501Y-93306000D02*
X170109501Y-102194000D01*
X155910501Y-80400000D02*
X155910501Y-95510000D01*
X166749501Y-86684000D02*
X166749501Y-108816000D01*
X166949501Y-86935000D02*
X166949501Y-108565000D01*
X154910501Y-80266000D02*
X154910501Y-115234000D01*
X159790501Y-99990000D02*
X159790501Y-113999000D01*
X155710501Y-80368000D02*
X155710501Y-115132000D01*
X167149501Y-87196000D02*
X167149501Y-108304000D01*
X160230501Y-99990000D02*
X160230501Y-113810000D01*
X158070501Y-80894000D02*
X158070501Y-95510000D01*
X158430501Y-81005000D02*
X158430501Y-95510000D01*
X157230501Y-99990000D02*
X157230501Y-114832000D01*
X161989501Y-82594000D02*
X161989501Y-112906000D01*
X156870501Y-80584000D02*
X156870501Y-95510000D01*
X166429501Y-86301000D02*
X166429501Y-109199000D01*
X168909501Y-90072000D02*
X168909501Y-105428000D01*
X161349501Y-82236000D02*
X161349501Y-113264000D01*
X160030501Y-99990000D02*
X160030501Y-113898000D01*
X159670501Y-81452000D02*
X159670501Y-95510000D01*
X157510501Y-99990000D02*
X157510501Y-114762000D01*
X161509501Y-82322000D02*
X161509501Y-113178000D01*
X159510501Y-99990000D02*
X159510501Y-114111000D01*
X153549501Y-80176000D02*
X153549501Y-115324000D01*
X156030501Y-99990000D02*
X156030501Y-115080000D01*
X164629501Y-84492000D02*
X164629501Y-111008000D01*
X155270501Y-80307000D02*
X155270501Y-115193000D01*
X159950501Y-81568000D02*
X159950501Y-95510000D01*
X159790501Y-81501000D02*
X159790501Y-95510000D01*
X153229501Y-80170000D02*
X153229501Y-115330000D01*
X164749501Y-84597000D02*
X164749501Y-110903000D01*
X169789501Y-92230000D02*
X169789501Y-103270000D01*
X154270501Y-80210000D02*
X154270501Y-115290000D01*
X165469501Y-85271000D02*
X165469501Y-110229000D01*
X164029501Y-83993000D02*
X164029501Y-111507000D01*
X162349501Y-82811000D02*
X162349501Y-112689000D01*
X157950501Y-80859000D02*
X157950501Y-95510000D01*
X159310501Y-81311000D02*
X159310501Y-95510000D01*
X159070501Y-99990000D02*
X159070501Y-114277000D01*
X166229501Y-86073000D02*
X166229501Y-109427000D01*
X159630501Y-81436000D02*
X159630501Y-95510000D01*
X156230501Y-80455000D02*
X156230501Y-95510000D01*
X162909501Y-83173000D02*
X162909501Y-112327000D01*
X156670501Y-99990000D02*
X156670501Y-114959000D01*
X156830501Y-99990000D02*
X156830501Y-114925000D01*
X160390501Y-81762000D02*
X160390501Y-113738000D01*
X155830501Y-99990000D02*
X155830501Y-115113000D01*
X156790501Y-99990000D02*
X156790501Y-114933000D01*
X158390501Y-99990000D02*
X158390501Y-114508000D01*
X169069501Y-90409000D02*
X169069501Y-105091000D01*
X158110501Y-99990000D02*
X158110501Y-114594000D01*
X159630501Y-99990000D02*
X159630501Y-114064000D01*
X160150501Y-99990000D02*
X160150501Y-113845000D01*
X161709501Y-82433000D02*
X161709501Y-113067000D01*
X161269501Y-82194000D02*
X161269501Y-113306000D01*
X164189501Y-84122000D02*
X164189501Y-111378000D01*
X153870501Y-80188000D02*
X153870501Y-115312000D01*
X163029501Y-83255000D02*
X163029501Y-112245000D01*
X158230501Y-99990000D02*
X158230501Y-114558000D01*
X155950501Y-80406000D02*
X155950501Y-95510000D01*
X159030501Y-81208000D02*
X159030501Y-95510000D01*
X170029501Y-93012000D02*
X170029501Y-102488000D01*
X164949501Y-84777000D02*
X164949501Y-110723000D01*
X154630501Y-80239000D02*
X154630501Y-115261000D01*
X168349501Y-89015000D02*
X168349501Y-106485000D01*
X162189501Y-82713000D02*
X162189501Y-112787000D01*
X157510501Y-80738000D02*
X157510501Y-95510000D01*
X156470501Y-99990000D02*
X156470501Y-114999000D01*
X161629501Y-82389000D02*
X161629501Y-113111000D01*
X169469501Y-91347000D02*
X169469501Y-104153000D01*
X157470501Y-80728000D02*
X157470501Y-95510000D01*
X169509501Y-91450000D02*
X169509501Y-104050000D01*
X160630501Y-81874000D02*
X160630501Y-113626000D01*
X158630501Y-81070000D02*
X158630501Y-95510000D01*
X168789501Y-89830000D02*
X168789501Y-105670000D01*
X169269501Y-90860000D02*
X169269501Y-104640000D01*
X158910501Y-99990000D02*
X158910501Y-114335000D01*
X159870501Y-99990000D02*
X159870501Y-113965000D01*
X156390501Y-80485000D02*
X156390501Y-95510000D01*
X162829501Y-83120000D02*
X162829501Y-112380000D01*
X158710501Y-81097000D02*
X158710501Y-95510000D01*
X153189501Y-80170000D02*
X153189501Y-115330000D01*
X164429501Y-84320000D02*
X164429501Y-111180000D01*
X154510501Y-80228000D02*
X154510501Y-115272000D01*
X164789501Y-84633000D02*
X164789501Y-110867000D01*
X166909501Y-86885000D02*
X166909501Y-108615000D01*
X155310501Y-80312000D02*
X155310501Y-115188000D01*
X154830501Y-80258000D02*
X154830501Y-115242000D01*
X169149501Y-90585000D02*
X169149501Y-104915000D01*
X163989501Y-83961000D02*
X163989501Y-111539000D01*
X166309501Y-86163000D02*
X166309501Y-109337000D01*
X163309501Y-83451000D02*
X163309501Y-112049000D01*
X153469501Y-80174000D02*
X153469501Y-115326000D01*
X169629501Y-91770000D02*
X169629501Y-103730000D01*
X155110501Y-80288000D02*
X155110501Y-115212000D01*
X161070501Y-82090000D02*
X161070501Y-113410000D01*
X157670501Y-80781000D02*
X157670501Y-95510000D01*
X156830501Y-80575000D02*
X156830501Y-95510000D01*
X169429501Y-91246000D02*
X169429501Y-104254000D01*
X159870501Y-81535000D02*
X159870501Y-95510000D01*
X167589501Y-87808000D02*
X167589501Y-107692000D01*
X164149501Y-84089000D02*
X164149501Y-111411000D01*
X163949501Y-83930000D02*
X163949501Y-111570000D01*
X168669501Y-89598000D02*
X168669501Y-105902000D01*
X170469501Y-95014000D02*
X170469501Y-100486000D01*
X169109501Y-90497000D02*
X169109501Y-105003000D01*
X165189501Y-85000000D02*
X165189501Y-110500000D01*
X162589501Y-82963000D02*
X162589501Y-112537000D01*
X162509501Y-82912000D02*
X162509501Y-112588000D01*
X161909501Y-82547000D02*
X161909501Y-112953000D01*
X166789501Y-86734000D02*
X166789501Y-108766000D01*
X157710501Y-99990000D02*
X157710501Y-114709000D01*
X154070501Y-80198000D02*
X154070501Y-115302000D01*
X159150501Y-99990000D02*
X159150501Y-114248000D01*
X159470501Y-99990000D02*
X159470501Y-114127000D01*
X153669501Y-80180000D02*
X153669501Y-115320000D01*
X156590501Y-99990000D02*
X156590501Y-114975000D01*
X157110501Y-80639000D02*
X157110501Y-95510000D01*
X166669501Y-86587000D02*
X166669501Y-108913000D01*
X162109501Y-82665000D02*
X162109501Y-112835000D01*
X154150501Y-80203000D02*
X154150501Y-115297000D01*
X158630501Y-99990000D02*
X158630501Y-114430000D01*
X165269501Y-85076000D02*
X165269501Y-110424000D01*
X168869501Y-89991000D02*
X168869501Y-105509000D01*
X159110501Y-99990000D02*
X159110501Y-114263000D01*
X157390501Y-99990000D02*
X157390501Y-114793000D01*
X163189501Y-83366000D02*
X163189501Y-112134000D01*
X157870501Y-80836000D02*
X157870501Y-95510000D01*
X153109501Y-80170000D02*
X153109501Y-115330000D01*
X164669501Y-84527000D02*
X164669501Y-110973000D01*
X155790501Y-80381000D02*
X155790501Y-115119000D01*
X158110501Y-80906000D02*
X158110501Y-95510000D01*
X160510501Y-81817000D02*
X160510501Y-113683000D01*
X165069501Y-84887000D02*
X165069501Y-110613000D01*
X164109501Y-84057000D02*
X164109501Y-111443000D01*
X157270501Y-99990000D02*
X157270501Y-114823000D01*
X160110501Y-99990000D02*
X160110501Y-113863000D01*
X153790501Y-80184000D02*
X153790501Y-115316000D01*
X159830501Y-99990000D02*
X159830501Y-113982000D01*
X153429501Y-80173000D02*
X153429501Y-115327000D01*
X161190501Y-82152000D02*
X161190501Y-113348000D01*
X166629501Y-86538000D02*
X166629501Y-108962000D01*
X167389501Y-87523000D02*
X167389501Y-107977000D01*
X153910501Y-80190000D02*
X153910501Y-115310000D01*
X160430501Y-81780000D02*
X160430501Y-113720000D01*
X159990501Y-81585000D02*
X159990501Y-95510000D01*
X161869501Y-82524000D02*
X161869501Y-112976000D01*
X170149501Y-93461000D02*
X170149501Y-102039000D01*
X158590501Y-99990000D02*
X158590501Y-114444000D01*
X166069501Y-85896000D02*
X166069501Y-109604000D01*
X160110501Y-81637000D02*
X160110501Y-95510000D01*
X155870501Y-80393000D02*
X155870501Y-95510000D01*
X159750501Y-99990000D02*
X159750501Y-114015000D01*
X156750501Y-80558000D02*
X156750501Y-95510000D01*
X156110501Y-80434000D02*
X156110501Y-95510000D01*
X163709501Y-83745000D02*
X163709501Y-111755000D01*
X156110501Y-99990000D02*
X156110501Y-115066000D01*
X155590501Y-80351000D02*
X155590501Y-115149000D01*
X159190501Y-81266000D02*
X159190501Y-95510000D01*
X160750501Y-81931000D02*
X160750501Y-113569000D01*
X156630501Y-99990000D02*
X156630501Y-114967000D01*
X154430501Y-80222000D02*
X154430501Y-115278000D01*
X156990501Y-80611000D02*
X156990501Y-95510000D01*
X162389501Y-82836000D02*
X162389501Y-112664000D01*
X154390501Y-80219000D02*
X154390501Y-115281000D01*
X165309501Y-85115000D02*
X165309501Y-110385000D01*
X155190501Y-80298000D02*
X155190501Y-115202000D01*
X168269501Y-88877000D02*
X168269501Y-106623000D01*
X154470501Y-80225000D02*
X154470501Y-115275000D01*
X159230501Y-81281000D02*
X159230501Y-95510000D01*
X162989501Y-83227000D02*
X162989501Y-112273000D01*
X157350501Y-99990000D02*
X157350501Y-114803000D01*
X156630501Y-80533000D02*
X156630501Y-95510000D01*
X157150501Y-99990000D02*
X157150501Y-114852000D01*
X167469501Y-87635000D02*
X167469501Y-107865000D01*
X158190501Y-99990000D02*
X158190501Y-114570000D01*
X155750501Y-80375000D02*
X155750501Y-115125000D01*
X161669501Y-82411000D02*
X161669501Y-113089000D01*
X153269501Y-80171000D02*
X153269501Y-115329000D01*
X157190501Y-99990000D02*
X157190501Y-114842000D01*
X166549501Y-86443000D02*
X166549501Y-109057000D01*
X153709501Y-80181000D02*
X153709501Y-115319000D01*
X158470501Y-99990000D02*
X158470501Y-114483000D01*
X157430501Y-99990000D02*
X157430501Y-114783000D01*
X156470501Y-80501000D02*
X156470501Y-95510000D01*
X158830501Y-81138000D02*
X158830501Y-95510000D01*
X167069501Y-87091000D02*
X167069501Y-108409000D01*
X169309501Y-90954000D02*
X169309501Y-104546000D01*
X166189501Y-86028000D02*
X166189501Y-109472000D01*
X158870501Y-81151000D02*
X158870501Y-95510000D01*
X162669501Y-83014000D02*
X162669501Y-112486000D01*
X153629501Y-80178000D02*
X153629501Y-115322000D01*
X163269501Y-83422000D02*
X163269501Y-112078000D01*
X157270501Y-80677000D02*
X157270501Y-95510000D01*
X169949501Y-92737000D02*
X169949501Y-102763000D01*
X160910501Y-82010000D02*
X160910501Y-113490000D01*
X165149501Y-84962000D02*
X165149501Y-110538000D01*
X169989501Y-92872000D02*
X169989501Y-102628000D01*
X163629501Y-83685000D02*
X163629501Y-111815000D01*
X165869501Y-85681000D02*
X165869501Y-109819000D01*
X159390501Y-81342000D02*
X159390501Y-95510000D01*
X155150501Y-80293000D02*
X155150501Y-115207000D01*
X153830501Y-80186000D02*
X153830501Y-115314000D01*
X162949501Y-83200000D02*
X162949501Y-112300000D01*
X166589501Y-86490000D02*
X166589501Y-109010000D01*
X157990501Y-99990000D02*
X157990501Y-114630000D01*
X169589501Y-91661000D02*
X169589501Y-103839000D01*
X165829501Y-85639000D02*
X165829501Y-109861000D01*
X159550501Y-81404000D02*
X159550501Y-95510000D01*
X158150501Y-99990000D02*
X158150501Y-114582000D01*
X163749501Y-83775000D02*
X163749501Y-111725000D01*
X157310501Y-80687000D02*
X157310501Y-95510000D01*
X169669501Y-91882000D02*
X169669501Y-103618000D01*
X157070501Y-80630000D02*
X157070501Y-95510000D01*
X163909501Y-83899000D02*
X163909501Y-111601000D01*
X165389501Y-85193000D02*
X165389501Y-110307000D01*
X169189501Y-90675000D02*
X169189501Y-104825000D01*
X167709501Y-87985000D02*
X167709501Y-107515000D01*
X162749501Y-83067000D02*
X162749501Y-112433000D01*
X153149501Y-80170000D02*
X153149501Y-115330000D01*
X164069501Y-84025000D02*
X164069501Y-111475000D01*
X169709501Y-91995000D02*
X169709501Y-103505000D01*
X167349501Y-87467000D02*
X167349501Y-108033000D01*
X155990501Y-99990000D02*
X155990501Y-115087000D01*
X166869501Y-86834000D02*
X166869501Y-108666000D01*
X162709501Y-83040000D02*
X162709501Y-112460000D01*
X165949501Y-85766000D02*
X165949501Y-109734000D01*
X154110501Y-80200000D02*
X154110501Y-115300000D01*
X158950501Y-81180000D02*
X158950501Y-95510000D01*
X168989501Y-90238000D02*
X168989501Y-105262000D01*
X162789501Y-83093000D02*
X162789501Y-112407000D01*
X166349501Y-86209000D02*
X166349501Y-109291000D01*
X157030501Y-99990000D02*
X157030501Y-114880000D01*
X156150501Y-80441000D02*
X156150501Y-95510000D01*
X161949501Y-82571000D02*
X161949501Y-112929000D01*
X154030501Y-80196000D02*
X154030501Y-115304000D01*
X160830501Y-81970000D02*
X160830501Y-113530000D01*
X159750501Y-81485000D02*
X159750501Y-95510000D01*
X153990501Y-80194000D02*
X153990501Y-115306000D01*
X158510501Y-81030000D02*
X158510501Y-95510000D01*
X134215499Y-87875000D02*
X137715499Y-87875000D01*
X164989501Y-84813000D02*
X164989501Y-110687000D01*
X157350501Y-80697000D02*
X157350501Y-95510000D01*
X162149501Y-82689000D02*
X162149501Y-112811000D01*
X158470501Y-81017000D02*
X158470501Y-95510000D01*
X165989501Y-85809000D02*
X165989501Y-109691000D01*
X159070501Y-81223000D02*
X159070501Y-95510000D01*
X159590501Y-99990000D02*
X159590501Y-114080000D01*
X164269501Y-84187000D02*
X164269501Y-111313000D01*
X158590501Y-81056000D02*
X158590501Y-95510000D01*
X159230501Y-99990000D02*
X159230501Y-114219000D01*
X161589501Y-82366000D02*
X161589501Y-113134000D01*
X157550501Y-80749000D02*
X157550501Y-95510000D01*
X159670501Y-99990000D02*
X159670501Y-114048000D01*
X162269501Y-82762000D02*
X162269501Y-112738000D01*
X162229501Y-82738000D02*
X162229501Y-112762000D01*
X158030501Y-80882000D02*
X158030501Y-95510000D01*
X160990501Y-82050000D02*
X160990501Y-113450000D01*
X156670501Y-80541000D02*
X156670501Y-95510000D01*
X157710501Y-80791000D02*
X157710501Y-95510000D01*
X155430501Y-80328000D02*
X155430501Y-115172000D01*
X161829501Y-82501000D02*
X161829501Y-112999000D01*
X157750501Y-80802000D02*
X157750501Y-95510000D01*
X165509501Y-85311000D02*
X165509501Y-110189000D01*
X166829501Y-86784000D02*
X166829501Y-108716000D01*
X164309501Y-84220000D02*
X164309501Y-111280000D01*
X157190501Y-80658000D02*
X157190501Y-95510000D01*
X167029501Y-87039000D02*
X167029501Y-108461000D01*
X170589501Y-95915000D02*
X170589501Y-99585000D01*
X158430501Y-99990000D02*
X158430501Y-114495000D01*
X161230501Y-82173000D02*
X161230501Y-113327000D01*
X168589501Y-89447000D02*
X168589501Y-106053000D01*
X164549501Y-84423000D02*
X164549501Y-111077000D01*
X167749501Y-88045000D02*
X167749501Y-107455000D01*
X155630501Y-80356000D02*
X155630501Y-115144000D01*
X168709501Y-89674000D02*
X168709501Y-105826000D01*
X168389501Y-89085000D02*
X168389501Y-106415000D01*
X163229501Y-83394000D02*
X163229501Y-112106000D01*
X161429501Y-82279000D02*
X161429501Y-113221000D01*
X156550501Y-80517000D02*
X156550501Y-95510000D01*
X159190501Y-99990000D02*
X159190501Y-114234000D01*
X157790501Y-99990000D02*
X157790501Y-114687000D01*
X153509501Y-80175000D02*
X153509501Y-115325000D01*
X156750501Y-99990000D02*
X156750501Y-114942000D01*
X168189501Y-88742000D02*
X168189501Y-106758000D01*
X156910501Y-80593000D02*
X156910501Y-95510000D01*
X160070501Y-99990000D02*
X160070501Y-113880000D01*
X164829501Y-84668000D02*
X164829501Y-110832000D01*
X155830501Y-80387000D02*
X155830501Y-95510000D01*
X170229501Y-93790000D02*
X170229501Y-101710000D01*
X157310501Y-99990000D02*
X157310501Y-114813000D01*
X157430501Y-80717000D02*
X157430501Y-95510000D01*
X167429501Y-87579000D02*
X167429501Y-107921000D01*
X157590501Y-80759000D02*
X157590501Y-95510000D01*
X167789501Y-88105000D02*
X167789501Y-107395000D01*
X158990501Y-81194000D02*
X158990501Y-95510000D01*
X159990501Y-99990000D02*
X159990501Y-113915000D01*
X159830501Y-81518000D02*
X159830501Y-95510000D01*
X155230501Y-80302000D02*
X155230501Y-115198000D01*
X156950501Y-99990000D02*
X156950501Y-114898000D01*
X168029501Y-88480000D02*
X168029501Y-107020000D01*
X154710501Y-80246000D02*
X154710501Y-115254000D01*
X156510501Y-99990000D02*
X156510501Y-114991000D01*
X156270501Y-99990000D02*
X156270501Y-115037000D01*
X167549501Y-87750000D02*
X167549501Y-107750000D01*
X158190501Y-80930000D02*
X158190501Y-95510000D01*
X159550501Y-99990000D02*
X159550501Y-114096000D01*
X157750501Y-99990000D02*
X157750501Y-114698000D01*
X155510501Y-80339000D02*
X155510501Y-115161000D01*
X161309501Y-82215000D02*
X161309501Y-113285000D01*
X153309501Y-80171000D02*
X153309501Y-115329000D01*
X156230501Y-99990000D02*
X156230501Y-115045000D01*
X168829501Y-89910000D02*
X168829501Y-105590000D01*
X163789501Y-83806000D02*
X163789501Y-111694000D01*
X153069501Y-80170000D02*
X153069501Y-115330000D01*
X167669501Y-87925000D02*
X167669501Y-107575000D01*
X161110501Y-82111000D02*
X161110501Y-113389000D01*
X161389501Y-82258000D02*
X161389501Y-113242000D01*
X162069501Y-82641000D02*
X162069501Y-112859000D01*
X160590501Y-81855000D02*
X160590501Y-113645000D01*
X169909501Y-92605000D02*
X169909501Y-102895000D01*
X167509501Y-87692000D02*
X167509501Y-107808000D01*
X165629501Y-85432000D02*
X165629501Y-110068000D01*
X163669501Y-83715000D02*
X163669501Y-111785000D01*
X160230501Y-81690000D02*
X160230501Y-95510000D01*
X167189501Y-87250000D02*
X167189501Y-108250000D01*
X165349501Y-85154000D02*
X165349501Y-110346000D01*
X168309501Y-88946000D02*
X168309501Y-106554000D01*
X155550501Y-80345000D02*
X155550501Y-115155000D01*
X158270501Y-80954000D02*
X158270501Y-95510000D01*
X155990501Y-80413000D02*
X155990501Y-95510000D01*
X159350501Y-99990000D02*
X159350501Y-114173000D01*
X168949501Y-90155000D02*
X168949501Y-105345000D01*
X158310501Y-99990000D02*
X158310501Y-114533000D01*
X156350501Y-80477000D02*
X156350501Y-95510000D01*
X170189501Y-93622000D02*
X170189501Y-101878000D01*
X159510501Y-81389000D02*
X159510501Y-95510000D01*
X158550501Y-81043000D02*
X158550501Y-95510000D01*
X165229501Y-85038000D02*
X165229501Y-110462000D01*
X168469501Y-89228000D02*
X168469501Y-106272000D01*
X153749501Y-80183000D02*
X153749501Y-115317000D01*
X160310501Y-81726000D02*
X160310501Y-113774000D01*
X164869501Y-84704000D02*
X164869501Y-110796000D01*
X158070501Y-99990000D02*
X158070501Y-114606000D01*
X158830501Y-99990000D02*
X158830501Y-114362000D01*
X169869501Y-92477000D02*
X169869501Y-103023000D01*
X163149501Y-83338000D02*
X163149501Y-112162000D01*
X168229501Y-88810000D02*
X168229501Y-106690000D01*
X160670501Y-81893000D02*
X160670501Y-113607000D01*
X153589501Y-80177000D02*
X153589501Y-115323000D01*
X156870501Y-99990000D02*
X156870501Y-114916000D01*
X163589501Y-83655000D02*
X163589501Y-111845000D01*
X160470501Y-81799000D02*
X160470501Y-113701000D01*
X164589501Y-84457000D02*
X164589501Y-111043000D01*
X157830501Y-99990000D02*
X157830501Y-114675000D01*
X170389501Y-94552000D02*
X170389501Y-100948000D01*
X154990501Y-80274000D02*
X154990501Y-115226000D01*
X159150501Y-81252000D02*
X159150501Y-95510000D01*
X162549501Y-82937000D02*
X162549501Y-112563000D01*
X166109501Y-85939000D02*
X166109501Y-109561000D01*
X166709501Y-86635000D02*
X166709501Y-108865000D01*
X157390501Y-80707000D02*
X157390501Y-95510000D01*
X167629501Y-87866000D02*
X167629501Y-107634000D01*
X159430501Y-81357000D02*
X159430501Y-95510000D01*
X163469501Y-83566000D02*
X163469501Y-111934000D01*
X157870501Y-99990000D02*
X157870501Y-114664000D01*
X169549501Y-91555000D02*
X169549501Y-103945000D01*
X155390501Y-80323000D02*
X155390501Y-115177000D01*
X161150501Y-82131000D02*
X161150501Y-113369000D01*
X157470501Y-99990000D02*
X157470501Y-114772000D01*
X154230501Y-80208000D02*
X154230501Y-115292000D01*
X156030501Y-80420000D02*
X156030501Y-95510000D01*
X164709501Y-84562000D02*
X164709501Y-110938000D01*
X165669501Y-85473000D02*
X165669501Y-110027000D01*
X168109501Y-88610000D02*
X168109501Y-106890000D01*
X161789501Y-82479000D02*
X161789501Y-113021000D01*
X158510501Y-99990000D02*
X158510501Y-114470000D01*
X166469501Y-86348000D02*
X166469501Y-109152000D01*
X169229501Y-90767000D02*
X169229501Y-104733000D01*
X168749501Y-89752000D02*
X168749501Y-105748000D01*
X155870501Y-99990000D02*
X155870501Y-115107000D01*
X154190501Y-80205000D02*
X154190501Y-115295000D01*
X163109501Y-83310000D02*
X163109501Y-112190000D01*
X170429501Y-94774000D02*
X170429501Y-100726000D01*
X158550501Y-99990000D02*
X158550501Y-114457000D01*
X163549501Y-83625000D02*
X163549501Y-111875000D01*
X166149501Y-85984000D02*
X166149501Y-109516000D01*
X167269501Y-87358000D02*
X167269501Y-108142000D01*
X170509501Y-95277000D02*
X170509501Y-100223000D01*
X167909501Y-88290000D02*
X167909501Y-107210000D01*
X168629501Y-89522000D02*
X168629501Y-105978000D01*
X158950501Y-99990000D02*
X158950501Y-114320000D01*
X162629501Y-82988000D02*
X162629501Y-112512000D01*
X156310501Y-99990000D02*
X156310501Y-115030000D01*
X163869501Y-83867000D02*
X163869501Y-111633000D01*
X158750501Y-81110000D02*
X158750501Y-95510000D01*
X160550501Y-81836000D02*
X160550501Y-113664000D01*
X167309501Y-87412000D02*
X167309501Y-108088000D01*
X170689501Y-97750000D02*
G75*
G03*
X170689501Y-97750000I-17620000J0D01*
G01*
%TO.C,J5*%
X191310000Y-53060000D02*
X176190000Y-53060000D01*
X191310000Y-41940000D02*
X176190000Y-41940000D01*
X191310000Y-51100000D02*
X176190000Y-51100000D01*
X178725000Y-48569000D02*
X178772000Y-48523000D01*
X181227000Y-46477000D02*
X181274000Y-46431000D01*
X191550000Y-42540000D02*
X191550000Y-41700000D01*
X181034000Y-46261000D02*
X181069000Y-46226000D01*
X176190000Y-53060000D02*
X176190000Y-41940000D01*
X191550000Y-41700000D02*
X190950000Y-41700000D01*
X191310000Y-42600000D02*
X176190000Y-42600000D01*
X191310000Y-44500000D02*
X176190000Y-44500000D01*
X191310000Y-53060000D02*
X191310000Y-41940000D01*
X178930000Y-48775000D02*
X178965000Y-48739000D01*
X186816000Y-49035000D02*
G75*
G03*
X188183042Y-49035427I684001J1534993D01*
G01*
X188184000Y-45965000D02*
G75*
G03*
X187471195Y-45819747I-683999J-1535001D01*
G01*
X189035000Y-48184000D02*
G75*
G03*
X189035427Y-46816958I-1534993J684001D01*
G01*
X185965000Y-46816000D02*
G75*
G03*
X185964573Y-48183042I1534993J-684001D01*
G01*
X187500000Y-45820000D02*
G75*
G03*
X186816682Y-45965244I-1J-1679992D01*
G01*
X181680000Y-47500000D02*
G75*
G03*
X181680000Y-47500000I-1680000J0D01*
G01*
%TO.C,J4*%
X153273000Y-127773000D02*
X153226000Y-127819000D01*
X155570000Y-125475000D02*
X155535000Y-125511000D01*
X143190000Y-132310000D02*
X158310000Y-132310000D01*
X143190000Y-121190000D02*
X158310000Y-121190000D01*
X142950000Y-132550000D02*
X143550000Y-132550000D01*
X155775000Y-125681000D02*
X155728000Y-125727000D01*
X153466000Y-127989000D02*
X153431000Y-128024000D01*
X143190000Y-129750000D02*
X158310000Y-129750000D01*
X143190000Y-131650000D02*
X158310000Y-131650000D01*
X143190000Y-121190000D02*
X143190000Y-132310000D01*
X158310000Y-121190000D02*
X158310000Y-132310000D01*
X143190000Y-123150000D02*
X158310000Y-123150000D01*
X142950000Y-131710000D02*
X142950000Y-132550000D01*
X145465000Y-126066000D02*
G75*
G03*
X145464573Y-127433042I1534993J-684001D01*
G01*
X146316000Y-128285000D02*
G75*
G03*
X147028805Y-128430253I683999J1535001D01*
G01*
X148535000Y-127434000D02*
G75*
G03*
X148535427Y-126066958I-1534993J684001D01*
G01*
X147684000Y-125215000D02*
G75*
G03*
X146316958Y-125214573I-684001J-1534993D01*
G01*
X147000000Y-128430000D02*
G75*
G03*
X147683318Y-128284756I1J1679992D01*
G01*
X156180000Y-126750000D02*
G75*
G03*
X156180000Y-126750000I-1680000J0D01*
G01*
%TO.C,REF\u002A\u002A*%
X201110000Y-108690000D02*
X197390000Y-111190000D01*
X201260000Y-113980000D02*
X200580000Y-116030000D01*
X206890000Y-108690000D02*
X210610000Y-111190000D01*
X197490000Y-116130000D02*
X201260000Y-113980000D01*
X203150000Y-98500000D02*
X203150000Y-90600000D01*
X207750000Y-86290000D02*
X210630000Y-80990000D01*
X203150000Y-106400000D02*
X197400000Y-106400000D01*
X206740000Y-113980000D02*
X207420000Y-116030000D01*
X200250000Y-110710000D02*
X197370000Y-116010000D01*
X200730000Y-80880000D02*
X202620000Y-82840000D01*
X204850000Y-90600000D02*
X210600000Y-90600000D01*
X210510000Y-80870000D02*
X206740000Y-83020000D01*
X203150000Y-98500000D02*
X203150000Y-106400000D01*
X206890000Y-88310000D02*
X210610000Y-85810000D01*
X210630000Y-116010000D02*
X210510000Y-116130000D01*
X200580000Y-116030000D02*
X200730000Y-116120000D01*
X210600000Y-106400000D02*
X210600000Y-107070000D01*
X203150000Y-90600000D02*
X197400000Y-90600000D01*
X207420000Y-116030000D02*
X207270000Y-116120000D01*
X210610000Y-85810000D02*
X210550000Y-85630000D01*
X210550000Y-85630000D02*
X207750000Y-86290000D01*
X200250000Y-86290000D02*
X197370000Y-80990000D01*
X200580000Y-80970000D02*
X200730000Y-80880000D01*
X210630000Y-80990000D02*
X210510000Y-80870000D01*
X204850000Y-98500000D02*
X204850000Y-90600000D01*
X197400000Y-89930000D02*
X201110000Y-88320000D01*
X197390000Y-111190000D02*
X197450000Y-111370000D01*
X206740000Y-83020000D02*
X207420000Y-80970000D01*
X197370000Y-80990000D02*
X197490000Y-80870000D01*
X201110000Y-88310000D02*
X197390000Y-85810000D01*
X204850000Y-106400000D02*
X210600000Y-106400000D01*
X201260000Y-83020000D02*
X200580000Y-80970000D01*
X197390000Y-85810000D02*
X197450000Y-85630000D01*
X207270000Y-116120000D02*
X205380000Y-114160000D01*
X197450000Y-111370000D02*
X200250000Y-110710000D01*
X210550000Y-111370000D02*
X207750000Y-110710000D01*
X210600000Y-90600000D02*
X210600000Y-89930000D01*
X204850000Y-98500000D02*
X204850000Y-106400000D01*
X207270000Y-80880000D02*
X205380000Y-82840000D01*
X207750000Y-110710000D02*
X210630000Y-116010000D01*
X197450000Y-85630000D02*
X200250000Y-86290000D01*
X207420000Y-80970000D02*
X207270000Y-80880000D01*
X210600000Y-89930000D02*
X206890000Y-88320000D01*
X197400000Y-106400000D02*
X197400000Y-107070000D01*
X200730000Y-116120000D02*
X202620000Y-114160000D01*
X210510000Y-116130000D02*
X206740000Y-113980000D01*
X210610000Y-111190000D02*
X210550000Y-111370000D01*
X197400000Y-107070000D02*
X201110000Y-108680000D01*
X197370000Y-116010000D02*
X197490000Y-116130000D01*
X197400000Y-90600000D02*
X197400000Y-89930000D01*
X210600000Y-107070000D02*
X206890000Y-108680000D01*
X197490000Y-80870000D02*
X201260000Y-83020000D01*
%TO.C,C2*%
X159420000Y-76305000D02*
X159420000Y-76971000D01*
X154080000Y-73529000D02*
X159420000Y-73529000D01*
X159420000Y-73529000D02*
X159420000Y-74195000D01*
X154080000Y-76305000D02*
X154080000Y-76971000D01*
X154080000Y-76971000D02*
X159420000Y-76971000D01*
X154080000Y-73529000D02*
X154080000Y-74195000D01*
%TO.C,J6*%
X173800000Y-42540000D02*
X173800000Y-41700000D01*
X173560000Y-51100000D02*
X158440000Y-51100000D01*
X158440000Y-53060000D02*
X158440000Y-41940000D01*
X160975000Y-48569000D02*
X161022000Y-48523000D01*
X173560000Y-44500000D02*
X158440000Y-44500000D01*
X173800000Y-41700000D02*
X173200000Y-41700000D01*
X163284000Y-46261000D02*
X163319000Y-46226000D01*
X161180000Y-48775000D02*
X161215000Y-48739000D01*
X173560000Y-53060000D02*
X173560000Y-41940000D01*
X173560000Y-41940000D02*
X158440000Y-41940000D01*
X163477000Y-46477000D02*
X163524000Y-46431000D01*
X173560000Y-53060000D02*
X158440000Y-53060000D01*
X173560000Y-42600000D02*
X158440000Y-42600000D01*
X169750000Y-45820000D02*
G75*
G03*
X169066682Y-45965244I-1J-1679992D01*
G01*
X170434000Y-45965000D02*
G75*
G03*
X169721195Y-45819747I-683999J-1535001D01*
G01*
X169066000Y-49035000D02*
G75*
G03*
X170433042Y-49035427I684001J1534993D01*
G01*
X171285000Y-48184000D02*
G75*
G03*
X171285427Y-46816958I-1534993J684001D01*
G01*
X168215000Y-46816000D02*
G75*
G03*
X168214573Y-48183042I1534993J-684001D01*
G01*
X163930000Y-47500000D02*
G75*
G03*
X163930000Y-47500000I-1680000J0D01*
G01*
%TO.C,PS1*%
X174917500Y-113981500D02*
G75*
G03*
X174917500Y-113981500I-1016000J0D01*
G01*
%TO.C,Q1*%
X202631000Y-90430000D02*
X202631000Y-106570000D01*
X197360000Y-90430000D02*
X197360000Y-106570000D01*
X202631000Y-100305000D02*
X197360000Y-100305000D01*
X202631000Y-106570000D02*
X197360000Y-106570000D01*
X202631000Y-90430000D02*
X197360000Y-90430000D01*
X202631000Y-96696000D02*
X197360000Y-96696000D01*
%TD*%
M02*
