%TF.GenerationSoftware,KiCad,Pcbnew,(6.0.2)*%
%TF.CreationDate,2022-12-19T22:08:20+03:00*%
%TF.ProjectId,buck,6275636b-2e6b-4696-9361-645f70636258,rev?*%
%TF.SameCoordinates,Original*%
%TF.FileFunction,Copper,L1,Top*%
%TF.FilePolarity,Positive*%
%FSLAX46Y46*%
G04 Gerber Fmt 4.6, Leading zero omitted, Abs format (unit mm)*
G04 Created by KiCad (PCBNEW (6.0.2)) date 2022-12-19 22:08:20*
%MOMM*%
%LPD*%
G01*
G04 APERTURE LIST*
%TA.AperFunction,ComponentPad*%
%ADD10C,6.000000*%
%TD*%
%TA.AperFunction,ComponentPad*%
%ADD11C,1.400000*%
%TD*%
%TA.AperFunction,ComponentPad*%
%ADD12O,1.400000X1.400000*%
%TD*%
%TA.AperFunction,ComponentPad*%
%ADD13R,1.600000X1.600000*%
%TD*%
%TA.AperFunction,ComponentPad*%
%ADD14O,1.600000X1.600000*%
%TD*%
%TA.AperFunction,ComponentPad*%
%ADD15R,1.700000X1.700000*%
%TD*%
%TA.AperFunction,ComponentPad*%
%ADD16O,1.700000X1.700000*%
%TD*%
%TA.AperFunction,ComponentPad*%
%ADD17C,3.000000*%
%TD*%
%TA.AperFunction,ComponentPad*%
%ADD18R,4.500000X2.500000*%
%TD*%
%TA.AperFunction,ComponentPad*%
%ADD19O,4.500000X2.500000*%
%TD*%
%TA.AperFunction,ComponentPad*%
%ADD20R,4.000000X4.000000*%
%TD*%
%TA.AperFunction,ComponentPad*%
%ADD21C,4.000000*%
%TD*%
%TA.AperFunction,ComponentPad*%
%ADD22R,2.600000X2.600000*%
%TD*%
%TA.AperFunction,ComponentPad*%
%ADD23C,2.600000*%
%TD*%
%TA.AperFunction,ComponentPad*%
%ADD24C,1.600000*%
%TD*%
%TA.AperFunction,ComponentPad*%
%ADD25C,1.524000*%
%TD*%
%TA.AperFunction,Conductor*%
%ADD26C,8.000000*%
%TD*%
%TA.AperFunction,Conductor*%
%ADD27C,2.000000*%
%TD*%
G04 APERTURE END LIST*
D10*
%TO.P,REF\u002A\u002A,1*%
%TO.N,N/C*%
X204000000Y-72400000D03*
X204000000Y-47000000D03*
%TD*%
D11*
%TO.P,R1,1*%
%TO.N,espPwm*%
X186808500Y-122808500D03*
D12*
%TO.P,R1,2*%
%TO.N,Net-(R1-Pad2)*%
X179188500Y-122808500D03*
%TD*%
D13*
%TO.P,U1,1,NC*%
%TO.N,unconnected-(U1-Pad1)*%
X182008500Y-112608500D03*
D14*
%TO.P,U1,2,A*%
%TO.N,Net-(R1-Pad2)*%
X184548500Y-112608500D03*
%TO.P,U1,3,C*%
%TO.N,GND*%
X187088500Y-112608500D03*
%TO.P,U1,4,NC*%
%TO.N,unconnected-(U1-Pad4)*%
X189628500Y-112608500D03*
%TO.P,U1,5,VEE*%
%TO.N,GNDPWR*%
X189628500Y-104988500D03*
%TO.P,U1,6,VO*%
%TO.N,Net-(R2-Pad1)*%
X187088500Y-104988500D03*
%TO.P,U1,7,VO*%
X184548500Y-104988500D03*
%TO.P,U1,8,VCC*%
%TO.N,+12V*%
X182008500Y-104988500D03*
%TD*%
D15*
%TO.P,J2,1,Pin_1*%
%TO.N,+5V*%
X169558500Y-120058500D03*
D16*
%TO.P,J2,2,Pin_2*%
X169558500Y-122598500D03*
%TO.P,J2,3,Pin_3*%
X169558500Y-125138500D03*
%TO.P,J2,4,Pin_4*%
X169558500Y-127678500D03*
%TO.P,J2,5,Pin_5*%
X169558500Y-130218500D03*
%TO.P,J2,6,Pin_6*%
X169558500Y-132758500D03*
%TD*%
D17*
%TO.P,F1,1*%
%TO.N,Net-(C1-Pad1)*%
X152250000Y-64000000D03*
%TO.P,F1,2*%
%TO.N,VCC*%
X174750000Y-64000000D03*
%TD*%
D18*
%TO.P,D1,1,K*%
%TO.N,Net-(D1-Pad1)*%
X200500000Y-54000000D03*
D19*
%TO.P,D1,2,A*%
%TO.N,VCC*%
X200500000Y-64900000D03*
%TD*%
D15*
%TO.P,J3,1,Pin_1*%
%TO.N,espPwm*%
X190808500Y-122348500D03*
D16*
%TO.P,J3,2,Pin_2*%
%TO.N,GND*%
X190808500Y-119808500D03*
%TD*%
D15*
%TO.P,J1,1,Pin_1*%
%TO.N,GND*%
X174558500Y-120058500D03*
D16*
%TO.P,J1,2,Pin_2*%
X174558500Y-122598500D03*
%TO.P,J1,3,Pin_3*%
X174558500Y-125138500D03*
%TO.P,J1,4,Pin_4*%
X174558500Y-127678500D03*
%TO.P,J1,5,Pin_5*%
X174558500Y-130218500D03*
%TO.P,J1,6,Pin_6*%
X174558500Y-132758500D03*
%TD*%
D11*
%TO.P,R2,1*%
%TO.N,Net-(R2-Pad1)*%
X185000000Y-100310000D03*
D12*
%TO.P,R2,2*%
%TO.N,Net-(Q1-Pad1)*%
X185000000Y-92690000D03*
%TD*%
D20*
%TO.P,C1,1*%
%TO.N,Net-(C1-Pad1)*%
X148069501Y-97750000D03*
D21*
%TO.P,C1,2*%
%TO.N,GNDPWR*%
X158069501Y-97750000D03*
%TD*%
D22*
%TO.P,J5,1,Pin_1*%
%TO.N,VCC*%
X187500000Y-47500000D03*
D23*
%TO.P,J5,2,Pin_2*%
%TO.N,Net-(D1-Pad1)*%
X180000000Y-47500000D03*
%TD*%
D22*
%TO.P,J4,1,Pin_1*%
%TO.N,Net-(C1-Pad1)*%
X147000000Y-126750000D03*
D23*
%TO.P,J4,2,Pin_2*%
%TO.N,GNDPWR*%
X154500000Y-126750000D03*
%TD*%
D10*
%TO.P,REF\u002A\u002A,1*%
%TO.N,N/C*%
X204000000Y-85800000D03*
X204000000Y-111200000D03*
%TD*%
D24*
%TO.P,C2,1*%
%TO.N,Net-(C1-Pad1)*%
X154250000Y-75250000D03*
%TO.P,C2,2*%
%TO.N,GNDPWR*%
X159250000Y-75250000D03*
%TD*%
D22*
%TO.P,J6,1,Pin_1*%
%TO.N,Net-(D1-Pad1)*%
X169750000Y-47500000D03*
D23*
%TO.P,J6,2,Pin_2*%
%TO.N,Net-(J6-Pad2)*%
X162250000Y-47500000D03*
%TD*%
D15*
%TO.P,PS1,1,-VIN*%
%TO.N,GND*%
X176441500Y-111441500D03*
D25*
%TO.P,PS1,2,+VIN*%
%TO.N,+5V*%
X176441500Y-108901500D03*
%TO.P,PS1,3,-VOUT*%
%TO.N,GNDPWR*%
X176441500Y-106361500D03*
%TO.P,PS1,4,+VOUT*%
%TO.N,+12V*%
X176441500Y-103821500D03*
%TD*%
D18*
%TO.P,Q1,1,G*%
%TO.N,Net-(Q1-Pad1)*%
X200180000Y-93050000D03*
D19*
%TO.P,Q1,2,C*%
%TO.N,Net-(J6-Pad2)*%
X200180000Y-98500000D03*
%TO.P,Q1,3,E*%
%TO.N,GNDPWR*%
X200180000Y-103950000D03*
%TD*%
D26*
%TO.N,Net-(D1-Pad1)*%
X180000000Y-50000000D02*
X180000000Y-47500000D01*
X200500000Y-54000000D02*
X184000000Y-54000000D01*
X184000000Y-54000000D02*
X180000000Y-50000000D01*
D27*
%TO.N,GND*%
X187088500Y-116088500D02*
X190808500Y-119808500D01*
X187088500Y-112608500D02*
X187088500Y-116088500D01*
%TO.N,+5V*%
X174882478Y-108901500D02*
X169558500Y-114225478D01*
X176441500Y-108901500D02*
X174882478Y-108901500D01*
X169558500Y-114225478D02*
X169558500Y-132758500D01*
%TO.N,espPwm*%
X186808500Y-122808500D02*
X190348500Y-122808500D01*
X190348500Y-122808500D02*
X190808500Y-122348500D01*
%TO.N,+12V*%
X176441500Y-103821500D02*
X180841500Y-103821500D01*
X180841500Y-103821500D02*
X182008500Y-104988500D01*
%TO.N,Net-(Q1-Pad1)*%
X185000000Y-92690000D02*
X199820000Y-92690000D01*
X199820000Y-92690000D02*
X200180000Y-93050000D01*
%TO.N,Net-(R1-Pad2)*%
X179188500Y-122808500D02*
X184548500Y-117448500D01*
X184548500Y-117448500D02*
X184548500Y-112608500D01*
%TO.N,Net-(R2-Pad1)*%
X187088500Y-102448500D02*
X187088500Y-102398500D01*
X187088500Y-102398500D02*
X185000000Y-100310000D01*
X184548500Y-104988500D02*
X187088500Y-102448500D01*
X187088500Y-104988500D02*
X187088500Y-102398500D01*
%TD*%
%TA.AperFunction,Conductor*%
%TO.N,GNDPWR*%
G36*
X208149852Y-36020002D02*
G01*
X208196345Y-36073658D01*
X208206449Y-36143932D01*
X208202728Y-36161153D01*
X208121503Y-36440730D01*
X208043519Y-36841924D01*
X208002217Y-37248535D01*
X207999647Y-37493891D01*
X207997937Y-37657215D01*
X207998166Y-37660060D01*
X207998166Y-37660063D01*
X208025690Y-38002146D01*
X208030715Y-38064602D01*
X208100280Y-38467341D01*
X208206060Y-38862118D01*
X208347184Y-39245683D01*
X208522492Y-39614879D01*
X208730538Y-39966667D01*
X208969612Y-40298151D01*
X209237746Y-40606603D01*
X209239803Y-40608576D01*
X209239811Y-40608584D01*
X209441845Y-40802328D01*
X209532731Y-40889484D01*
X209534949Y-40891254D01*
X209534954Y-40891259D01*
X209803092Y-41105310D01*
X209852141Y-41144465D01*
X210193346Y-41369449D01*
X210553537Y-41562581D01*
X210929750Y-41722274D01*
X210932459Y-41723144D01*
X210932465Y-41723146D01*
X211316162Y-41846338D01*
X211316167Y-41846339D01*
X211318888Y-41847213D01*
X211717748Y-41936369D01*
X212123047Y-41989008D01*
X212531449Y-42004697D01*
X212534311Y-42004547D01*
X212534312Y-42004547D01*
X212936736Y-41983457D01*
X212936743Y-41983456D01*
X212939592Y-41983307D01*
X212942415Y-41982900D01*
X212942417Y-41982900D01*
X213341295Y-41925421D01*
X213341302Y-41925420D01*
X213344117Y-41925014D01*
X213741693Y-41830298D01*
X213833812Y-41799297D01*
X213904754Y-41796527D01*
X213965933Y-41832551D01*
X213997923Y-41895932D01*
X214000000Y-41918716D01*
X214000000Y-130577860D01*
X213979998Y-130645981D01*
X213926342Y-130692474D01*
X213856068Y-130702578D01*
X213836742Y-130698225D01*
X213834792Y-130697621D01*
X213832108Y-130696655D01*
X213829351Y-130695937D01*
X213829345Y-130695935D01*
X213439371Y-130594355D01*
X213439365Y-130594354D01*
X213436602Y-130593634D01*
X213033387Y-130526882D01*
X213030544Y-130526673D01*
X213030542Y-130526673D01*
X212628628Y-130497158D01*
X212625782Y-130496949D01*
X212456681Y-130499901D01*
X212219992Y-130504032D01*
X212219987Y-130504032D01*
X212217141Y-130504082D01*
X212214308Y-130504390D01*
X212214304Y-130504390D01*
X211888436Y-130539791D01*
X211810828Y-130548222D01*
X211410189Y-130629005D01*
X211407456Y-130629820D01*
X211407451Y-130629821D01*
X211353244Y-130645981D01*
X211018519Y-130745767D01*
X211015858Y-130746831D01*
X211015856Y-130746832D01*
X210737361Y-130858222D01*
X210639044Y-130897546D01*
X210636497Y-130898844D01*
X210277430Y-131081797D01*
X210277425Y-131081800D01*
X210274887Y-131083093D01*
X209929046Y-131300881D01*
X209604366Y-131549118D01*
X209303521Y-131825759D01*
X209028987Y-132128528D01*
X208783023Y-132454933D01*
X208567655Y-132802286D01*
X208384654Y-133167730D01*
X208235528Y-133548255D01*
X208234730Y-133551002D01*
X208168216Y-133779945D01*
X208121503Y-133940730D01*
X208043519Y-134341924D01*
X208002217Y-134748535D01*
X207999647Y-134993891D01*
X207997937Y-135157215D01*
X207998166Y-135160060D01*
X207998166Y-135160063D01*
X208029063Y-135544068D01*
X208030715Y-135564602D01*
X208100280Y-135967341D01*
X208206060Y-136362118D01*
X208347184Y-136745683D01*
X208348406Y-136748256D01*
X208348407Y-136748259D01*
X208382451Y-136819954D01*
X208393602Y-136890069D01*
X208365076Y-136955083D01*
X208305929Y-136994353D01*
X208268631Y-137000000D01*
X139229989Y-137000000D01*
X139161868Y-136979998D01*
X139115375Y-136926342D01*
X139105271Y-136856068D01*
X139115424Y-136821553D01*
X139176784Y-136687530D01*
X139290437Y-136364798D01*
X139311589Y-136304733D01*
X139311590Y-136304729D01*
X139312540Y-136302032D01*
X139412797Y-135905817D01*
X139476733Y-135502146D01*
X139492536Y-135264219D01*
X139503703Y-135096092D01*
X139503703Y-135096084D01*
X139503819Y-135094342D01*
X139504807Y-135000000D01*
X139486267Y-134591718D01*
X139479674Y-134543583D01*
X139431187Y-134189623D01*
X139430800Y-134186796D01*
X139409582Y-134094889D01*
X139339505Y-133791357D01*
X139339504Y-133791355D01*
X139338861Y-133788568D01*
X139211209Y-133400312D01*
X139210078Y-133397697D01*
X139210074Y-133397688D01*
X139081397Y-133100333D01*
X139048894Y-133025223D01*
X138853251Y-132666388D01*
X138711694Y-132454933D01*
X138627483Y-132329139D01*
X138627475Y-132329128D01*
X138625891Y-132326762D01*
X138368686Y-132009141D01*
X138083753Y-131716137D01*
X137773436Y-131450164D01*
X137640565Y-131355737D01*
X137442627Y-131215070D01*
X137442625Y-131215069D01*
X137440291Y-131213410D01*
X137437822Y-131211973D01*
X137089515Y-131009253D01*
X137089508Y-131009249D01*
X137087059Y-131007824D01*
X137002497Y-130968392D01*
X136719244Y-130836309D01*
X136719234Y-130836305D01*
X136716648Y-130835099D01*
X136610064Y-130796726D01*
X136334798Y-130697623D01*
X136334789Y-130697620D01*
X136332108Y-130696655D01*
X136070221Y-130628439D01*
X135939371Y-130594355D01*
X135939365Y-130594354D01*
X135936602Y-130593634D01*
X135533387Y-130526882D01*
X135530544Y-130526673D01*
X135530542Y-130526673D01*
X135128628Y-130497158D01*
X135125782Y-130496949D01*
X134956681Y-130499901D01*
X134719992Y-130504032D01*
X134719987Y-130504032D01*
X134717141Y-130504082D01*
X134714308Y-130504390D01*
X134714304Y-130504390D01*
X134388436Y-130539791D01*
X134310828Y-130548222D01*
X133910189Y-130629005D01*
X133907456Y-130629820D01*
X133907451Y-130629821D01*
X133853244Y-130645981D01*
X133518519Y-130745767D01*
X133172791Y-130884048D01*
X133102115Y-130890774D01*
X133039021Y-130858222D01*
X133003542Y-130796726D01*
X133000000Y-130767059D01*
X133000000Y-128180050D01*
X143699500Y-128180050D01*
X143700573Y-128207358D01*
X143742692Y-128487510D01*
X143823864Y-128758933D01*
X143825727Y-128762973D01*
X143825728Y-128762977D01*
X143911449Y-128948919D01*
X143942471Y-129016210D01*
X144096144Y-129254209D01*
X144281820Y-129468180D01*
X144495791Y-129653856D01*
X144733790Y-129807529D01*
X144737842Y-129809397D01*
X144987023Y-129924272D01*
X144987027Y-129924273D01*
X144991067Y-129926136D01*
X144995335Y-129927412D01*
X144995334Y-129927412D01*
X145258216Y-130006030D01*
X145258218Y-130006031D01*
X145262490Y-130007308D01*
X145266894Y-130007970D01*
X145266898Y-130007971D01*
X145539221Y-130048913D01*
X145539227Y-130048914D01*
X145542642Y-130049427D01*
X145546099Y-130049563D01*
X145546101Y-130049563D01*
X145552163Y-130049801D01*
X145569950Y-130050500D01*
X148430050Y-130050500D01*
X148447837Y-130049801D01*
X148453899Y-130049563D01*
X148453901Y-130049563D01*
X148457358Y-130049427D01*
X148460773Y-130048914D01*
X148460779Y-130048913D01*
X148733102Y-130007971D01*
X148733106Y-130007970D01*
X148737510Y-130007308D01*
X148741782Y-130006031D01*
X148741784Y-130006030D01*
X149004666Y-129927412D01*
X149004665Y-129927412D01*
X149008933Y-129926136D01*
X149012973Y-129924273D01*
X149012977Y-129924272D01*
X149262158Y-129809397D01*
X149266210Y-129807529D01*
X149504209Y-129653856D01*
X149718180Y-129468180D01*
X149903856Y-129254209D01*
X150057529Y-129016210D01*
X150088551Y-128948919D01*
X150174272Y-128762977D01*
X150174273Y-128762973D01*
X150176136Y-128758933D01*
X150257308Y-128487510D01*
X150299427Y-128207358D01*
X150300500Y-128180050D01*
X150300500Y-125319950D01*
X150299427Y-125292642D01*
X150297006Y-125276534D01*
X150257971Y-125016898D01*
X150257970Y-125016894D01*
X150257308Y-125012490D01*
X150240982Y-124957897D01*
X150177412Y-124745334D01*
X150176136Y-124741067D01*
X150118793Y-124616680D01*
X150059397Y-124487842D01*
X150057529Y-124483790D01*
X149903856Y-124245791D01*
X149718180Y-124031820D01*
X149504209Y-123846144D01*
X149266210Y-123692471D01*
X149255883Y-123687710D01*
X149012977Y-123575728D01*
X149012973Y-123575727D01*
X149008933Y-123573864D01*
X148917249Y-123546445D01*
X148741784Y-123493970D01*
X148741782Y-123493969D01*
X148737510Y-123492692D01*
X148733106Y-123492030D01*
X148733102Y-123492029D01*
X148460779Y-123451087D01*
X148460773Y-123451086D01*
X148457358Y-123450573D01*
X148453901Y-123450437D01*
X148453899Y-123450437D01*
X148447837Y-123450199D01*
X148430050Y-123449500D01*
X145569950Y-123449500D01*
X145552163Y-123450199D01*
X145546101Y-123450437D01*
X145546099Y-123450437D01*
X145542642Y-123450573D01*
X145539227Y-123451086D01*
X145539221Y-123451087D01*
X145266898Y-123492029D01*
X145266894Y-123492030D01*
X145262490Y-123492692D01*
X145258218Y-123493969D01*
X145258216Y-123493970D01*
X145082751Y-123546445D01*
X144991067Y-123573864D01*
X144987027Y-123575727D01*
X144987023Y-123575728D01*
X144744117Y-123687710D01*
X144733790Y-123692471D01*
X144495791Y-123846144D01*
X144281820Y-124031820D01*
X144096144Y-124245791D01*
X143942471Y-124483790D01*
X143940603Y-124487842D01*
X143881208Y-124616680D01*
X143823864Y-124741067D01*
X143822588Y-124745334D01*
X143759019Y-124957897D01*
X143742692Y-125012490D01*
X143742030Y-125016894D01*
X143742029Y-125016898D01*
X143702995Y-125276534D01*
X143700573Y-125292642D01*
X143699500Y-125319950D01*
X143699500Y-128180050D01*
X133000000Y-128180050D01*
X133000000Y-114288423D01*
X166553574Y-114288423D01*
X166553859Y-114292044D01*
X166553859Y-114292046D01*
X166557612Y-114339730D01*
X166558000Y-114349616D01*
X166558000Y-132846689D01*
X166558105Y-132848508D01*
X166558105Y-132848512D01*
X166568446Y-133027847D01*
X166572834Y-133103953D01*
X166573457Y-133107522D01*
X166573457Y-133107523D01*
X166625032Y-133403034D01*
X166632326Y-133444828D01*
X166730603Y-133776606D01*
X166732026Y-133779942D01*
X166732027Y-133779945D01*
X166800608Y-133940730D01*
X166866362Y-134094889D01*
X167037804Y-134395459D01*
X167039943Y-134398371D01*
X167039945Y-134398374D01*
X167113806Y-134498922D01*
X167242657Y-134674332D01*
X167245123Y-134676985D01*
X167245124Y-134676987D01*
X167309375Y-134746129D01*
X167478205Y-134927812D01*
X167480959Y-134930164D01*
X167480962Y-134930167D01*
X167650186Y-135074697D01*
X167741326Y-135152538D01*
X168028533Y-135345533D01*
X168031750Y-135347194D01*
X168031751Y-135347194D01*
X168203450Y-135435815D01*
X168336018Y-135504239D01*
X168659707Y-135626550D01*
X168995310Y-135710848D01*
X169121348Y-135727441D01*
X169334772Y-135755539D01*
X169334780Y-135755540D01*
X169338376Y-135756013D01*
X169489509Y-135758388D01*
X169680720Y-135761392D01*
X169680724Y-135761392D01*
X169684361Y-135761449D01*
X169687976Y-135761088D01*
X169687980Y-135761088D01*
X169855854Y-135744331D01*
X170028677Y-135727081D01*
X170032214Y-135726310D01*
X170032219Y-135726309D01*
X170363217Y-135654140D01*
X170363222Y-135654139D01*
X170366761Y-135653367D01*
X170694133Y-135541283D01*
X171006452Y-135392314D01*
X171299579Y-135208436D01*
X171302413Y-135206166D01*
X171302418Y-135206162D01*
X171566794Y-134994356D01*
X171569629Y-134992085D01*
X171813023Y-134746129D01*
X171871607Y-134671414D01*
X172024294Y-134476685D01*
X172024295Y-134476683D01*
X172026534Y-134473828D01*
X172028425Y-134470742D01*
X172028430Y-134470735D01*
X172043912Y-134445469D01*
X172096559Y-134397837D01*
X172166600Y-134386229D01*
X172231798Y-134414331D01*
X172255186Y-134439935D01*
X172300289Y-134505561D01*
X172300295Y-134505568D01*
X172302346Y-134508553D01*
X172304734Y-134511290D01*
X172509207Y-134745681D01*
X172518444Y-134756270D01*
X172761582Y-134977509D01*
X172764540Y-134979634D01*
X172764543Y-134979637D01*
X172784380Y-134993891D01*
X173028537Y-135169336D01*
X173031716Y-135171106D01*
X173031717Y-135171106D01*
X173157185Y-135240940D01*
X173315771Y-135329208D01*
X173619477Y-135455007D01*
X173622971Y-135456002D01*
X173622973Y-135456003D01*
X173932128Y-135544068D01*
X173932133Y-135544069D01*
X173935629Y-135545065D01*
X174158675Y-135581590D01*
X174256457Y-135597603D01*
X174256461Y-135597603D01*
X174260037Y-135598189D01*
X174263663Y-135598360D01*
X174584773Y-135613503D01*
X174584774Y-135613503D01*
X174588400Y-135613674D01*
X174602219Y-135612732D01*
X174912737Y-135591564D01*
X174912745Y-135591563D01*
X174916368Y-135591316D01*
X174919944Y-135590653D01*
X174919946Y-135590653D01*
X175236027Y-135532071D01*
X175236031Y-135532070D01*
X175239592Y-135531410D01*
X175553789Y-135434750D01*
X175854793Y-135302619D01*
X176138616Y-135136766D01*
X176318409Y-135001773D01*
X176398592Y-134941570D01*
X176398596Y-134941567D01*
X176401495Y-134939390D01*
X176411215Y-134930167D01*
X176637313Y-134715609D01*
X176637317Y-134715605D01*
X176639947Y-134713109D01*
X176674810Y-134671414D01*
X176848488Y-134463696D01*
X176850810Y-134460919D01*
X176864594Y-134439935D01*
X177029302Y-134189191D01*
X177029307Y-134189182D01*
X177031289Y-134186165D01*
X177105141Y-134039327D01*
X177177366Y-133895725D01*
X177177369Y-133895717D01*
X177178993Y-133892489D01*
X177291964Y-133583781D01*
X177292809Y-133580259D01*
X177292812Y-133580251D01*
X177367857Y-133267665D01*
X177367858Y-133267661D01*
X177368704Y-133264136D01*
X177380371Y-133167730D01*
X177407861Y-132940567D01*
X177407862Y-132940560D01*
X177408197Y-132937788D01*
X177411003Y-132848512D01*
X177413743Y-132761297D01*
X177413831Y-132758500D01*
X177396468Y-132457372D01*
X177395117Y-132433936D01*
X177395116Y-132433931D01*
X177394908Y-132430316D01*
X177342637Y-132130817D01*
X177339014Y-132110056D01*
X177339012Y-132110049D01*
X177338390Y-132106483D01*
X177245026Y-131791291D01*
X177136395Y-131536608D01*
X177128068Y-131466102D01*
X177139728Y-131430560D01*
X177177360Y-131355737D01*
X177177364Y-131355729D01*
X177178993Y-131352489D01*
X177291964Y-131043781D01*
X177292809Y-131040259D01*
X177292812Y-131040251D01*
X177367857Y-130727665D01*
X177367858Y-130727661D01*
X177368704Y-130724136D01*
X177371840Y-130698225D01*
X177407861Y-130400567D01*
X177407862Y-130400560D01*
X177408197Y-130397788D01*
X177413831Y-130218500D01*
X177404144Y-130050500D01*
X177395117Y-129893936D01*
X177395116Y-129893931D01*
X177394908Y-129890316D01*
X177353639Y-129653856D01*
X177339014Y-129570056D01*
X177339012Y-129570049D01*
X177338390Y-129566483D01*
X177245026Y-129251291D01*
X177136395Y-128996608D01*
X177128068Y-128926102D01*
X177139728Y-128890560D01*
X177177360Y-128815737D01*
X177177364Y-128815729D01*
X177178993Y-128812489D01*
X177291964Y-128503781D01*
X177292809Y-128500259D01*
X177292812Y-128500251D01*
X177367857Y-128187665D01*
X177367858Y-128187661D01*
X177368704Y-128184136D01*
X177369141Y-128180526D01*
X177407861Y-127860567D01*
X177407862Y-127860560D01*
X177408197Y-127857788D01*
X177413831Y-127678500D01*
X177394908Y-127350316D01*
X177338390Y-127026483D01*
X177245026Y-126711291D01*
X177136395Y-126456608D01*
X177128068Y-126386102D01*
X177139728Y-126350560D01*
X177177360Y-126275737D01*
X177177364Y-126275729D01*
X177178993Y-126272489D01*
X177291964Y-125963781D01*
X177292809Y-125960259D01*
X177292812Y-125960251D01*
X177367857Y-125647665D01*
X177367858Y-125647661D01*
X177368704Y-125644136D01*
X177373542Y-125604162D01*
X177393778Y-125436937D01*
X177421819Y-125371712D01*
X177480671Y-125332002D01*
X177551650Y-125330414D01*
X177586931Y-125346042D01*
X177713047Y-125427007D01*
X178023789Y-125579239D01*
X178181168Y-125634969D01*
X178346554Y-125693535D01*
X178346559Y-125693536D01*
X178349969Y-125694744D01*
X178580426Y-125747526D01*
X178663637Y-125766584D01*
X178687262Y-125771995D01*
X179031200Y-125809966D01*
X179377223Y-125808154D01*
X179380824Y-125807718D01*
X179380828Y-125807718D01*
X179717126Y-125767022D01*
X179717129Y-125767021D01*
X179720744Y-125766584D01*
X179919229Y-125718931D01*
X180053679Y-125686652D01*
X180053683Y-125686651D01*
X180057210Y-125685804D01*
X180382161Y-125566890D01*
X180385389Y-125565266D01*
X180385397Y-125565263D01*
X180599992Y-125457332D01*
X180691292Y-125411413D01*
X180694309Y-125409431D01*
X180694318Y-125409426D01*
X180977476Y-125223425D01*
X180980504Y-125221436D01*
X181094067Y-125126483D01*
X181212717Y-125027277D01*
X181212721Y-125027274D01*
X181214879Y-125025469D01*
X183593559Y-122646789D01*
X183655871Y-122612763D01*
X183726686Y-122617828D01*
X183783522Y-122660375D01*
X183808333Y-122726895D01*
X183808638Y-122737863D01*
X183805551Y-122934361D01*
X183839919Y-123278677D01*
X183840690Y-123282214D01*
X183840691Y-123282219D01*
X183904002Y-123572588D01*
X183913633Y-123616761D01*
X184025717Y-123944133D01*
X184174686Y-124256452D01*
X184358564Y-124549579D01*
X184360834Y-124552413D01*
X184360838Y-124552418D01*
X184496246Y-124721434D01*
X184574915Y-124819629D01*
X184820871Y-125063023D01*
X184823729Y-125065264D01*
X185035246Y-125231114D01*
X185093172Y-125276534D01*
X185388209Y-125457332D01*
X185391499Y-125458859D01*
X185391508Y-125458864D01*
X185626913Y-125568135D01*
X185702070Y-125603022D01*
X185705517Y-125604162D01*
X186027152Y-125710533D01*
X186027157Y-125710534D01*
X186030597Y-125711672D01*
X186034152Y-125712408D01*
X186034155Y-125712409D01*
X186365885Y-125781107D01*
X186365888Y-125781107D01*
X186369435Y-125781842D01*
X186500542Y-125793543D01*
X186670940Y-125808751D01*
X186670946Y-125808751D01*
X186673733Y-125809000D01*
X190175517Y-125809000D01*
X190183962Y-125809465D01*
X190183967Y-125809378D01*
X190187596Y-125809568D01*
X190191200Y-125809966D01*
X190375287Y-125809002D01*
X190375947Y-125809000D01*
X190436689Y-125809000D01*
X190438469Y-125808897D01*
X190438521Y-125808896D01*
X190439523Y-125808838D01*
X190446091Y-125808632D01*
X190527138Y-125808207D01*
X190537223Y-125808154D01*
X190611452Y-125799171D01*
X190619307Y-125798470D01*
X190662398Y-125795986D01*
X190690333Y-125794375D01*
X190690338Y-125794374D01*
X190693953Y-125794166D01*
X190783742Y-125778495D01*
X190790259Y-125777534D01*
X190836029Y-125771995D01*
X190877126Y-125767022D01*
X190877129Y-125767021D01*
X190880744Y-125766584D01*
X190953447Y-125749129D01*
X190961179Y-125747527D01*
X190991690Y-125742202D01*
X191031260Y-125735297D01*
X191031265Y-125735296D01*
X191034828Y-125734674D01*
X191038298Y-125733646D01*
X191038303Y-125733645D01*
X191080940Y-125721015D01*
X191122239Y-125708782D01*
X191128560Y-125707087D01*
X191217210Y-125685804D01*
X191287431Y-125660107D01*
X191294890Y-125657640D01*
X191366606Y-125636397D01*
X191369948Y-125634972D01*
X191369955Y-125634969D01*
X191450441Y-125600638D01*
X191456576Y-125598209D01*
X191505108Y-125580449D01*
X191542161Y-125566890D01*
X191545406Y-125565258D01*
X191545415Y-125565254D01*
X191608941Y-125533303D01*
X191616111Y-125529974D01*
X191684889Y-125500638D01*
X191734144Y-125472543D01*
X191764056Y-125455482D01*
X191769868Y-125452365D01*
X191848063Y-125413037D01*
X191851292Y-125411413D01*
X191854317Y-125409426D01*
X191854326Y-125409421D01*
X191913765Y-125370377D01*
X191920513Y-125366242D01*
X191982306Y-125330995D01*
X191982313Y-125330990D01*
X191985459Y-125329196D01*
X191999736Y-125318709D01*
X192058920Y-125275233D01*
X192064337Y-125271468D01*
X192137478Y-125223424D01*
X192137482Y-125223421D01*
X192140504Y-125221436D01*
X192143287Y-125219109D01*
X192143290Y-125219107D01*
X192197860Y-125173480D01*
X192204080Y-125168602D01*
X192264332Y-125124343D01*
X192272758Y-125116513D01*
X192322429Y-125088095D01*
X192322914Y-125087950D01*
X192367433Y-125074636D01*
X192371473Y-125072773D01*
X192371477Y-125072772D01*
X192620658Y-124957897D01*
X192624710Y-124956029D01*
X192862709Y-124802356D01*
X193076680Y-124616680D01*
X193262356Y-124402709D01*
X193416029Y-124164710D01*
X193420790Y-124154383D01*
X193532772Y-123911477D01*
X193532773Y-123911473D01*
X193534636Y-123907433D01*
X193598923Y-123692471D01*
X193614530Y-123640284D01*
X193614531Y-123640282D01*
X193615808Y-123636010D01*
X193624871Y-123575728D01*
X193657413Y-123359279D01*
X193657414Y-123359273D01*
X193657927Y-123355858D01*
X193659000Y-123328550D01*
X193659000Y-123317133D01*
X193663466Y-123283885D01*
X193747445Y-122976909D01*
X193748406Y-122973397D01*
X193754380Y-122934361D01*
X193796305Y-122660375D01*
X193800746Y-122631351D01*
X193813426Y-122285556D01*
X193786276Y-121940596D01*
X193719658Y-121601042D01*
X193664964Y-121429660D01*
X193659000Y-121391352D01*
X193659000Y-121368450D01*
X193657927Y-121341142D01*
X193615808Y-121060990D01*
X193596615Y-120996812D01*
X193596260Y-120925816D01*
X193598559Y-120918650D01*
X193693534Y-120650449D01*
X193693536Y-120650443D01*
X193694744Y-120647031D01*
X193695554Y-120643496D01*
X193771185Y-120313276D01*
X193771187Y-120313267D01*
X193771995Y-120309737D01*
X193809966Y-119965800D01*
X193808154Y-119619777D01*
X193766583Y-119276256D01*
X193713368Y-119054601D01*
X193686652Y-118943320D01*
X193686649Y-118943312D01*
X193685804Y-118939790D01*
X193684559Y-118936388D01*
X193684556Y-118936378D01*
X193568134Y-118618240D01*
X193568134Y-118618239D01*
X193566889Y-118614838D01*
X193565265Y-118611610D01*
X193565262Y-118611602D01*
X193489151Y-118460273D01*
X193411413Y-118305708D01*
X193409431Y-118302691D01*
X193409426Y-118302682D01*
X193223424Y-118019521D01*
X193223421Y-118019518D01*
X193221436Y-118016495D01*
X193025468Y-117782120D01*
X190649705Y-115406357D01*
X190615679Y-115344045D01*
X190620744Y-115273230D01*
X190663291Y-115216394D01*
X190688154Y-115201889D01*
X190898732Y-115109451D01*
X190898736Y-115109449D01*
X190902055Y-115107992D01*
X191070716Y-115009435D01*
X191177759Y-114946884D01*
X191177761Y-114946883D01*
X191180899Y-114945049D01*
X191183808Y-114942865D01*
X191436261Y-114753319D01*
X191436265Y-114753316D01*
X191439168Y-114751136D01*
X191673436Y-114528823D01*
X191880601Y-114281057D01*
X191902624Y-114247530D01*
X192055927Y-114014149D01*
X192055932Y-114014140D01*
X192057914Y-114011123D01*
X192151163Y-113825718D01*
X192201400Y-113725834D01*
X192201403Y-113725826D01*
X192203027Y-113722598D01*
X192214712Y-113690668D01*
X192312769Y-113422716D01*
X192312770Y-113422712D01*
X192314017Y-113419305D01*
X192314862Y-113415783D01*
X192314865Y-113415775D01*
X192388564Y-113108795D01*
X192388565Y-113108791D01*
X192389411Y-113105266D01*
X192397747Y-113036381D01*
X192427874Y-112787422D01*
X192427874Y-112787416D01*
X192428210Y-112784643D01*
X192428535Y-112774320D01*
X192433658Y-112611296D01*
X192433746Y-112608500D01*
X192428075Y-112510150D01*
X192415364Y-112289693D01*
X192415363Y-112289688D01*
X192415155Y-112286073D01*
X192395022Y-112170719D01*
X192360252Y-111971493D01*
X192360250Y-111971486D01*
X192359628Y-111967920D01*
X192356436Y-111957142D01*
X192268934Y-111661742D01*
X192267902Y-111658257D01*
X192141192Y-111361189D01*
X191981177Y-111080654D01*
X191972594Y-111068970D01*
X198996175Y-111068970D01*
X199004337Y-111514300D01*
X199004636Y-111517075D01*
X199046467Y-111905287D01*
X199052054Y-111957142D01*
X199052599Y-111959883D01*
X199052600Y-111959888D01*
X199085033Y-112122935D01*
X199138949Y-112393989D01*
X199264332Y-112821382D01*
X199265359Y-112823995D01*
X199265359Y-112823996D01*
X199412093Y-113197456D01*
X199427212Y-113235937D01*
X199440963Y-113263457D01*
X199609415Y-113600582D01*
X199626298Y-113634371D01*
X199860015Y-114013531D01*
X200126512Y-114370413D01*
X200128373Y-114372491D01*
X200128374Y-114372492D01*
X200391692Y-114666481D01*
X200423678Y-114702193D01*
X200425715Y-114704096D01*
X200425722Y-114704103D01*
X200645937Y-114909815D01*
X200749162Y-115006242D01*
X200751359Y-115007955D01*
X200751362Y-115007958D01*
X200760102Y-115014774D01*
X201100385Y-115280155D01*
X201474567Y-115521761D01*
X201477046Y-115523065D01*
X201477049Y-115523067D01*
X201866245Y-115727833D01*
X201866251Y-115727836D01*
X201868745Y-115729148D01*
X201871343Y-115730232D01*
X201871347Y-115730234D01*
X202277214Y-115899596D01*
X202277219Y-115899598D01*
X202279798Y-115900674D01*
X202282463Y-115901517D01*
X202282469Y-115901519D01*
X202513554Y-115974601D01*
X202704471Y-116034980D01*
X203139402Y-116131004D01*
X203142176Y-116131362D01*
X203142177Y-116131362D01*
X203578377Y-116187628D01*
X203578384Y-116187629D01*
X203581147Y-116187985D01*
X203583934Y-116188094D01*
X203583940Y-116188095D01*
X203841744Y-116198224D01*
X204026209Y-116205471D01*
X204029001Y-116205332D01*
X204029006Y-116205332D01*
X204468259Y-116183465D01*
X204468268Y-116183464D01*
X204471063Y-116183325D01*
X204473840Y-116182937D01*
X204473842Y-116182937D01*
X204550225Y-116172270D01*
X204912187Y-116121722D01*
X205346089Y-116021149D01*
X205568534Y-115948228D01*
X205766679Y-115883273D01*
X205766685Y-115883271D01*
X205769332Y-115882403D01*
X206084027Y-115747199D01*
X206175993Y-115707688D01*
X206175995Y-115707687D01*
X206178567Y-115706582D01*
X206570551Y-115495078D01*
X206942183Y-115249567D01*
X207290518Y-114971992D01*
X207612800Y-114664550D01*
X207614637Y-114662456D01*
X207614645Y-114662447D01*
X207904629Y-114331783D01*
X207906476Y-114329677D01*
X207933968Y-114292046D01*
X208111504Y-114049029D01*
X208169221Y-113970024D01*
X208170656Y-113967641D01*
X208170663Y-113967630D01*
X208397514Y-113590829D01*
X208397515Y-113590827D01*
X208398954Y-113588437D01*
X208409942Y-113565858D01*
X208592624Y-113190474D01*
X208592625Y-113190471D01*
X208593857Y-113187940D01*
X208752387Y-112771702D01*
X208764860Y-112727478D01*
X208868066Y-112361535D01*
X208873288Y-112343019D01*
X208873807Y-112340260D01*
X208955087Y-111908033D01*
X208955088Y-111908025D01*
X208955603Y-111905287D01*
X208979931Y-111654918D01*
X208998465Y-111464187D01*
X208998466Y-111464175D01*
X208998680Y-111461970D01*
X209005540Y-111200000D01*
X208985723Y-110755036D01*
X208926430Y-110313595D01*
X208899805Y-110195926D01*
X208851031Y-109980376D01*
X208828131Y-109879173D01*
X208823005Y-109863253D01*
X208740035Y-109605608D01*
X208691602Y-109455209D01*
X208640978Y-109335654D01*
X208519017Y-109047633D01*
X208519016Y-109047632D01*
X208517927Y-109045059D01*
X208456666Y-108930085D01*
X208309787Y-108654428D01*
X208308479Y-108651973D01*
X208064917Y-108279061D01*
X207981822Y-108173655D01*
X207790898Y-107931470D01*
X207790896Y-107931468D01*
X207789169Y-107929277D01*
X207499395Y-107622314D01*
X207485345Y-107607430D01*
X207485342Y-107607427D01*
X207483419Y-107605390D01*
X207481328Y-107603537D01*
X207481320Y-107603529D01*
X207152188Y-107311826D01*
X207152186Y-107311824D01*
X207150088Y-107309965D01*
X206791815Y-107045340D01*
X206411437Y-106813612D01*
X206408923Y-106812372D01*
X206408919Y-106812370D01*
X206014471Y-106617849D01*
X206014465Y-106617846D01*
X206011966Y-106616614D01*
X205596564Y-106455907D01*
X205335509Y-106380804D01*
X205171201Y-106333534D01*
X205171195Y-106333533D01*
X205168520Y-106332763D01*
X205165784Y-106332234D01*
X205165777Y-106332232D01*
X204970847Y-106294519D01*
X204731224Y-106248158D01*
X204288139Y-106202760D01*
X204285349Y-106202723D01*
X204285341Y-106202723D01*
X204006864Y-106199078D01*
X203842772Y-106196930D01*
X203839972Y-106197143D01*
X203839971Y-106197143D01*
X203655726Y-106211158D01*
X203398650Y-106230713D01*
X202959290Y-106303843D01*
X202868982Y-106327282D01*
X202530887Y-106415034D01*
X202530876Y-106415037D01*
X202528169Y-106415740D01*
X202525533Y-106416681D01*
X202525524Y-106416684D01*
X202189914Y-106536520D01*
X202108703Y-106565518D01*
X201704211Y-106751991D01*
X201317898Y-106973683D01*
X201315595Y-106975292D01*
X201315588Y-106975297D01*
X200962482Y-107222085D01*
X200952820Y-107228838D01*
X200950672Y-107230644D01*
X200681600Y-107456823D01*
X200611870Y-107515437D01*
X200609896Y-107517421D01*
X200609892Y-107517425D01*
X200524238Y-107603529D01*
X200297747Y-107831209D01*
X200012938Y-108173655D01*
X199759697Y-108540063D01*
X199540031Y-108927532D01*
X199538872Y-108930081D01*
X199538870Y-108930085D01*
X199453437Y-109117986D01*
X199355679Y-109332995D01*
X199354747Y-109335650D01*
X199354745Y-109335654D01*
X199212140Y-109741734D01*
X199208099Y-109753240D01*
X199098461Y-110184940D01*
X199098018Y-110187690D01*
X199098016Y-110187700D01*
X199030313Y-110608036D01*
X199027633Y-110624677D01*
X199027435Y-110627478D01*
X199027434Y-110627484D01*
X199012225Y-110842290D01*
X198996175Y-111068970D01*
X191972594Y-111068970D01*
X191789979Y-110820369D01*
X191570132Y-110583785D01*
X191324549Y-110374038D01*
X191056486Y-110193907D01*
X191033857Y-110182227D01*
X190772716Y-110047442D01*
X190769496Y-110045780D01*
X190467383Y-109931621D01*
X190463862Y-109930737D01*
X190463857Y-109930735D01*
X190269438Y-109881901D01*
X190154151Y-109852943D01*
X190134305Y-109850330D01*
X189837555Y-109811262D01*
X189837547Y-109811261D01*
X189833951Y-109810788D01*
X189699581Y-109808677D01*
X189514670Y-109805772D01*
X189514666Y-109805772D01*
X189511028Y-109805715D01*
X189507413Y-109806076D01*
X189507408Y-109806076D01*
X189295021Y-109827275D01*
X189189663Y-109837791D01*
X188874114Y-109906592D01*
X188870687Y-109907765D01*
X188870681Y-109907767D01*
X188637459Y-109987617D01*
X188566531Y-109990759D01*
X188538855Y-109980376D01*
X188314202Y-109864423D01*
X188310982Y-109862761D01*
X187987293Y-109740450D01*
X187651690Y-109656152D01*
X187507481Y-109637167D01*
X187312228Y-109611461D01*
X187312220Y-109611460D01*
X187308624Y-109610987D01*
X187157491Y-109608612D01*
X186966280Y-109605608D01*
X186966276Y-109605608D01*
X186962639Y-109605551D01*
X186959024Y-109605912D01*
X186959020Y-109605912D01*
X186791146Y-109622669D01*
X186618323Y-109639919D01*
X186614786Y-109640690D01*
X186614781Y-109640691D01*
X186283783Y-109712860D01*
X186283778Y-109712861D01*
X186280239Y-109713633D01*
X185952867Y-109825717D01*
X185895787Y-109852943D01*
X185877067Y-109861872D01*
X185806971Y-109873145D01*
X185772362Y-109863473D01*
X185770982Y-109862761D01*
X185767601Y-109861483D01*
X185767591Y-109861479D01*
X185450691Y-109741734D01*
X185447293Y-109740450D01*
X185111690Y-109656152D01*
X184967481Y-109637167D01*
X184772228Y-109611461D01*
X184772220Y-109611460D01*
X184768624Y-109610987D01*
X184617491Y-109608612D01*
X184426280Y-109605608D01*
X184426276Y-109605608D01*
X184422639Y-109605551D01*
X184419024Y-109605912D01*
X184419020Y-109605912D01*
X184251146Y-109622669D01*
X184078323Y-109639919D01*
X184074786Y-109640690D01*
X184074781Y-109640691D01*
X183743783Y-109712860D01*
X183743778Y-109712861D01*
X183740239Y-109713633D01*
X183412867Y-109825717D01*
X183409601Y-109827275D01*
X183409594Y-109827278D01*
X183359563Y-109851141D01*
X183289467Y-109862414D01*
X183269220Y-109858133D01*
X183264678Y-109856775D01*
X183246010Y-109851192D01*
X183134595Y-109834441D01*
X182969279Y-109809587D01*
X182969273Y-109809586D01*
X182965858Y-109809073D01*
X182962401Y-109808937D01*
X182962399Y-109808937D01*
X182956337Y-109808699D01*
X182938550Y-109808000D01*
X181078450Y-109808000D01*
X181060663Y-109808699D01*
X181054601Y-109808937D01*
X181054599Y-109808937D01*
X181051142Y-109809073D01*
X181047727Y-109809586D01*
X181047721Y-109809587D01*
X180775398Y-109850529D01*
X180775394Y-109850530D01*
X180770990Y-109851192D01*
X180766718Y-109852469D01*
X180766716Y-109852470D01*
X180686318Y-109876514D01*
X180499567Y-109932364D01*
X180495527Y-109934227D01*
X180495523Y-109934228D01*
X180372899Y-109990759D01*
X180242290Y-110050971D01*
X180004291Y-110204644D01*
X179790320Y-110390320D01*
X179604644Y-110604291D01*
X179545229Y-110696310D01*
X179523852Y-110729417D01*
X179470097Y-110775795D01*
X179399802Y-110785749D01*
X179335284Y-110756118D01*
X179297028Y-110696310D01*
X179292000Y-110661070D01*
X179292000Y-110461450D01*
X179290927Y-110434142D01*
X179281588Y-110372020D01*
X179249471Y-110158398D01*
X179249470Y-110158394D01*
X179248808Y-110153990D01*
X179228800Y-110087087D01*
X179228445Y-110016092D01*
X179231651Y-110006449D01*
X179308267Y-109803689D01*
X179308268Y-109803685D01*
X179309550Y-109800293D01*
X179393848Y-109464690D01*
X179439013Y-109121624D01*
X179444449Y-108775639D01*
X179410081Y-108431323D01*
X179409309Y-108427781D01*
X179337140Y-108096783D01*
X179337139Y-108096778D01*
X179336367Y-108093239D01*
X179224283Y-107765867D01*
X179075314Y-107453548D01*
X178891436Y-107160421D01*
X178784370Y-107026781D01*
X178757388Y-106961111D01*
X178770193Y-106891279D01*
X178818720Y-106839455D01*
X178882704Y-106822000D01*
X179546462Y-106822000D01*
X179614583Y-106842002D01*
X179635557Y-106858905D01*
X179949185Y-107172533D01*
X180141587Y-107343957D01*
X180144554Y-107346043D01*
X180144555Y-107346043D01*
X180385579Y-107515437D01*
X180424690Y-107542925D01*
X180427877Y-107544655D01*
X180427886Y-107544661D01*
X180725595Y-107706304D01*
X180725602Y-107706307D01*
X180728784Y-107708035D01*
X181049841Y-107837099D01*
X181053338Y-107838056D01*
X181053345Y-107838058D01*
X181218968Y-107883367D01*
X181383603Y-107928406D01*
X181387194Y-107928955D01*
X181387201Y-107928957D01*
X181616992Y-107964119D01*
X181725649Y-107980746D01*
X181853863Y-107985447D01*
X182067805Y-107993293D01*
X182067813Y-107993293D01*
X182071444Y-107993426D01*
X182075064Y-107993141D01*
X182075067Y-107993141D01*
X182412789Y-107966561D01*
X182412797Y-107966560D01*
X182416404Y-107966276D01*
X182755958Y-107899658D01*
X183085605Y-107794456D01*
X183088899Y-107792969D01*
X183088906Y-107792966D01*
X183224146Y-107731902D01*
X183294463Y-107722099D01*
X183331427Y-107733587D01*
X183383789Y-107759239D01*
X183581406Y-107829218D01*
X183706554Y-107873535D01*
X183706559Y-107873536D01*
X183709969Y-107874744D01*
X183939199Y-107927245D01*
X184023637Y-107946584D01*
X184047262Y-107951995D01*
X184391200Y-107989966D01*
X184737223Y-107988154D01*
X184740824Y-107987718D01*
X184740828Y-107987718D01*
X185077126Y-107947022D01*
X185077129Y-107947021D01*
X185080744Y-107946584D01*
X185340837Y-107884140D01*
X185413679Y-107866652D01*
X185413683Y-107866651D01*
X185417210Y-107865804D01*
X185742161Y-107746890D01*
X185745400Y-107745261D01*
X185760575Y-107737629D01*
X185830420Y-107724891D01*
X185865949Y-107734420D01*
X185866018Y-107734239D01*
X186189707Y-107856550D01*
X186525310Y-107940848D01*
X186651348Y-107957441D01*
X186864772Y-107985539D01*
X186864780Y-107985540D01*
X186868376Y-107986013D01*
X187019509Y-107988388D01*
X187210720Y-107991392D01*
X187210724Y-107991392D01*
X187214361Y-107991449D01*
X187217976Y-107991088D01*
X187217980Y-107991088D01*
X187385854Y-107974331D01*
X187558677Y-107957081D01*
X187562214Y-107956310D01*
X187562219Y-107956309D01*
X187893217Y-107884140D01*
X187893222Y-107884139D01*
X187896761Y-107883367D01*
X188224133Y-107771283D01*
X188536452Y-107622314D01*
X188829579Y-107438436D01*
X188832413Y-107436166D01*
X188832418Y-107436162D01*
X189001434Y-107300754D01*
X189099629Y-107222085D01*
X189343023Y-106976129D01*
X189428120Y-106867601D01*
X189554294Y-106706685D01*
X189554295Y-106706683D01*
X189556534Y-106703828D01*
X189737332Y-106408791D01*
X189738859Y-106405501D01*
X189738864Y-106405492D01*
X189860291Y-106143899D01*
X189883022Y-106094930D01*
X189931190Y-105949283D01*
X189990533Y-105769848D01*
X189990534Y-105769843D01*
X189991672Y-105766403D01*
X190061842Y-105427565D01*
X190089000Y-105123267D01*
X190089000Y-102571483D01*
X190089465Y-102563038D01*
X190089378Y-102563033D01*
X190089568Y-102559404D01*
X190089966Y-102555800D01*
X190089632Y-102492034D01*
X190089715Y-102486757D01*
X190093293Y-102389196D01*
X190093293Y-102389188D01*
X190093426Y-102385556D01*
X190089388Y-102334251D01*
X190089000Y-102324365D01*
X190089000Y-102310311D01*
X190088897Y-102308531D01*
X190088896Y-102308479D01*
X190088838Y-102307477D01*
X190088632Y-102300909D01*
X190088173Y-102213407D01*
X190088154Y-102209777D01*
X190079171Y-102135548D01*
X190078469Y-102127680D01*
X190074375Y-102056667D01*
X190074374Y-102056662D01*
X190074166Y-102053047D01*
X190058495Y-101963258D01*
X190057533Y-101956737D01*
X190047022Y-101869874D01*
X190047021Y-101869871D01*
X190046584Y-101866256D01*
X190029129Y-101793553D01*
X190027526Y-101785814D01*
X190015297Y-101715740D01*
X190015296Y-101715735D01*
X190014674Y-101712172D01*
X190013253Y-101707373D01*
X189989567Y-101627412D01*
X189988782Y-101624761D01*
X189987087Y-101618440D01*
X189965804Y-101529790D01*
X189940107Y-101459569D01*
X189937640Y-101452110D01*
X189916397Y-101380394D01*
X189905078Y-101353856D01*
X189880638Y-101296559D01*
X189878209Y-101290424D01*
X189848140Y-101208256D01*
X189846890Y-101204839D01*
X189845258Y-101201594D01*
X189845254Y-101201585D01*
X189813303Y-101138059D01*
X189809969Y-101130878D01*
X189809323Y-101129362D01*
X189780638Y-101062111D01*
X189735482Y-100982944D01*
X189732365Y-100977132D01*
X189693037Y-100898937D01*
X189691413Y-100895708D01*
X189689428Y-100892686D01*
X189689421Y-100892674D01*
X189650377Y-100833235D01*
X189646242Y-100826487D01*
X189610995Y-100764694D01*
X189610990Y-100764687D01*
X189609196Y-100761541D01*
X189555233Y-100688080D01*
X189551468Y-100682663D01*
X189503424Y-100609522D01*
X189503421Y-100609518D01*
X189501436Y-100606496D01*
X189499107Y-100603710D01*
X189453480Y-100549140D01*
X189448596Y-100542912D01*
X189404343Y-100482668D01*
X189342300Y-100415902D01*
X189337939Y-100410955D01*
X189305469Y-100372121D01*
X189252653Y-100319305D01*
X189249448Y-100315981D01*
X189171262Y-100231843D01*
X189168795Y-100229188D01*
X189129664Y-100195767D01*
X189122399Y-100189051D01*
X187059315Y-98125967D01*
X186968162Y-98044752D01*
X186869626Y-97956960D01*
X186869624Y-97956958D01*
X186866913Y-97954543D01*
X186775065Y-97889991D01*
X186586784Y-97757665D01*
X186586782Y-97757664D01*
X186583810Y-97755575D01*
X186279715Y-97590465D01*
X186276350Y-97589112D01*
X186276343Y-97589109D01*
X185962028Y-97462755D01*
X185962023Y-97462753D01*
X185958659Y-97461401D01*
X185624896Y-97370094D01*
X185621305Y-97369545D01*
X185621298Y-97369543D01*
X185375550Y-97331939D01*
X185282850Y-97317754D01*
X185154636Y-97313053D01*
X184940694Y-97305207D01*
X184940686Y-97305207D01*
X184937055Y-97305074D01*
X184933434Y-97305359D01*
X184933432Y-97305359D01*
X184861410Y-97311027D01*
X184592096Y-97332223D01*
X184252541Y-97398841D01*
X184249080Y-97399945D01*
X184249082Y-97399945D01*
X183926353Y-97502940D01*
X183926347Y-97502942D01*
X183922895Y-97504044D01*
X183919591Y-97505536D01*
X183610835Y-97644945D01*
X183610828Y-97644948D01*
X183607525Y-97646440D01*
X183310610Y-97824139D01*
X183307729Y-97826349D01*
X183307727Y-97826351D01*
X183038972Y-98032574D01*
X183038964Y-98032581D01*
X183036089Y-98034787D01*
X182787597Y-98275592D01*
X182568431Y-98543362D01*
X182381493Y-98834547D01*
X182229261Y-99145289D01*
X182228051Y-99148707D01*
X182117645Y-99460488D01*
X182113756Y-99471469D01*
X182036505Y-99808762D01*
X181998534Y-100152700D01*
X182000346Y-100498723D01*
X182000782Y-100502324D01*
X182000782Y-100502328D01*
X182041478Y-100838626D01*
X182041916Y-100842244D01*
X182045352Y-100856555D01*
X182041805Y-100927461D01*
X182000485Y-100985195D01*
X181934511Y-101011425D01*
X181883270Y-101005594D01*
X181876939Y-101003501D01*
X181869538Y-101000792D01*
X181800159Y-100972901D01*
X181796662Y-100971944D01*
X181796652Y-100971941D01*
X181731832Y-100954209D01*
X181712245Y-100948851D01*
X181705936Y-100946946D01*
X181622850Y-100919467D01*
X181622834Y-100919463D01*
X181619403Y-100918328D01*
X181615863Y-100917595D01*
X181615856Y-100917593D01*
X181546195Y-100903167D01*
X181538500Y-100901319D01*
X181517989Y-100895708D01*
X181466396Y-100881594D01*
X181462798Y-100881044D01*
X181462796Y-100881043D01*
X181376310Y-100867809D01*
X181369818Y-100866641D01*
X181284116Y-100848893D01*
X181284109Y-100848892D01*
X181280565Y-100848158D01*
X181262928Y-100846584D01*
X181206098Y-100841511D01*
X181198243Y-100840560D01*
X181141246Y-100831839D01*
X181124350Y-100829254D01*
X181033271Y-100825914D01*
X181026694Y-100825500D01*
X181018577Y-100824776D01*
X180979061Y-100821249D01*
X180979053Y-100821249D01*
X180976267Y-100821000D01*
X180901555Y-100821000D01*
X180896938Y-100820915D01*
X180782194Y-100816707D01*
X180782186Y-100816707D01*
X180778555Y-100816574D01*
X180774934Y-100816859D01*
X180774932Y-100816859D01*
X180727248Y-100820612D01*
X180717362Y-100821000D01*
X176353311Y-100821000D01*
X176351492Y-100821105D01*
X176351488Y-100821105D01*
X176099667Y-100835625D01*
X176099662Y-100835626D01*
X176096047Y-100835834D01*
X176092478Y-100836457D01*
X176092477Y-100836457D01*
X175758745Y-100894702D01*
X175758738Y-100894704D01*
X175755172Y-100895326D01*
X175751697Y-100896355D01*
X175751690Y-100896357D01*
X175677518Y-100918328D01*
X175423394Y-100993603D01*
X175420058Y-100995026D01*
X175420055Y-100995027D01*
X175108449Y-101127938D01*
X175108446Y-101127940D01*
X175105111Y-101129362D01*
X175101964Y-101131157D01*
X175101960Y-101131159D01*
X174966795Y-101208256D01*
X174804541Y-101300804D01*
X174801629Y-101302943D01*
X174801626Y-101302945D01*
X174731753Y-101354272D01*
X174525668Y-101505657D01*
X174523015Y-101508123D01*
X174523013Y-101508124D01*
X174499698Y-101529790D01*
X174272188Y-101741205D01*
X174269836Y-101743959D01*
X174269833Y-101743962D01*
X174125303Y-101913186D01*
X174047462Y-102004326D01*
X173854467Y-102291533D01*
X173695761Y-102599018D01*
X173573450Y-102922707D01*
X173489152Y-103258310D01*
X173443987Y-103601376D01*
X173438551Y-103947361D01*
X173472919Y-104291677D01*
X173546633Y-104629761D01*
X173658717Y-104957133D01*
X173807686Y-105269452D01*
X173991564Y-105562579D01*
X173993834Y-105565413D01*
X173993838Y-105565418D01*
X174180816Y-105798804D01*
X174207798Y-105864474D01*
X174194993Y-105934306D01*
X174146466Y-105986130D01*
X174118267Y-105998396D01*
X174108745Y-106001216D01*
X174102398Y-106002916D01*
X174017299Y-106023347D01*
X174017295Y-106023348D01*
X174013768Y-106024195D01*
X174010369Y-106025439D01*
X174010362Y-106025441D01*
X173943559Y-106049888D01*
X173936047Y-106052372D01*
X173864372Y-106073603D01*
X173780530Y-106109365D01*
X173774412Y-106111787D01*
X173692224Y-106141863D01*
X173692221Y-106141864D01*
X173688817Y-106143110D01*
X173685589Y-106144733D01*
X173685574Y-106144740D01*
X173622037Y-106176697D01*
X173614867Y-106180026D01*
X173546089Y-106209362D01*
X173509029Y-106230501D01*
X173466922Y-106254518D01*
X173461110Y-106257635D01*
X173379686Y-106298587D01*
X173376664Y-106300572D01*
X173376652Y-106300579D01*
X173317213Y-106339623D01*
X173310465Y-106343758D01*
X173248672Y-106379005D01*
X173248665Y-106379010D01*
X173245519Y-106380804D01*
X173242608Y-106382943D01*
X173242604Y-106382945D01*
X173172058Y-106434767D01*
X173166641Y-106438532D01*
X173090474Y-106488564D01*
X173087693Y-106490889D01*
X173087688Y-106490893D01*
X173033118Y-106536520D01*
X173026898Y-106541398D01*
X172966646Y-106585657D01*
X172899882Y-106647698D01*
X172894935Y-106652059D01*
X172856099Y-106684531D01*
X172803283Y-106737347D01*
X172799959Y-106740552D01*
X172713166Y-106821205D01*
X172697579Y-106839455D01*
X172679745Y-106860336D01*
X172673029Y-106867601D01*
X167559149Y-111981481D01*
X167552840Y-111987132D01*
X167552899Y-111987197D01*
X167550206Y-111989621D01*
X167547371Y-111991893D01*
X167544818Y-111994473D01*
X167417694Y-112122935D01*
X167417228Y-112123402D01*
X167374467Y-112166163D01*
X167373244Y-112167536D01*
X167373240Y-112167540D01*
X167372602Y-112168256D01*
X167368092Y-112173059D01*
X167303977Y-112237849D01*
X167301737Y-112240706D01*
X167301728Y-112240716D01*
X167257847Y-112296679D01*
X167252771Y-112302751D01*
X167203043Y-112358565D01*
X167200961Y-112361527D01*
X167200955Y-112361535D01*
X167150638Y-112433131D01*
X167146706Y-112438425D01*
X167090466Y-112510150D01*
X167088568Y-112513248D01*
X167051404Y-112573894D01*
X167047067Y-112580497D01*
X167004075Y-112641668D01*
X167002340Y-112644864D01*
X166960586Y-112721765D01*
X166957288Y-112727478D01*
X166909668Y-112805187D01*
X166908141Y-112808476D01*
X166908137Y-112808484D01*
X166878194Y-112872990D01*
X166874638Y-112880061D01*
X166838965Y-112945763D01*
X166837612Y-112949129D01*
X166804970Y-113030328D01*
X166802351Y-113036381D01*
X166763978Y-113119048D01*
X166762838Y-113122496D01*
X166740507Y-113190020D01*
X166737792Y-113197440D01*
X166709901Y-113266819D01*
X166708944Y-113270316D01*
X166708941Y-113270326D01*
X166685853Y-113354725D01*
X166683946Y-113361042D01*
X166656467Y-113444128D01*
X166656463Y-113444144D01*
X166655328Y-113447575D01*
X166654595Y-113451115D01*
X166654593Y-113451122D01*
X166640167Y-113520783D01*
X166638319Y-113528478D01*
X166618594Y-113600582D01*
X166618044Y-113604180D01*
X166618043Y-113604182D01*
X166604809Y-113690668D01*
X166603641Y-113697160D01*
X166587162Y-113776734D01*
X166585158Y-113786413D01*
X166584836Y-113790022D01*
X166578511Y-113860880D01*
X166577560Y-113868735D01*
X166573934Y-113892435D01*
X166566254Y-113942628D01*
X166565167Y-113972282D01*
X166562914Y-114033705D01*
X166562500Y-114040284D01*
X166558000Y-114090711D01*
X166558000Y-114165423D01*
X166557915Y-114170040D01*
X166555027Y-114248808D01*
X166553574Y-114288423D01*
X133000000Y-114288423D01*
X133000000Y-99880050D01*
X144069001Y-99880050D01*
X144070074Y-99907358D01*
X144070587Y-99910773D01*
X144070588Y-99910779D01*
X144107505Y-100156327D01*
X144112193Y-100187510D01*
X144193365Y-100458933D01*
X144195228Y-100462973D01*
X144195229Y-100462977D01*
X144260108Y-100603710D01*
X144311972Y-100716210D01*
X144465645Y-100954209D01*
X144498934Y-100992571D01*
X144616401Y-101127938D01*
X144651321Y-101168180D01*
X144865292Y-101353856D01*
X145103291Y-101507529D01*
X145107343Y-101509397D01*
X145356524Y-101624272D01*
X145356528Y-101624273D01*
X145360568Y-101626136D01*
X145364836Y-101627412D01*
X145364835Y-101627412D01*
X145627717Y-101706030D01*
X145627719Y-101706031D01*
X145631991Y-101707308D01*
X145636395Y-101707970D01*
X145636399Y-101707971D01*
X145908722Y-101748913D01*
X145908728Y-101748914D01*
X145912143Y-101749427D01*
X145915600Y-101749563D01*
X145915602Y-101749563D01*
X145921664Y-101749801D01*
X145939451Y-101750500D01*
X150199551Y-101750500D01*
X150217338Y-101749801D01*
X150223400Y-101749563D01*
X150223402Y-101749563D01*
X150226859Y-101749427D01*
X150230274Y-101748914D01*
X150230280Y-101748913D01*
X150502603Y-101707971D01*
X150502607Y-101707970D01*
X150507011Y-101707308D01*
X150511283Y-101706031D01*
X150511285Y-101706030D01*
X150774167Y-101627412D01*
X150774166Y-101627412D01*
X150778434Y-101626136D01*
X150782474Y-101624273D01*
X150782478Y-101624272D01*
X151031659Y-101509397D01*
X151035711Y-101507529D01*
X151273710Y-101353856D01*
X151487681Y-101168180D01*
X151522602Y-101127938D01*
X151640068Y-100992571D01*
X151673357Y-100954209D01*
X151827030Y-100716210D01*
X151878894Y-100603710D01*
X151943773Y-100462977D01*
X151943774Y-100462973D01*
X151945637Y-100458933D01*
X152026809Y-100187510D01*
X152031497Y-100156327D01*
X152068414Y-99910779D01*
X152068415Y-99910773D01*
X152068928Y-99907358D01*
X152070001Y-99880050D01*
X152070001Y-95619950D01*
X152068928Y-95592642D01*
X152052845Y-95485662D01*
X152027472Y-95316898D01*
X152027471Y-95316894D01*
X152026809Y-95312490D01*
X152012969Y-95266210D01*
X151946913Y-95045334D01*
X151945637Y-95041067D01*
X151932688Y-95012977D01*
X151828898Y-94787842D01*
X151827030Y-94783790D01*
X151673357Y-94545791D01*
X151487681Y-94331820D01*
X151273710Y-94146144D01*
X151035711Y-93992471D01*
X151025384Y-93987710D01*
X150782478Y-93875728D01*
X150782474Y-93875727D01*
X150778434Y-93873864D01*
X150605700Y-93822206D01*
X150511285Y-93793970D01*
X150511283Y-93793969D01*
X150507011Y-93792692D01*
X150502607Y-93792030D01*
X150502603Y-93792029D01*
X150230280Y-93751087D01*
X150230274Y-93751086D01*
X150226859Y-93750573D01*
X150223402Y-93750437D01*
X150223400Y-93750437D01*
X150217338Y-93750199D01*
X150199551Y-93749500D01*
X145939451Y-93749500D01*
X145921664Y-93750199D01*
X145915602Y-93750437D01*
X145915600Y-93750437D01*
X145912143Y-93750573D01*
X145908728Y-93751086D01*
X145908722Y-93751087D01*
X145636399Y-93792029D01*
X145636395Y-93792030D01*
X145631991Y-93792692D01*
X145627719Y-93793969D01*
X145627717Y-93793970D01*
X145533302Y-93822206D01*
X145360568Y-93873864D01*
X145356528Y-93875727D01*
X145356524Y-93875728D01*
X145113618Y-93987710D01*
X145103291Y-93992471D01*
X144865292Y-94146144D01*
X144651321Y-94331820D01*
X144465645Y-94545791D01*
X144311972Y-94783790D01*
X144310104Y-94787842D01*
X144206315Y-95012977D01*
X144193365Y-95041067D01*
X144192089Y-95045334D01*
X144126034Y-95266210D01*
X144112193Y-95312490D01*
X144111531Y-95316894D01*
X144111530Y-95316898D01*
X144086158Y-95485662D01*
X144070074Y-95592642D01*
X144069001Y-95619950D01*
X144069001Y-99880050D01*
X133000000Y-99880050D01*
X133000000Y-92815861D01*
X181997051Y-92815861D01*
X182031419Y-93160177D01*
X182105133Y-93498261D01*
X182217217Y-93825633D01*
X182366186Y-94137952D01*
X182550064Y-94431079D01*
X182766415Y-94701129D01*
X183012371Y-94944523D01*
X183284672Y-95158034D01*
X183579709Y-95338832D01*
X183582999Y-95340359D01*
X183583008Y-95340364D01*
X183844601Y-95461791D01*
X183893570Y-95484522D01*
X183897017Y-95485662D01*
X184218652Y-95592033D01*
X184218657Y-95592034D01*
X184222097Y-95593172D01*
X184225652Y-95593908D01*
X184225655Y-95593909D01*
X184557385Y-95662607D01*
X184557388Y-95662607D01*
X184560935Y-95663342D01*
X184714833Y-95677077D01*
X184862440Y-95690251D01*
X184862446Y-95690251D01*
X184865233Y-95690500D01*
X196432875Y-95690500D01*
X196500996Y-95710502D01*
X196515454Y-95721334D01*
X196725791Y-95903856D01*
X196867575Y-95995404D01*
X196913952Y-96049159D01*
X196923906Y-96119455D01*
X196891752Y-96186785D01*
X196778735Y-96309046D01*
X196671638Y-96424903D01*
X196669579Y-96427691D01*
X196461140Y-96709894D01*
X196461135Y-96709902D01*
X196459077Y-96712688D01*
X196279379Y-97022060D01*
X196134715Y-97349283D01*
X196026833Y-97690404D01*
X196026158Y-97693797D01*
X196026156Y-97693805D01*
X196000602Y-97822274D01*
X195957034Y-98041304D01*
X195956736Y-98044745D01*
X195956735Y-98044752D01*
X195939725Y-98241151D01*
X195926163Y-98397744D01*
X195926245Y-98401212D01*
X195930983Y-98602256D01*
X195934592Y-98755419D01*
X195982220Y-99110009D01*
X195983056Y-99113373D01*
X195983056Y-99113375D01*
X196032620Y-99312906D01*
X196068470Y-99457232D01*
X196192302Y-99792892D01*
X196235230Y-99878804D01*
X196350674Y-100109844D01*
X196350678Y-100109851D01*
X196352220Y-100112937D01*
X196546291Y-100413501D01*
X196642193Y-100531298D01*
X196769988Y-100688271D01*
X196769995Y-100688278D01*
X196772173Y-100690954D01*
X196774637Y-100693380D01*
X196774641Y-100693384D01*
X196888286Y-100805257D01*
X197027137Y-100941944D01*
X197029856Y-100944088D01*
X197029860Y-100944091D01*
X197115273Y-101011425D01*
X197308103Y-101163440D01*
X197611678Y-101352766D01*
X197614804Y-101354267D01*
X197614813Y-101354272D01*
X197784241Y-101435630D01*
X197934196Y-101507637D01*
X197937465Y-101508785D01*
X198268501Y-101625037D01*
X198268509Y-101625039D01*
X198271760Y-101626181D01*
X198275122Y-101626960D01*
X198275128Y-101626962D01*
X198413671Y-101659074D01*
X198620295Y-101706967D01*
X198623712Y-101707371D01*
X198623721Y-101707373D01*
X198972885Y-101748699D01*
X198975589Y-101749019D01*
X198978304Y-101749104D01*
X198978313Y-101749105D01*
X199003269Y-101749889D01*
X199022714Y-101750500D01*
X201269817Y-101750500D01*
X201271536Y-101750405D01*
X201271551Y-101750405D01*
X201413689Y-101742582D01*
X201537234Y-101735783D01*
X201540646Y-101735215D01*
X201540656Y-101735214D01*
X201783955Y-101694717D01*
X201890153Y-101677041D01*
X202234495Y-101579927D01*
X202566100Y-101445613D01*
X202738175Y-101352766D01*
X202877914Y-101277367D01*
X202877918Y-101277364D01*
X202880964Y-101275721D01*
X202883813Y-101273752D01*
X203172443Y-101074269D01*
X203172449Y-101074265D01*
X203175284Y-101072305D01*
X203433589Y-100848158D01*
X203442887Y-100840090D01*
X203442888Y-100840089D01*
X203445504Y-100837819D01*
X203449742Y-100833235D01*
X203686014Y-100577637D01*
X203688362Y-100575097D01*
X203805944Y-100415904D01*
X203898860Y-100290106D01*
X203898865Y-100290098D01*
X203900923Y-100287312D01*
X204080621Y-99977940D01*
X204225285Y-99650717D01*
X204333167Y-99309596D01*
X204402966Y-98958696D01*
X204413719Y-98834547D01*
X204433538Y-98605712D01*
X204433538Y-98605706D01*
X204433837Y-98602256D01*
X204429099Y-98401212D01*
X204425490Y-98248045D01*
X204425489Y-98248038D01*
X204425408Y-98244581D01*
X204377780Y-97889991D01*
X204361972Y-97826351D01*
X204292367Y-97546136D01*
X204292365Y-97546129D01*
X204291530Y-97542768D01*
X204277795Y-97505536D01*
X204168898Y-97210361D01*
X204167698Y-97207108D01*
X204076822Y-97025238D01*
X204009326Y-96890156D01*
X204009322Y-96890149D01*
X204007780Y-96887063D01*
X203813709Y-96586499D01*
X203684419Y-96427691D01*
X203590012Y-96311729D01*
X203590005Y-96311722D01*
X203587827Y-96309046D01*
X203469711Y-96192770D01*
X203435198Y-96130728D01*
X203439706Y-96059875D01*
X203481805Y-96002707D01*
X203489757Y-95997127D01*
X203630464Y-95906274D01*
X203634209Y-95903856D01*
X203848180Y-95718180D01*
X204033856Y-95504209D01*
X204187529Y-95266210D01*
X204291322Y-95041067D01*
X204304272Y-95012977D01*
X204304273Y-95012973D01*
X204306136Y-95008933D01*
X204372256Y-94787842D01*
X204386030Y-94741784D01*
X204386031Y-94741782D01*
X204387308Y-94737510D01*
X204429427Y-94457358D01*
X204430500Y-94430050D01*
X204430500Y-91669950D01*
X204429427Y-91642642D01*
X204403099Y-91467518D01*
X204387971Y-91366898D01*
X204387970Y-91366894D01*
X204387308Y-91362490D01*
X204306136Y-91091067D01*
X204249207Y-90967578D01*
X204238852Y-90897343D01*
X204268114Y-90832657D01*
X204327703Y-90794061D01*
X204357368Y-90788985D01*
X204468259Y-90783465D01*
X204468268Y-90783464D01*
X204471063Y-90783325D01*
X204473840Y-90782937D01*
X204473842Y-90782937D01*
X204550225Y-90772270D01*
X204912187Y-90721722D01*
X205346089Y-90621149D01*
X205568534Y-90548228D01*
X205766679Y-90483273D01*
X205766685Y-90483271D01*
X205769332Y-90482403D01*
X206178567Y-90306582D01*
X206570551Y-90095078D01*
X206942183Y-89849567D01*
X207290518Y-89571992D01*
X207612800Y-89264550D01*
X207614637Y-89262456D01*
X207614645Y-89262447D01*
X207904629Y-88931783D01*
X207906476Y-88929677D01*
X208169221Y-88570024D01*
X208170656Y-88567641D01*
X208170663Y-88567630D01*
X208397514Y-88190829D01*
X208397515Y-88190827D01*
X208398954Y-88188437D01*
X208593857Y-87787940D01*
X208752387Y-87371702D01*
X208873288Y-86943019D01*
X208873807Y-86940260D01*
X208955087Y-86508033D01*
X208955088Y-86508025D01*
X208955603Y-86505287D01*
X208964216Y-86416653D01*
X208998465Y-86064187D01*
X208998466Y-86064175D01*
X208998680Y-86061970D01*
X209005540Y-85800000D01*
X208985723Y-85355036D01*
X208926430Y-84913595D01*
X208828131Y-84479173D01*
X208691602Y-84055209D01*
X208640978Y-83935654D01*
X208519017Y-83647633D01*
X208519016Y-83647632D01*
X208517927Y-83645059D01*
X208456666Y-83530085D01*
X208309787Y-83254428D01*
X208308479Y-83251973D01*
X208064917Y-82879061D01*
X207981822Y-82773655D01*
X207790898Y-82531470D01*
X207790896Y-82531468D01*
X207789169Y-82529277D01*
X207483419Y-82205390D01*
X207481328Y-82203537D01*
X207481320Y-82203529D01*
X207152188Y-81911826D01*
X207152186Y-81911824D01*
X207150088Y-81909965D01*
X206791815Y-81645340D01*
X206411437Y-81413612D01*
X206408923Y-81412372D01*
X206408919Y-81412370D01*
X206014471Y-81217849D01*
X206014465Y-81217846D01*
X206011966Y-81216614D01*
X205596564Y-81055907D01*
X205339762Y-80982028D01*
X205171201Y-80933534D01*
X205171195Y-80933533D01*
X205168520Y-80932763D01*
X205165784Y-80932234D01*
X205165777Y-80932232D01*
X204970847Y-80894519D01*
X204731224Y-80848158D01*
X204288139Y-80802760D01*
X204285349Y-80802723D01*
X204285341Y-80802723D01*
X204006864Y-80799078D01*
X203842772Y-80796930D01*
X203839972Y-80797143D01*
X203839971Y-80797143D01*
X203762382Y-80803045D01*
X203398650Y-80830713D01*
X202959290Y-80903843D01*
X202868982Y-80927282D01*
X202530887Y-81015034D01*
X202530876Y-81015037D01*
X202528169Y-81015740D01*
X202525533Y-81016681D01*
X202525524Y-81016684D01*
X202111352Y-81164572D01*
X202108703Y-81165518D01*
X201704211Y-81351991D01*
X201317898Y-81573683D01*
X201315595Y-81575292D01*
X201315588Y-81575297D01*
X200955129Y-81827224D01*
X200952820Y-81828838D01*
X200611870Y-82115437D01*
X200297747Y-82431209D01*
X200012938Y-82773655D01*
X199759697Y-83140063D01*
X199540031Y-83527532D01*
X199538872Y-83530081D01*
X199538870Y-83530085D01*
X199386399Y-83865430D01*
X199355679Y-83932995D01*
X199208099Y-84353240D01*
X199098461Y-84784940D01*
X199098018Y-84787690D01*
X199098016Y-84787700D01*
X199028079Y-85221906D01*
X199027633Y-85224677D01*
X198996175Y-85668970D01*
X199004337Y-86114300D01*
X199004636Y-86117075D01*
X199046467Y-86505287D01*
X199052054Y-86557142D01*
X199138949Y-86993989D01*
X199264332Y-87421382D01*
X199265359Y-87423995D01*
X199265359Y-87423996D01*
X199407320Y-87785308D01*
X199427212Y-87835937D01*
X199626298Y-88234371D01*
X199860015Y-88613531D01*
X200126512Y-88970413D01*
X200128373Y-88972491D01*
X200128374Y-88972492D01*
X200391692Y-89266481D01*
X200423678Y-89302193D01*
X200712784Y-89572260D01*
X200748909Y-89633376D01*
X200746257Y-89704323D01*
X200705669Y-89762574D01*
X200640031Y-89789634D01*
X200598003Y-89786344D01*
X200597903Y-89786828D01*
X200524695Y-89771667D01*
X200517000Y-89769819D01*
X200498861Y-89764857D01*
X200444896Y-89750094D01*
X200441298Y-89749544D01*
X200441296Y-89749543D01*
X200354810Y-89736309D01*
X200348318Y-89735141D01*
X200262616Y-89717393D01*
X200262609Y-89717392D01*
X200259065Y-89716658D01*
X200241428Y-89715084D01*
X200184598Y-89710011D01*
X200176743Y-89709060D01*
X200119746Y-89700339D01*
X200102850Y-89697754D01*
X200011771Y-89694414D01*
X200005194Y-89694000D01*
X199997077Y-89693276D01*
X199957561Y-89689749D01*
X199957553Y-89689749D01*
X199954767Y-89689500D01*
X199880055Y-89689500D01*
X199875438Y-89689415D01*
X199760694Y-89685207D01*
X199760686Y-89685207D01*
X199757055Y-89685074D01*
X199753434Y-89685359D01*
X199753432Y-89685359D01*
X199705748Y-89689112D01*
X199695862Y-89689500D01*
X184911811Y-89689500D01*
X184909992Y-89689605D01*
X184909988Y-89689605D01*
X184658167Y-89704125D01*
X184658162Y-89704126D01*
X184654547Y-89704334D01*
X184650978Y-89704957D01*
X184650977Y-89704957D01*
X184317245Y-89763202D01*
X184317238Y-89763204D01*
X184313672Y-89763826D01*
X184310197Y-89764855D01*
X184310190Y-89764857D01*
X184193238Y-89799500D01*
X183981894Y-89862103D01*
X183978558Y-89863526D01*
X183978555Y-89863527D01*
X183666949Y-89996438D01*
X183666946Y-89996440D01*
X183663611Y-89997862D01*
X183660464Y-89999657D01*
X183660460Y-89999659D01*
X183493173Y-90095078D01*
X183363041Y-90169304D01*
X183084168Y-90374157D01*
X182830688Y-90609705D01*
X182828336Y-90612459D01*
X182828333Y-90612462D01*
X182735017Y-90721722D01*
X182605962Y-90872826D01*
X182412967Y-91160033D01*
X182254261Y-91467518D01*
X182131950Y-91791207D01*
X182047652Y-92126810D01*
X182002487Y-92469876D01*
X181997051Y-92815861D01*
X133000000Y-92815861D01*
X133000000Y-75161885D01*
X151446138Y-75161885D01*
X151446233Y-75165515D01*
X151446233Y-75165516D01*
X151452985Y-75423352D01*
X151454592Y-75484737D01*
X151500098Y-75804477D01*
X151582053Y-76116869D01*
X151699369Y-76417770D01*
X151732400Y-76480155D01*
X151845378Y-76693532D01*
X151850493Y-76703193D01*
X151852545Y-76706178D01*
X151852550Y-76706187D01*
X152031364Y-76966363D01*
X152031370Y-76966370D01*
X152033421Y-76969355D01*
X152245728Y-77212728D01*
X152484601Y-77430086D01*
X152746874Y-77618548D01*
X153029070Y-77775616D01*
X153327448Y-77899208D01*
X153330942Y-77900203D01*
X153330944Y-77900204D01*
X153634554Y-77986690D01*
X153634559Y-77986691D01*
X153638055Y-77987687D01*
X153857264Y-78023584D01*
X153953192Y-78039293D01*
X153953196Y-78039293D01*
X153956772Y-78039879D01*
X153960398Y-78040050D01*
X154275749Y-78054921D01*
X154275750Y-78054921D01*
X154279376Y-78055092D01*
X154291707Y-78054251D01*
X154597960Y-78033374D01*
X154597968Y-78033373D01*
X154601591Y-78033126D01*
X154605167Y-78032463D01*
X154605169Y-78032463D01*
X154915580Y-77974932D01*
X154915584Y-77974931D01*
X154919145Y-77974271D01*
X155227830Y-77879307D01*
X155460884Y-77777003D01*
X155520232Y-77750951D01*
X155520236Y-77750949D01*
X155523555Y-77749492D01*
X155802399Y-77586549D01*
X155805308Y-77584365D01*
X156057761Y-77394819D01*
X156057765Y-77394816D01*
X156060668Y-77392636D01*
X156294936Y-77170323D01*
X156502101Y-76922557D01*
X156513470Y-76905250D01*
X156677427Y-76655649D01*
X156677432Y-76655640D01*
X156679414Y-76652623D01*
X156751970Y-76508361D01*
X156822900Y-76367334D01*
X156822903Y-76367326D01*
X156824527Y-76364098D01*
X156825772Y-76360696D01*
X156934269Y-76064216D01*
X156934270Y-76064212D01*
X156935517Y-76060805D01*
X156936362Y-76057283D01*
X156936365Y-76057275D01*
X157010064Y-75750295D01*
X157010065Y-75750291D01*
X157010911Y-75746766D01*
X157032523Y-75568175D01*
X157049374Y-75428922D01*
X157049374Y-75428916D01*
X157049710Y-75426143D01*
X157055246Y-75250000D01*
X157050375Y-75165516D01*
X157036864Y-74931193D01*
X157036863Y-74931188D01*
X157036655Y-74927573D01*
X157012372Y-74788437D01*
X156981752Y-74612993D01*
X156981750Y-74612986D01*
X156981128Y-74609420D01*
X156956865Y-74527507D01*
X156890434Y-74303242D01*
X156889402Y-74299757D01*
X156762692Y-74002689D01*
X156602677Y-73722154D01*
X156600533Y-73719235D01*
X156413622Y-73464786D01*
X156413620Y-73464783D01*
X156411479Y-73461869D01*
X156191632Y-73225285D01*
X156124415Y-73167876D01*
X155948805Y-73017892D01*
X155946049Y-73015538D01*
X155677986Y-72835407D01*
X155590363Y-72790181D01*
X155394216Y-72688942D01*
X155390996Y-72687280D01*
X155088883Y-72573121D01*
X155085362Y-72572237D01*
X155085357Y-72572235D01*
X154935433Y-72534577D01*
X154775651Y-72494443D01*
X154755805Y-72491830D01*
X154459055Y-72452762D01*
X154459047Y-72452761D01*
X154455451Y-72452288D01*
X154321081Y-72450177D01*
X154136170Y-72447272D01*
X154136166Y-72447272D01*
X154132528Y-72447215D01*
X154128913Y-72447576D01*
X154128908Y-72447576D01*
X153901132Y-72470311D01*
X153811163Y-72479291D01*
X153495614Y-72548092D01*
X153492187Y-72549265D01*
X153492181Y-72549267D01*
X153193495Y-72651530D01*
X153193490Y-72651532D01*
X153190064Y-72652705D01*
X153186796Y-72654264D01*
X153186788Y-72654267D01*
X153060927Y-72714300D01*
X152898562Y-72791744D01*
X152624974Y-72963366D01*
X152622140Y-72965636D01*
X152622135Y-72965640D01*
X152556914Y-73017892D01*
X152372924Y-73165296D01*
X152145754Y-73394858D01*
X151946474Y-73649008D01*
X151777727Y-73924379D01*
X151641748Y-74217320D01*
X151640608Y-74220767D01*
X151614485Y-74299757D01*
X151540340Y-74523949D01*
X151474848Y-74840201D01*
X151446138Y-75161885D01*
X133000000Y-75161885D01*
X133000000Y-64000000D01*
X148744696Y-64000000D01*
X148763898Y-64366404D01*
X148764411Y-64369644D01*
X148764412Y-64369652D01*
X148790799Y-64536248D01*
X148821295Y-64728794D01*
X148916258Y-65083199D01*
X148917443Y-65086287D01*
X148917444Y-65086289D01*
X148945297Y-65158849D01*
X149047745Y-65425736D01*
X149049243Y-65428676D01*
X149192380Y-65709596D01*
X149214318Y-65752652D01*
X149216114Y-65755418D01*
X149216116Y-65755421D01*
X149282233Y-65857232D01*
X149414149Y-66060366D01*
X149645051Y-66345506D01*
X149904494Y-66604949D01*
X150189634Y-66835851D01*
X150497348Y-67035682D01*
X150500282Y-67037177D01*
X150500289Y-67037181D01*
X150620962Y-67098667D01*
X150824264Y-67202255D01*
X151166801Y-67333742D01*
X151521206Y-67428705D01*
X151713752Y-67459201D01*
X151880348Y-67485588D01*
X151880356Y-67485589D01*
X151883596Y-67486102D01*
X152250000Y-67505304D01*
X152616404Y-67486102D01*
X152619644Y-67485589D01*
X152619652Y-67485588D01*
X152786248Y-67459201D01*
X152978794Y-67428705D01*
X153333199Y-67333742D01*
X153675736Y-67202255D01*
X153879038Y-67098667D01*
X153999711Y-67037181D01*
X153999718Y-67037177D01*
X154002652Y-67035682D01*
X154310366Y-66835851D01*
X154595506Y-66604949D01*
X154854949Y-66345506D01*
X155085851Y-66060366D01*
X155217767Y-65857232D01*
X155283884Y-65755421D01*
X155283886Y-65755418D01*
X155285682Y-65752652D01*
X155307621Y-65709596D01*
X155450757Y-65428676D01*
X155452255Y-65425736D01*
X155554703Y-65158849D01*
X155582556Y-65086289D01*
X155582557Y-65086287D01*
X155583742Y-65083199D01*
X155678705Y-64728794D01*
X155709201Y-64536248D01*
X155735588Y-64369652D01*
X155735589Y-64369644D01*
X155736102Y-64366404D01*
X155755304Y-64000000D01*
X155749780Y-63894598D01*
X160146061Y-63894598D01*
X160154749Y-64263277D01*
X160203842Y-64628776D01*
X160292746Y-64986680D01*
X160420387Y-65332667D01*
X160585224Y-65662559D01*
X160587093Y-65665454D01*
X160587095Y-65665457D01*
X160783383Y-65969452D01*
X160783388Y-65969458D01*
X160785267Y-65972369D01*
X161018098Y-66258357D01*
X161020568Y-66260789D01*
X161020573Y-66260794D01*
X161278431Y-66514634D01*
X161280905Y-66517069D01*
X161570515Y-66745379D01*
X161883430Y-66940530D01*
X161886565Y-66942035D01*
X161886566Y-66942036D01*
X162212746Y-67098667D01*
X162212756Y-67098671D01*
X162215869Y-67100166D01*
X162563819Y-67222357D01*
X162923076Y-67305628D01*
X162926493Y-67306032D01*
X162926502Y-67306034D01*
X163286596Y-67348653D01*
X163289300Y-67348973D01*
X163292015Y-67349058D01*
X163292024Y-67349059D01*
X163317753Y-67349867D01*
X163337886Y-67350500D01*
X163592578Y-67350500D01*
X163594296Y-67350405D01*
X163594312Y-67350405D01*
X163740742Y-67342346D01*
X163868224Y-67335330D01*
X164232000Y-67274781D01*
X164586936Y-67174679D01*
X164928743Y-67036233D01*
X165109526Y-66938688D01*
X165250244Y-66862761D01*
X165250248Y-66862758D01*
X165253294Y-66861115D01*
X165326395Y-66810592D01*
X165553825Y-66653405D01*
X165553826Y-66653404D01*
X165556668Y-66651440D01*
X165559274Y-66649179D01*
X165559280Y-66649174D01*
X165832586Y-66412011D01*
X165835202Y-66409741D01*
X165864599Y-66377940D01*
X166083182Y-66141477D01*
X166085530Y-66138937D01*
X166304631Y-65842298D01*
X166489857Y-65523408D01*
X166497299Y-65506574D01*
X166637568Y-65189292D01*
X166637569Y-65189289D01*
X166638971Y-65186118D01*
X166648680Y-65155419D01*
X166749129Y-64837805D01*
X166749130Y-64837800D01*
X166750173Y-64834503D01*
X166822118Y-64472807D01*
X166824548Y-64444752D01*
X166853640Y-64108858D01*
X166853640Y-64108852D01*
X166853939Y-64105402D01*
X166851455Y-64000000D01*
X171244696Y-64000000D01*
X171263898Y-64366404D01*
X171264411Y-64369644D01*
X171264412Y-64369652D01*
X171290799Y-64536248D01*
X171321295Y-64728794D01*
X171416258Y-65083199D01*
X171417443Y-65086287D01*
X171417444Y-65086289D01*
X171445297Y-65158849D01*
X171547745Y-65425736D01*
X171549243Y-65428676D01*
X171692380Y-65709596D01*
X171714318Y-65752652D01*
X171716114Y-65755418D01*
X171716116Y-65755421D01*
X171782233Y-65857232D01*
X171914149Y-66060366D01*
X172145051Y-66345506D01*
X172404494Y-66604949D01*
X172689634Y-66835851D01*
X172997348Y-67035682D01*
X173000282Y-67037177D01*
X173000289Y-67037181D01*
X173120962Y-67098667D01*
X173324264Y-67202255D01*
X173666801Y-67333742D01*
X174021206Y-67428705D01*
X174213752Y-67459201D01*
X174380348Y-67485588D01*
X174380356Y-67485589D01*
X174383596Y-67486102D01*
X174750000Y-67505304D01*
X175116404Y-67486102D01*
X175119644Y-67485589D01*
X175119652Y-67485588D01*
X175286248Y-67459201D01*
X175478794Y-67428705D01*
X175833199Y-67333742D01*
X176175736Y-67202255D01*
X176379038Y-67098667D01*
X176499711Y-67037181D01*
X176499718Y-67037177D01*
X176502652Y-67035682D01*
X176810366Y-66835851D01*
X177095506Y-66604949D01*
X177354949Y-66345506D01*
X177585851Y-66060366D01*
X177717767Y-65857232D01*
X177783884Y-65755421D01*
X177783886Y-65755418D01*
X177785682Y-65752652D01*
X177807621Y-65709596D01*
X177950757Y-65428676D01*
X177952255Y-65425736D01*
X178054703Y-65158849D01*
X178082556Y-65086289D01*
X178082557Y-65086287D01*
X178083742Y-65083199D01*
X178160230Y-64797744D01*
X196246163Y-64797744D01*
X196246245Y-64801212D01*
X196250983Y-65002256D01*
X196254592Y-65155419D01*
X196302220Y-65510009D01*
X196303056Y-65513373D01*
X196303056Y-65513375D01*
X196352620Y-65712906D01*
X196388470Y-65857232D01*
X196389670Y-65860485D01*
X196389671Y-65860488D01*
X196458627Y-66047399D01*
X196512302Y-66192892D01*
X196543666Y-66255661D01*
X196670674Y-66509844D01*
X196670678Y-66509851D01*
X196672220Y-66512937D01*
X196866291Y-66813501D01*
X196884487Y-66835851D01*
X197089988Y-67088271D01*
X197089995Y-67088278D01*
X197092173Y-67090954D01*
X197094637Y-67093380D01*
X197094641Y-67093384D01*
X197188942Y-67186215D01*
X197347137Y-67341944D01*
X197349856Y-67344088D01*
X197349860Y-67344091D01*
X197424643Y-67403045D01*
X197628103Y-67563440D01*
X197931678Y-67752766D01*
X197934804Y-67754267D01*
X197934813Y-67754272D01*
X198062544Y-67815607D01*
X198254196Y-67907637D01*
X198257465Y-67908785D01*
X198588501Y-68025037D01*
X198588509Y-68025039D01*
X198591760Y-68026181D01*
X198595122Y-68026960D01*
X198595128Y-68026962D01*
X198733671Y-68059074D01*
X198940295Y-68106967D01*
X198943712Y-68107371D01*
X198943721Y-68107373D01*
X199292885Y-68148699D01*
X199295589Y-68149019D01*
X199298304Y-68149104D01*
X199298313Y-68149105D01*
X199323269Y-68149889D01*
X199342714Y-68150500D01*
X200950838Y-68150500D01*
X201018959Y-68170502D01*
X201065452Y-68224158D01*
X201075556Y-68294432D01*
X201046062Y-68359012D01*
X201023021Y-68379774D01*
X200952820Y-68428838D01*
X200611870Y-68715437D01*
X200297747Y-69031209D01*
X200012938Y-69373655D01*
X199759697Y-69740063D01*
X199540031Y-70127532D01*
X199538872Y-70130081D01*
X199538870Y-70130085D01*
X199386399Y-70465429D01*
X199355679Y-70532995D01*
X199208099Y-70953240D01*
X199098461Y-71384940D01*
X199098018Y-71387690D01*
X199098016Y-71387700D01*
X199028079Y-71821906D01*
X199027633Y-71824677D01*
X198996175Y-72268970D01*
X199004337Y-72714300D01*
X199004636Y-72717075D01*
X199046467Y-73105287D01*
X199052054Y-73157142D01*
X199052599Y-73159883D01*
X199052600Y-73159888D01*
X199066137Y-73227940D01*
X199138949Y-73593989D01*
X199264332Y-74021382D01*
X199265359Y-74023995D01*
X199265359Y-74023996D01*
X199407320Y-74385308D01*
X199427212Y-74435937D01*
X199626298Y-74834371D01*
X199860015Y-75213531D01*
X200126512Y-75570413D01*
X200128373Y-75572491D01*
X200128374Y-75572492D01*
X200391692Y-75866481D01*
X200423678Y-75902193D01*
X200425715Y-75904096D01*
X200425722Y-75904103D01*
X200589693Y-76057275D01*
X200749162Y-76206242D01*
X201100385Y-76480155D01*
X201474567Y-76721761D01*
X201477046Y-76723065D01*
X201477049Y-76723067D01*
X201866245Y-76927833D01*
X201866251Y-76927836D01*
X201868745Y-76929148D01*
X201871343Y-76930232D01*
X201871347Y-76930234D01*
X202277214Y-77099596D01*
X202277219Y-77099598D01*
X202279798Y-77100674D01*
X202282463Y-77101517D01*
X202282469Y-77101519D01*
X202491208Y-77167534D01*
X202704471Y-77234980D01*
X203139402Y-77331004D01*
X203142176Y-77331362D01*
X203142177Y-77331362D01*
X203578377Y-77387628D01*
X203578384Y-77387629D01*
X203581147Y-77387985D01*
X203583934Y-77388094D01*
X203583940Y-77388095D01*
X203841744Y-77398224D01*
X204026209Y-77405471D01*
X204029001Y-77405332D01*
X204029006Y-77405332D01*
X204468259Y-77383465D01*
X204468268Y-77383464D01*
X204471063Y-77383325D01*
X204473840Y-77382937D01*
X204473842Y-77382937D01*
X204550225Y-77372270D01*
X204912187Y-77321722D01*
X205346089Y-77221149D01*
X205568534Y-77148228D01*
X205766679Y-77083273D01*
X205766685Y-77083271D01*
X205769332Y-77082403D01*
X206084027Y-76947199D01*
X206175993Y-76907688D01*
X206175995Y-76907687D01*
X206178567Y-76906582D01*
X206570551Y-76695078D01*
X206942183Y-76449567D01*
X207290518Y-76171992D01*
X207612800Y-75864550D01*
X207614637Y-75862456D01*
X207614645Y-75862447D01*
X207904629Y-75531783D01*
X207906476Y-75529677D01*
X207941956Y-75481112D01*
X208112837Y-75247204D01*
X208169221Y-75170024D01*
X208170656Y-75167641D01*
X208170663Y-75167630D01*
X208397514Y-74790829D01*
X208397515Y-74790827D01*
X208398954Y-74788437D01*
X208527668Y-74523949D01*
X208592624Y-74390474D01*
X208592625Y-74390471D01*
X208593857Y-74387940D01*
X208752387Y-73971702D01*
X208765734Y-73924379D01*
X208872523Y-73545731D01*
X208873288Y-73543019D01*
X208888548Y-73461869D01*
X208955087Y-73108033D01*
X208955088Y-73108025D01*
X208955603Y-73105287D01*
X208964520Y-73013520D01*
X208998465Y-72664187D01*
X208998466Y-72664175D01*
X208998680Y-72661970D01*
X209003067Y-72494443D01*
X209005482Y-72402233D01*
X209005482Y-72402220D01*
X209005540Y-72400000D01*
X208985723Y-71955036D01*
X208926430Y-71513595D01*
X208828131Y-71079173D01*
X208691602Y-70655209D01*
X208640978Y-70535654D01*
X208519017Y-70247633D01*
X208519016Y-70247632D01*
X208517927Y-70245059D01*
X208456666Y-70130085D01*
X208309787Y-69854428D01*
X208308479Y-69851973D01*
X208064917Y-69479061D01*
X207981822Y-69373655D01*
X207790898Y-69131470D01*
X207790896Y-69131468D01*
X207789169Y-69129277D01*
X207483419Y-68805390D01*
X207481328Y-68803537D01*
X207481320Y-68803529D01*
X207152188Y-68511826D01*
X207152186Y-68511824D01*
X207150088Y-68509965D01*
X206791815Y-68245340D01*
X206411437Y-68013612D01*
X206408923Y-68012372D01*
X206408919Y-68012370D01*
X206014471Y-67817849D01*
X206014465Y-67817846D01*
X206011966Y-67816614D01*
X205596564Y-67655907D01*
X205281541Y-67565278D01*
X205171201Y-67533534D01*
X205171195Y-67533533D01*
X205168520Y-67532763D01*
X205165784Y-67532234D01*
X205165777Y-67532232D01*
X204927344Y-67486102D01*
X204731224Y-67448158D01*
X204288139Y-67402760D01*
X204285349Y-67402723D01*
X204285341Y-67402723D01*
X204105698Y-67400372D01*
X203904082Y-67397733D01*
X203836230Y-67376841D01*
X203790443Y-67322582D01*
X203781260Y-67252182D01*
X203813207Y-67186215D01*
X204006014Y-66977637D01*
X204008362Y-66975097D01*
X204125738Y-66816183D01*
X204218860Y-66690106D01*
X204218865Y-66690098D01*
X204220923Y-66687312D01*
X204243076Y-66649174D01*
X204398880Y-66380937D01*
X204400621Y-66377940D01*
X204545285Y-66050717D01*
X204653167Y-65709596D01*
X204662524Y-65662559D01*
X204722291Y-65362089D01*
X204722966Y-65358696D01*
X204725221Y-65332667D01*
X204753538Y-65005712D01*
X204753538Y-65005706D01*
X204753837Y-65002256D01*
X204749099Y-64801212D01*
X204745490Y-64648045D01*
X204745489Y-64648038D01*
X204745408Y-64644581D01*
X204697780Y-64289991D01*
X204648203Y-64090404D01*
X204612367Y-63946136D01*
X204612365Y-63946129D01*
X204611530Y-63942768D01*
X204487698Y-63607108D01*
X204396822Y-63425238D01*
X204329326Y-63290156D01*
X204329322Y-63290149D01*
X204327780Y-63287063D01*
X204133709Y-62986499D01*
X204004419Y-62827691D01*
X203910012Y-62711729D01*
X203910005Y-62711722D01*
X203907827Y-62709046D01*
X203862305Y-62664233D01*
X203756330Y-62559910D01*
X203652863Y-62458056D01*
X203371897Y-62236560D01*
X203068322Y-62047234D01*
X203065196Y-62045733D01*
X203065187Y-62045728D01*
X202895759Y-61964370D01*
X202745804Y-61892363D01*
X202649442Y-61858523D01*
X202411499Y-61774963D01*
X202411491Y-61774961D01*
X202408240Y-61773819D01*
X202404878Y-61773040D01*
X202404872Y-61773038D01*
X202192887Y-61723903D01*
X202059705Y-61693033D01*
X202056288Y-61692629D01*
X202056279Y-61692627D01*
X201707115Y-61651301D01*
X201707114Y-61651301D01*
X201704411Y-61650981D01*
X201701696Y-61650896D01*
X201701687Y-61650895D01*
X201676731Y-61650111D01*
X201657286Y-61649500D01*
X199410183Y-61649500D01*
X199408464Y-61649595D01*
X199408449Y-61649595D01*
X199266311Y-61657418D01*
X199142766Y-61664217D01*
X199139354Y-61664785D01*
X199139344Y-61664786D01*
X198896045Y-61705283D01*
X198789847Y-61722959D01*
X198445505Y-61820073D01*
X198113900Y-61954387D01*
X197979619Y-62026841D01*
X197802086Y-62122633D01*
X197802082Y-62122636D01*
X197799036Y-62124279D01*
X197796188Y-62126248D01*
X197796187Y-62126248D01*
X197507557Y-62325731D01*
X197507551Y-62325735D01*
X197504716Y-62327695D01*
X197234496Y-62562181D01*
X197232148Y-62564721D01*
X197232146Y-62564723D01*
X197098735Y-62709046D01*
X196991638Y-62824903D01*
X196989579Y-62827691D01*
X196781140Y-63109894D01*
X196781135Y-63109902D01*
X196779077Y-63112688D01*
X196599379Y-63422060D01*
X196454715Y-63749283D01*
X196346833Y-64090404D01*
X196346158Y-64093797D01*
X196346156Y-64093805D01*
X196343162Y-64108858D01*
X196277034Y-64441304D01*
X196276736Y-64444745D01*
X196276735Y-64444752D01*
X196246462Y-64794288D01*
X196246163Y-64797744D01*
X178160230Y-64797744D01*
X178178705Y-64728794D01*
X178209201Y-64536248D01*
X178235588Y-64369652D01*
X178235589Y-64369644D01*
X178236102Y-64366404D01*
X178255304Y-64000000D01*
X178236102Y-63633596D01*
X178219250Y-63527193D01*
X178194546Y-63371224D01*
X178178705Y-63271206D01*
X178083742Y-62916801D01*
X177952255Y-62574264D01*
X177944941Y-62559910D01*
X177787181Y-62250289D01*
X177787177Y-62250282D01*
X177785682Y-62247348D01*
X177780071Y-62238707D01*
X177587653Y-61942409D01*
X177585851Y-61939634D01*
X177354949Y-61654494D01*
X177095506Y-61395051D01*
X176810366Y-61164149D01*
X176502652Y-60964318D01*
X176499718Y-60962823D01*
X176499711Y-60962819D01*
X176178676Y-60799243D01*
X176175736Y-60797745D01*
X175833199Y-60666258D01*
X175478794Y-60571295D01*
X175286248Y-60540799D01*
X175119652Y-60514412D01*
X175119644Y-60514411D01*
X175116404Y-60513898D01*
X174750000Y-60494696D01*
X174383596Y-60513898D01*
X174380356Y-60514411D01*
X174380348Y-60514412D01*
X174213752Y-60540799D01*
X174021206Y-60571295D01*
X173666801Y-60666258D01*
X173324264Y-60797745D01*
X173321324Y-60799243D01*
X173000289Y-60962819D01*
X173000282Y-60962823D01*
X172997348Y-60964318D01*
X172689634Y-61164149D01*
X172404494Y-61395051D01*
X172145051Y-61654494D01*
X171914149Y-61939634D01*
X171912347Y-61942409D01*
X171719930Y-62238707D01*
X171714318Y-62247348D01*
X171712823Y-62250282D01*
X171712819Y-62250289D01*
X171555059Y-62559910D01*
X171547745Y-62574264D01*
X171416258Y-62916801D01*
X171321295Y-63271206D01*
X171305454Y-63371224D01*
X171280751Y-63527193D01*
X171263898Y-63633596D01*
X171244696Y-64000000D01*
X166851455Y-64000000D01*
X166845251Y-63736723D01*
X166796158Y-63371224D01*
X166707254Y-63013320D01*
X166579613Y-62667333D01*
X166414776Y-62337441D01*
X166407215Y-62325731D01*
X166216617Y-62030548D01*
X166216612Y-62030542D01*
X166214733Y-62027631D01*
X166104608Y-61892363D01*
X165984097Y-61744339D01*
X165984096Y-61744338D01*
X165981902Y-61741643D01*
X165979432Y-61739211D01*
X165979427Y-61739206D01*
X165721569Y-61485366D01*
X165721565Y-61485362D01*
X165719095Y-61482931D01*
X165429485Y-61254621D01*
X165116570Y-61059470D01*
X165113434Y-61057964D01*
X164787254Y-60901333D01*
X164787244Y-60901329D01*
X164784131Y-60899834D01*
X164436181Y-60777643D01*
X164076924Y-60694372D01*
X164073507Y-60693968D01*
X164073498Y-60693966D01*
X163713404Y-60651347D01*
X163713403Y-60651347D01*
X163710700Y-60651027D01*
X163707985Y-60650942D01*
X163707976Y-60650941D01*
X163682247Y-60650133D01*
X163662114Y-60649500D01*
X163407422Y-60649500D01*
X163405704Y-60649595D01*
X163405688Y-60649595D01*
X163259258Y-60657654D01*
X163131776Y-60664670D01*
X162768000Y-60725219D01*
X162413064Y-60825321D01*
X162071257Y-60963767D01*
X162068205Y-60965414D01*
X161749756Y-61137239D01*
X161749752Y-61137242D01*
X161746706Y-61138885D01*
X161743858Y-61140853D01*
X161743857Y-61140854D01*
X161581910Y-61252783D01*
X161443332Y-61348560D01*
X161440726Y-61350821D01*
X161440720Y-61350826D01*
X161187107Y-61570900D01*
X161164798Y-61590259D01*
X161162450Y-61592799D01*
X161162448Y-61592801D01*
X161096608Y-61664027D01*
X160914470Y-61861063D01*
X160845540Y-61954387D01*
X160720056Y-62124279D01*
X160695369Y-62157702D01*
X160693632Y-62160692D01*
X160693629Y-62160697D01*
X160644907Y-62244579D01*
X160510143Y-62476592D01*
X160508746Y-62479753D01*
X160508745Y-62479754D01*
X160468263Y-62571324D01*
X160361029Y-62813882D01*
X160359982Y-62817191D01*
X160359981Y-62817195D01*
X160265581Y-63115685D01*
X160249827Y-63165497D01*
X160177882Y-63527193D01*
X160177583Y-63530645D01*
X160158923Y-63746097D01*
X160146061Y-63894598D01*
X155749780Y-63894598D01*
X155736102Y-63633596D01*
X155719250Y-63527193D01*
X155694546Y-63371224D01*
X155678705Y-63271206D01*
X155583742Y-62916801D01*
X155452255Y-62574264D01*
X155444941Y-62559910D01*
X155287181Y-62250289D01*
X155287177Y-62250282D01*
X155285682Y-62247348D01*
X155280071Y-62238707D01*
X155087653Y-61942409D01*
X155085851Y-61939634D01*
X154854949Y-61654494D01*
X154595506Y-61395051D01*
X154310366Y-61164149D01*
X154002652Y-60964318D01*
X153999718Y-60962823D01*
X153999711Y-60962819D01*
X153678676Y-60799243D01*
X153675736Y-60797745D01*
X153333199Y-60666258D01*
X152978794Y-60571295D01*
X152786248Y-60540799D01*
X152619652Y-60514412D01*
X152619644Y-60514411D01*
X152616404Y-60513898D01*
X152250000Y-60494696D01*
X151883596Y-60513898D01*
X151880356Y-60514411D01*
X151880348Y-60514412D01*
X151713752Y-60540799D01*
X151521206Y-60571295D01*
X151166801Y-60666258D01*
X150824264Y-60797745D01*
X150821324Y-60799243D01*
X150500289Y-60962819D01*
X150500282Y-60962823D01*
X150497348Y-60964318D01*
X150189634Y-61164149D01*
X149904494Y-61395051D01*
X149645051Y-61654494D01*
X149414149Y-61939634D01*
X149412347Y-61942409D01*
X149219930Y-62238707D01*
X149214318Y-62247348D01*
X149212823Y-62250282D01*
X149212819Y-62250289D01*
X149055059Y-62559910D01*
X149047745Y-62574264D01*
X148916258Y-62916801D01*
X148821295Y-63271206D01*
X148805454Y-63371224D01*
X148780751Y-63527193D01*
X148763898Y-63633596D01*
X148744696Y-64000000D01*
X133000000Y-64000000D01*
X133000000Y-47488462D01*
X158944672Y-47488462D01*
X158944844Y-47491857D01*
X158944844Y-47491858D01*
X158955515Y-47702497D01*
X158962759Y-47845503D01*
X158963296Y-47848858D01*
X158963297Y-47848864D01*
X158974632Y-47919632D01*
X159019300Y-48198502D01*
X159113635Y-48543330D01*
X159244658Y-48875953D01*
X159246241Y-48878968D01*
X159409255Y-49189464D01*
X159409260Y-49189472D01*
X159410839Y-49192480D01*
X159610232Y-49489208D01*
X159840505Y-49762666D01*
X160098965Y-50009656D01*
X160255379Y-50129677D01*
X160370719Y-50218180D01*
X160382587Y-50227287D01*
X160385498Y-50229057D01*
X160385504Y-50229061D01*
X160521550Y-50311778D01*
X160688055Y-50413015D01*
X161011795Y-50564665D01*
X161015013Y-50565767D01*
X161015016Y-50565768D01*
X161346796Y-50679362D01*
X161346804Y-50679364D01*
X161350019Y-50680465D01*
X161698771Y-50759060D01*
X161747869Y-50764654D01*
X162050589Y-50799145D01*
X162050597Y-50799145D01*
X162053972Y-50799530D01*
X162057376Y-50799548D01*
X162057379Y-50799548D01*
X162251890Y-50800566D01*
X162411465Y-50801402D01*
X162414851Y-50801052D01*
X162414853Y-50801052D01*
X162763678Y-50765005D01*
X162763687Y-50765004D01*
X162767070Y-50764654D01*
X162770403Y-50763940D01*
X162770406Y-50763939D01*
X162878777Y-50740706D01*
X163116626Y-50689715D01*
X163456045Y-50577463D01*
X163781355Y-50429211D01*
X163979135Y-50311778D01*
X164085806Y-50248442D01*
X164085811Y-50248439D01*
X164088751Y-50246693D01*
X164114598Y-50227287D01*
X164251573Y-50124442D01*
X164374637Y-50032043D01*
X164635669Y-49787774D01*
X164868793Y-49516742D01*
X164889663Y-49486376D01*
X165069352Y-49224927D01*
X165069357Y-49224920D01*
X165071282Y-49222118D01*
X165072894Y-49219124D01*
X165072899Y-49219116D01*
X165215703Y-48953899D01*
X165228545Y-48930050D01*
X166449500Y-48930050D01*
X166450573Y-48957358D01*
X166451086Y-48960773D01*
X166451087Y-48960779D01*
X166490378Y-49222118D01*
X166492692Y-49237510D01*
X166573864Y-49508933D01*
X166575727Y-49512973D01*
X166575728Y-49512977D01*
X166687710Y-49755883D01*
X166692471Y-49766210D01*
X166846144Y-50004209D01*
X167031820Y-50218180D01*
X167245791Y-50403856D01*
X167483790Y-50557529D01*
X167487842Y-50559397D01*
X167737023Y-50674272D01*
X167737027Y-50674273D01*
X167741067Y-50676136D01*
X167788853Y-50690427D01*
X168008216Y-50756030D01*
X168008218Y-50756031D01*
X168012490Y-50757308D01*
X168016894Y-50757970D01*
X168016898Y-50757971D01*
X168289221Y-50798913D01*
X168289227Y-50798914D01*
X168292642Y-50799427D01*
X168296099Y-50799563D01*
X168296101Y-50799563D01*
X168302163Y-50799801D01*
X168319950Y-50800500D01*
X171180050Y-50800500D01*
X171197837Y-50799801D01*
X171203899Y-50799563D01*
X171203901Y-50799563D01*
X171207358Y-50799427D01*
X171210773Y-50798914D01*
X171210779Y-50798913D01*
X171483102Y-50757971D01*
X171483106Y-50757970D01*
X171487510Y-50757308D01*
X171491782Y-50756031D01*
X171491784Y-50756030D01*
X171711147Y-50690427D01*
X171758933Y-50676136D01*
X171762973Y-50674273D01*
X171762977Y-50674272D01*
X172012158Y-50559397D01*
X172016210Y-50557529D01*
X172254209Y-50403856D01*
X172468180Y-50218180D01*
X172653856Y-50004209D01*
X172764845Y-49832317D01*
X173996843Y-49832317D01*
X173996874Y-49834848D01*
X173999491Y-50049043D01*
X173999500Y-50050582D01*
X173999500Y-50124442D01*
X173999550Y-50125685D01*
X173999551Y-50125739D01*
X174000740Y-50155329D01*
X174000832Y-50158815D01*
X174002732Y-50314303D01*
X174002966Y-50316825D01*
X174010174Y-50394519D01*
X174010612Y-50401100D01*
X174013846Y-50481634D01*
X174025271Y-50576047D01*
X174032526Y-50635996D01*
X174032900Y-50639494D01*
X174043830Y-50757308D01*
X174047258Y-50794265D01*
X174048501Y-50801384D01*
X174061111Y-50873636D01*
X174062069Y-50880121D01*
X174071755Y-50960166D01*
X174072256Y-50962631D01*
X174072262Y-50962665D01*
X174102754Y-51112535D01*
X174103404Y-51115970D01*
X174130131Y-51269110D01*
X174150305Y-51347117D01*
X174151789Y-51353544D01*
X174167855Y-51432512D01*
X174168558Y-51434947D01*
X174168561Y-51434960D01*
X174210965Y-51581872D01*
X174211894Y-51585265D01*
X174241765Y-51700766D01*
X174250820Y-51735780D01*
X174251645Y-51738163D01*
X174251647Y-51738169D01*
X174277185Y-51811917D01*
X174279180Y-51818205D01*
X174301527Y-51895630D01*
X174302419Y-51897990D01*
X174356477Y-52041050D01*
X174357675Y-52044359D01*
X174408546Y-52191267D01*
X174409565Y-52193588D01*
X174440937Y-52265054D01*
X174443428Y-52271158D01*
X174471910Y-52346535D01*
X174494365Y-52394038D01*
X174538334Y-52487056D01*
X174539793Y-52490258D01*
X174601264Y-52630294D01*
X174601279Y-52630325D01*
X174602294Y-52632637D01*
X174603494Y-52634865D01*
X174603499Y-52634876D01*
X174640499Y-52703592D01*
X174643472Y-52709479D01*
X174677906Y-52782323D01*
X174679153Y-52784491D01*
X174679160Y-52784505D01*
X174755402Y-52917092D01*
X174757113Y-52920167D01*
X174830815Y-53057047D01*
X174832188Y-53059169D01*
X174874592Y-53124716D01*
X174878024Y-53130338D01*
X174918189Y-53200187D01*
X174919624Y-53202274D01*
X174919624Y-53202275D01*
X175006239Y-53328301D01*
X175008185Y-53331219D01*
X175092638Y-53461763D01*
X175141716Y-53525722D01*
X175145542Y-53530988D01*
X175191209Y-53597435D01*
X175192802Y-53599395D01*
X175289269Y-53718098D01*
X175291402Y-53720799D01*
X175386075Y-53844178D01*
X175387773Y-53846057D01*
X175440099Y-53903967D01*
X175444390Y-53908973D01*
X175495209Y-53971507D01*
X175602599Y-54083884D01*
X175604985Y-54086451D01*
X175647365Y-54133354D01*
X175702864Y-54188853D01*
X175704863Y-54190897D01*
X175828231Y-54319994D01*
X175830109Y-54321668D01*
X175830115Y-54321673D01*
X175878482Y-54364766D01*
X175883758Y-54369747D01*
X179607843Y-58093832D01*
X179613696Y-58100097D01*
X179636557Y-58126303D01*
X179638367Y-58128069D01*
X179791648Y-58277650D01*
X179792743Y-58278732D01*
X179844999Y-58330988D01*
X179845927Y-58331844D01*
X179867747Y-58351979D01*
X179870298Y-58354401D01*
X179981537Y-58462955D01*
X179983486Y-58464573D01*
X180043529Y-58514422D01*
X180048492Y-58518767D01*
X180107716Y-58573417D01*
X180228851Y-58668398D01*
X180230059Y-58669346D01*
X180232796Y-58671555D01*
X180350455Y-58769236D01*
X180350466Y-58769245D01*
X180352406Y-58770855D01*
X180354464Y-58772301D01*
X180354470Y-58772306D01*
X180418324Y-58817183D01*
X180423619Y-58821116D01*
X180485044Y-58869280D01*
X180485055Y-58869288D01*
X180487037Y-58870842D01*
X180489137Y-58872232D01*
X180489144Y-58872237D01*
X180557575Y-58917530D01*
X180616701Y-58956665D01*
X180619591Y-58958636D01*
X180744711Y-59046573D01*
X180744720Y-59046579D01*
X180746772Y-59048021D01*
X180748942Y-59049299D01*
X180748951Y-59049305D01*
X180816213Y-59088925D01*
X180821807Y-59092421D01*
X180888989Y-59136888D01*
X181025090Y-59212020D01*
X181028146Y-59213763D01*
X181159913Y-59291380D01*
X181159922Y-59291385D01*
X181162097Y-59292666D01*
X181164370Y-59293770D01*
X181164378Y-59293774D01*
X181234580Y-59327862D01*
X181240413Y-59330884D01*
X181310984Y-59369842D01*
X181384813Y-59403177D01*
X181452691Y-59433826D01*
X181455876Y-59435318D01*
X181595705Y-59503215D01*
X181598059Y-59504133D01*
X181598064Y-59504135D01*
X181670785Y-59532488D01*
X181676865Y-59535044D01*
X181747986Y-59567156D01*
X181747991Y-59567158D01*
X181750301Y-59568201D01*
X181752681Y-59569053D01*
X181752693Y-59569058D01*
X181896647Y-59620600D01*
X181899943Y-59621832D01*
X182042435Y-59677388D01*
X182042445Y-59677392D01*
X182044801Y-59678310D01*
X182047221Y-59679036D01*
X182047247Y-59679045D01*
X182121997Y-59701471D01*
X182128263Y-59703530D01*
X182204111Y-59730688D01*
X182206558Y-59731348D01*
X182206570Y-59731352D01*
X182354172Y-59771178D01*
X182357555Y-59772141D01*
X182506493Y-59816824D01*
X182508951Y-59817351D01*
X182508959Y-59817353D01*
X182547227Y-59825557D01*
X182585296Y-59833718D01*
X182591697Y-59835267D01*
X182667046Y-59855598D01*
X182667063Y-59855602D01*
X182669491Y-59856257D01*
X182671954Y-59856713D01*
X182671965Y-59856716D01*
X182822327Y-59884584D01*
X182825777Y-59885273D01*
X182977807Y-59917865D01*
X182980307Y-59918194D01*
X182980312Y-59918195D01*
X183057702Y-59928384D01*
X183064216Y-59929416D01*
X183140948Y-59943637D01*
X183140954Y-59943638D01*
X183143442Y-59944099D01*
X183145944Y-59944358D01*
X183145954Y-59944359D01*
X183298093Y-59960081D01*
X183301587Y-59960492D01*
X183453199Y-59980452D01*
X183455706Y-59980782D01*
X183458213Y-59980909D01*
X183458224Y-59980910D01*
X183526193Y-59984353D01*
X183536181Y-59984859D01*
X183542753Y-59985365D01*
X183550390Y-59986154D01*
X183620413Y-59993390D01*
X183620416Y-59993390D01*
X183622911Y-59993648D01*
X183625418Y-59993705D01*
X183625420Y-59993705D01*
X183662028Y-59994536D01*
X183778351Y-59997176D01*
X183781838Y-59997303D01*
X183844945Y-60000500D01*
X183923427Y-60000500D01*
X183926285Y-60000532D01*
X184102283Y-60004526D01*
X184102292Y-60004526D01*
X184104811Y-60004583D01*
X184171999Y-60000709D01*
X184179251Y-60000500D01*
X200624442Y-60000500D01*
X200822408Y-59992549D01*
X200979099Y-59986256D01*
X200979104Y-59986256D01*
X200981634Y-59986154D01*
X201327008Y-59944359D01*
X201457648Y-59928550D01*
X201457655Y-59928549D01*
X201460166Y-59928245D01*
X201462628Y-59927744D01*
X201462641Y-59927742D01*
X201739188Y-59871477D01*
X201932512Y-59832145D01*
X202281718Y-59731352D01*
X202393199Y-59699175D01*
X202393206Y-59699173D01*
X202395630Y-59698473D01*
X202846535Y-59528090D01*
X203282323Y-59322094D01*
X203284492Y-59320847D01*
X203284505Y-59320840D01*
X203606850Y-59135482D01*
X203700187Y-59081811D01*
X204097435Y-58808791D01*
X204471507Y-58504791D01*
X204819994Y-58171769D01*
X204858930Y-58128069D01*
X205138969Y-57813760D01*
X205138972Y-57813756D01*
X205140650Y-57811873D01*
X205431410Y-57427419D01*
X205690401Y-57020885D01*
X205915953Y-56594890D01*
X206106615Y-56152178D01*
X206261158Y-55695601D01*
X206378586Y-55228101D01*
X206458143Y-54752688D01*
X206499316Y-54272427D01*
X206501233Y-53906413D01*
X206501827Y-53792942D01*
X206501827Y-53792936D01*
X206501840Y-53790411D01*
X206477279Y-53463767D01*
X206465889Y-53312281D01*
X206465888Y-53312273D01*
X206465698Y-53309745D01*
X206391124Y-52833526D01*
X206278598Y-52364822D01*
X206273373Y-52348834D01*
X206129629Y-51909049D01*
X206129627Y-51909044D01*
X206128845Y-51906651D01*
X206089213Y-51811907D01*
X206042722Y-51700766D01*
X206034887Y-51630203D01*
X206066444Y-51566606D01*
X206109224Y-51536374D01*
X206175993Y-51507688D01*
X206175995Y-51507687D01*
X206178567Y-51506582D01*
X206570551Y-51295078D01*
X206942183Y-51049567D01*
X207290518Y-50771992D01*
X207612800Y-50464550D01*
X207614637Y-50462456D01*
X207614645Y-50462447D01*
X207904629Y-50131783D01*
X207906476Y-50129677D01*
X207910301Y-50124442D01*
X208048968Y-49934630D01*
X208169221Y-49770024D01*
X208170656Y-49767641D01*
X208170663Y-49767630D01*
X208397514Y-49390829D01*
X208397515Y-49390827D01*
X208398954Y-49388437D01*
X208593857Y-48987940D01*
X208752387Y-48571702D01*
X208873288Y-48143019D01*
X208923971Y-47873500D01*
X208955087Y-47708033D01*
X208955088Y-47708025D01*
X208955603Y-47705287D01*
X208973134Y-47524873D01*
X208998465Y-47264187D01*
X208998466Y-47264175D01*
X208998680Y-47261970D01*
X209005540Y-47000000D01*
X208985723Y-46555036D01*
X208975020Y-46475347D01*
X208926851Y-46116730D01*
X208926430Y-46113595D01*
X208925743Y-46110556D01*
X208847981Y-45766898D01*
X208828131Y-45679173D01*
X208691602Y-45255209D01*
X208682533Y-45233790D01*
X208519017Y-44847633D01*
X208519016Y-44847632D01*
X208517927Y-44845059D01*
X208484232Y-44781820D01*
X208309787Y-44454428D01*
X208308479Y-44451973D01*
X208306958Y-44449644D01*
X208066441Y-44081394D01*
X208066438Y-44081390D01*
X208064917Y-44079061D01*
X207981822Y-43973655D01*
X207790898Y-43731470D01*
X207790896Y-43731468D01*
X207789169Y-43729277D01*
X207483419Y-43405390D01*
X207481328Y-43403537D01*
X207481320Y-43403529D01*
X207152188Y-43111826D01*
X207152186Y-43111824D01*
X207150088Y-43109965D01*
X206791815Y-42845340D01*
X206411437Y-42613612D01*
X206408923Y-42612372D01*
X206408919Y-42612370D01*
X206014471Y-42417849D01*
X206014465Y-42417846D01*
X206011966Y-42416614D01*
X205596564Y-42255907D01*
X205339762Y-42182028D01*
X205171201Y-42133534D01*
X205171195Y-42133533D01*
X205168520Y-42132763D01*
X205165784Y-42132234D01*
X205165777Y-42132232D01*
X204922842Y-42085231D01*
X204731224Y-42048158D01*
X204288139Y-42002760D01*
X204285349Y-42002723D01*
X204285341Y-42002723D01*
X204006864Y-41999078D01*
X203842772Y-41996930D01*
X203839972Y-41997143D01*
X203839971Y-41997143D01*
X203401437Y-42030501D01*
X203398650Y-42030713D01*
X202959290Y-42103843D01*
X202868982Y-42127282D01*
X202530887Y-42215034D01*
X202530876Y-42215037D01*
X202528169Y-42215740D01*
X202525533Y-42216681D01*
X202525524Y-42216684D01*
X202111352Y-42364572D01*
X202108703Y-42365518D01*
X201704211Y-42551991D01*
X201701788Y-42553381D01*
X201701785Y-42553383D01*
X201613206Y-42604216D01*
X201317898Y-42773683D01*
X201315595Y-42775292D01*
X201315588Y-42775297D01*
X200955129Y-43027224D01*
X200952820Y-43028838D01*
X200611870Y-43315437D01*
X200297747Y-43631209D01*
X200012938Y-43973655D01*
X200011344Y-43975962D01*
X200011342Y-43975964D01*
X199769605Y-44325728D01*
X199759697Y-44340063D01*
X199540031Y-44727532D01*
X199538872Y-44730081D01*
X199538870Y-44730085D01*
X199428274Y-44973329D01*
X199355679Y-45132995D01*
X199354747Y-45135650D01*
X199354745Y-45135654D01*
X199210209Y-45547231D01*
X199208099Y-45553240D01*
X199098461Y-45984940D01*
X199098018Y-45987690D01*
X199098016Y-45987700D01*
X199028079Y-46421906D01*
X199027633Y-46424677D01*
X199027435Y-46427478D01*
X199027434Y-46427484D01*
X199001512Y-46793598D01*
X198996175Y-46868970D01*
X199004337Y-47314300D01*
X199052054Y-47757142D01*
X199070310Y-47848920D01*
X199063982Y-47919632D01*
X199020428Y-47975700D01*
X198946731Y-47999500D01*
X190926500Y-47999500D01*
X190858379Y-47979498D01*
X190811886Y-47925842D01*
X190800500Y-47873500D01*
X190800500Y-46069950D01*
X190799427Y-46042642D01*
X190794363Y-46008954D01*
X190757971Y-45766898D01*
X190757970Y-45766894D01*
X190757308Y-45762490D01*
X190676136Y-45491067D01*
X190557529Y-45233790D01*
X190554396Y-45228937D01*
X190406274Y-44999536D01*
X190403856Y-44995791D01*
X190218180Y-44781820D01*
X190004209Y-44596144D01*
X189766210Y-44442471D01*
X189739384Y-44430104D01*
X189512977Y-44325728D01*
X189512973Y-44325727D01*
X189508933Y-44323864D01*
X189251153Y-44246772D01*
X189241784Y-44243970D01*
X189241782Y-44243969D01*
X189237510Y-44242692D01*
X189233106Y-44242030D01*
X189233102Y-44242029D01*
X188960779Y-44201087D01*
X188960773Y-44201086D01*
X188957358Y-44200573D01*
X188953901Y-44200437D01*
X188953899Y-44200437D01*
X188947837Y-44200199D01*
X188930050Y-44199500D01*
X186069950Y-44199500D01*
X186052163Y-44200199D01*
X186046101Y-44200437D01*
X186046099Y-44200437D01*
X186042642Y-44200573D01*
X186039227Y-44201086D01*
X186039221Y-44201087D01*
X185766898Y-44242029D01*
X185766894Y-44242030D01*
X185762490Y-44242692D01*
X185758218Y-44243969D01*
X185758216Y-44243970D01*
X185748847Y-44246772D01*
X185491067Y-44323864D01*
X185487027Y-44325727D01*
X185487023Y-44325728D01*
X185283077Y-44419749D01*
X185212840Y-44430104D01*
X185148154Y-44400842D01*
X185121097Y-44368133D01*
X185104956Y-44340063D01*
X185081811Y-44299813D01*
X184808791Y-43902565D01*
X184504791Y-43528493D01*
X184171769Y-43180006D01*
X184125035Y-43138367D01*
X183813760Y-42861031D01*
X183813756Y-42861028D01*
X183811873Y-42859350D01*
X183795555Y-42847009D01*
X183429425Y-42570107D01*
X183429423Y-42570106D01*
X183427419Y-42568590D01*
X183401364Y-42551991D01*
X183023011Y-42310953D01*
X183023004Y-42310949D01*
X183020885Y-42309599D01*
X182594890Y-42084047D01*
X182152178Y-41893385D01*
X181695601Y-41738842D01*
X181693141Y-41738224D01*
X181230554Y-41622030D01*
X181230550Y-41622029D01*
X181228101Y-41621414D01*
X181225607Y-41620997D01*
X181225604Y-41620996D01*
X181075227Y-41595832D01*
X180752688Y-41541857D01*
X180272427Y-41500684D01*
X180015318Y-41499338D01*
X179792942Y-41498173D01*
X179792936Y-41498173D01*
X179790411Y-41498160D01*
X179640288Y-41509448D01*
X179312281Y-41534111D01*
X179312273Y-41534112D01*
X179309745Y-41534302D01*
X178833526Y-41608876D01*
X178364822Y-41721402D01*
X178362432Y-41722183D01*
X178362422Y-41722186D01*
X177909049Y-41870371D01*
X177909044Y-41870373D01*
X177906651Y-41871155D01*
X177461967Y-42057170D01*
X177314015Y-42133534D01*
X177076922Y-42255907D01*
X177033633Y-42278250D01*
X176809357Y-42417849D01*
X176626558Y-42531631D01*
X176626552Y-42531635D01*
X176624409Y-42532969D01*
X176513451Y-42615074D01*
X176296922Y-42775297D01*
X176236932Y-42819687D01*
X176235036Y-42821341D01*
X176235031Y-42821345D01*
X176207525Y-42845340D01*
X175873697Y-43136557D01*
X175537045Y-43481537D01*
X175229145Y-43852406D01*
X175227699Y-43854464D01*
X175227694Y-43854470D01*
X175069849Y-44079061D01*
X174951979Y-44246772D01*
X174950697Y-44248949D01*
X174950696Y-44248950D01*
X174744463Y-44599065D01*
X174707334Y-44662097D01*
X174706230Y-44664370D01*
X174706226Y-44664378D01*
X174497892Y-45093424D01*
X174497887Y-45093436D01*
X174496785Y-45095705D01*
X174447093Y-45223159D01*
X174339550Y-45498993D01*
X174321690Y-45544801D01*
X174183176Y-46006493D01*
X174182650Y-46008944D01*
X174182648Y-46008954D01*
X174089012Y-46445728D01*
X174082135Y-46477807D01*
X174019218Y-46955706D01*
X174019091Y-46958220D01*
X174019090Y-46958227D01*
X174000912Y-47317075D01*
X173999500Y-47344945D01*
X173999500Y-49789056D01*
X173999208Y-49797626D01*
X173996843Y-49832317D01*
X172764845Y-49832317D01*
X172807529Y-49766210D01*
X172812290Y-49755883D01*
X172924272Y-49512977D01*
X172924273Y-49512973D01*
X172926136Y-49508933D01*
X173007308Y-49237510D01*
X173009622Y-49222118D01*
X173048913Y-48960779D01*
X173048914Y-48960773D01*
X173049427Y-48957358D01*
X173050500Y-48930050D01*
X173050500Y-46069950D01*
X173049427Y-46042642D01*
X173044363Y-46008954D01*
X173007971Y-45766898D01*
X173007970Y-45766894D01*
X173007308Y-45762490D01*
X172926136Y-45491067D01*
X172807529Y-45233790D01*
X172804396Y-45228937D01*
X172656274Y-44999536D01*
X172653856Y-44995791D01*
X172468180Y-44781820D01*
X172254209Y-44596144D01*
X172016210Y-44442471D01*
X171989384Y-44430104D01*
X171762977Y-44325728D01*
X171762973Y-44325727D01*
X171758933Y-44323864D01*
X171501153Y-44246772D01*
X171491784Y-44243970D01*
X171491782Y-44243969D01*
X171487510Y-44242692D01*
X171483106Y-44242030D01*
X171483102Y-44242029D01*
X171210779Y-44201087D01*
X171210773Y-44201086D01*
X171207358Y-44200573D01*
X171203901Y-44200437D01*
X171203899Y-44200437D01*
X171197837Y-44200199D01*
X171180050Y-44199500D01*
X168319950Y-44199500D01*
X168302163Y-44200199D01*
X168296101Y-44200437D01*
X168296099Y-44200437D01*
X168292642Y-44200573D01*
X168289227Y-44201086D01*
X168289221Y-44201087D01*
X168016898Y-44242029D01*
X168016894Y-44242030D01*
X168012490Y-44242692D01*
X168008218Y-44243969D01*
X168008216Y-44243970D01*
X167998847Y-44246772D01*
X167741067Y-44323864D01*
X167737027Y-44325727D01*
X167737023Y-44325728D01*
X167510616Y-44430104D01*
X167483790Y-44442471D01*
X167245791Y-44596144D01*
X167031820Y-44781820D01*
X166846144Y-44995791D01*
X166843726Y-44999536D01*
X166695605Y-45228937D01*
X166692471Y-45233790D01*
X166573864Y-45491067D01*
X166492692Y-45762490D01*
X166492030Y-45766894D01*
X166492029Y-45766898D01*
X166455638Y-46008954D01*
X166450573Y-46042642D01*
X166449500Y-46069950D01*
X166449500Y-48930050D01*
X165228545Y-48930050D01*
X165240768Y-48907349D01*
X165375268Y-48576116D01*
X165376526Y-48571702D01*
X165472274Y-48235573D01*
X165473208Y-48232295D01*
X165533443Y-47879907D01*
X165535339Y-47848918D01*
X165555157Y-47524873D01*
X165555267Y-47523075D01*
X165555348Y-47500000D01*
X165536015Y-47143025D01*
X165478242Y-46790225D01*
X165382704Y-46445728D01*
X165379659Y-46438075D01*
X165251780Y-46116730D01*
X165251776Y-46116722D01*
X165250520Y-46113565D01*
X165244979Y-46103100D01*
X165084831Y-45800632D01*
X165084829Y-45800629D01*
X165083236Y-45797620D01*
X165038820Y-45732018D01*
X164884719Y-45504411D01*
X164884719Y-45504410D01*
X164882809Y-45501590D01*
X164651582Y-45228937D01*
X164392262Y-44982851D01*
X164389555Y-44980789D01*
X164389547Y-44980782D01*
X164211384Y-44845059D01*
X164107881Y-44766211D01*
X163801767Y-44581551D01*
X163787058Y-44574723D01*
X163480581Y-44432461D01*
X163480579Y-44432460D01*
X163477500Y-44431031D01*
X163474288Y-44429944D01*
X163474281Y-44429941D01*
X163142110Y-44317508D01*
X163142105Y-44317506D01*
X163138874Y-44316413D01*
X162789849Y-44239036D01*
X162664473Y-44225194D01*
X162437890Y-44200179D01*
X162437885Y-44200179D01*
X162434509Y-44199806D01*
X162431110Y-44199800D01*
X162431109Y-44199800D01*
X162259197Y-44199500D01*
X162077011Y-44199182D01*
X161943770Y-44213421D01*
X161724921Y-44236809D01*
X161724915Y-44236810D01*
X161721537Y-44237171D01*
X161372245Y-44313329D01*
X161033220Y-44426765D01*
X161030127Y-44428187D01*
X161030126Y-44428188D01*
X160978414Y-44451973D01*
X160708430Y-44576152D01*
X160705496Y-44577908D01*
X160705494Y-44577909D01*
X160699409Y-44581551D01*
X160401673Y-44759742D01*
X160116538Y-44975388D01*
X159856360Y-45220567D01*
X159854148Y-45223157D01*
X159854146Y-45223159D01*
X159795621Y-45291683D01*
X159624183Y-45492411D01*
X159622264Y-45495224D01*
X159622261Y-45495228D01*
X159494922Y-45681901D01*
X159422723Y-45787740D01*
X159421116Y-45790750D01*
X159421114Y-45790753D01*
X159272700Y-46068709D01*
X159254337Y-46103100D01*
X159120995Y-46434800D01*
X159120076Y-46438068D01*
X159120074Y-46438075D01*
X159025176Y-46775683D01*
X159024255Y-46778961D01*
X158965251Y-47131556D01*
X158944672Y-47488462D01*
X133000000Y-47488462D01*
X133000000Y-41730221D01*
X133020002Y-41662100D01*
X133073658Y-41615607D01*
X133143932Y-41605503D01*
X133175229Y-41614236D01*
X133429750Y-41722274D01*
X133432459Y-41723144D01*
X133432465Y-41723146D01*
X133816162Y-41846338D01*
X133816167Y-41846339D01*
X133818888Y-41847213D01*
X134217748Y-41936369D01*
X134623047Y-41989008D01*
X135031449Y-42004697D01*
X135034311Y-42004547D01*
X135034312Y-42004547D01*
X135436736Y-41983457D01*
X135436743Y-41983456D01*
X135439592Y-41983307D01*
X135442415Y-41982900D01*
X135442417Y-41982900D01*
X135841295Y-41925421D01*
X135841302Y-41925420D01*
X135844117Y-41925014D01*
X136241693Y-41830298D01*
X136244391Y-41829390D01*
X136244398Y-41829388D01*
X136626337Y-41700852D01*
X136626343Y-41700850D01*
X136629049Y-41699939D01*
X137002996Y-41535009D01*
X137069450Y-41498173D01*
X137357949Y-41338254D01*
X137360455Y-41336865D01*
X137698486Y-41107140D01*
X138014304Y-40847724D01*
X138016341Y-40845715D01*
X138016349Y-40845708D01*
X138258815Y-40606603D01*
X138305311Y-40560752D01*
X138525407Y-40300304D01*
X138567266Y-40250771D01*
X138567271Y-40250765D01*
X138569112Y-40248586D01*
X138803534Y-39913796D01*
X139006649Y-39559138D01*
X139176784Y-39187530D01*
X139290437Y-38864798D01*
X139311589Y-38804733D01*
X139311590Y-38804729D01*
X139312540Y-38802032D01*
X139412797Y-38405817D01*
X139476733Y-38002146D01*
X139499988Y-37652017D01*
X139503703Y-37596092D01*
X139503703Y-37596084D01*
X139503819Y-37594342D01*
X139504807Y-37500000D01*
X139486267Y-37091718D01*
X139479674Y-37043583D01*
X139431187Y-36689623D01*
X139430800Y-36686796D01*
X139338861Y-36288568D01*
X139337973Y-36285866D01*
X139337964Y-36285835D01*
X139298351Y-36165354D01*
X139296075Y-36094394D01*
X139332525Y-36033469D01*
X139396128Y-36001921D01*
X139418047Y-36000000D01*
X208081731Y-36000000D01*
X208149852Y-36020002D01*
G37*
%TD.AperFunction*%
%TD*%
M02*
