%TF.GenerationSoftware,KiCad,Pcbnew,(6.0.2)*%
%TF.CreationDate,2022-12-18T20:59:20+03:00*%
%TF.ProjectId,buck,6275636b-2e6b-4696-9361-645f70636258,rev?*%
%TF.SameCoordinates,Original*%
%TF.FileFunction,Soldermask,Bot*%
%TF.FilePolarity,Negative*%
%FSLAX46Y46*%
G04 Gerber Fmt 4.6, Leading zero omitted, Abs format (unit mm)*
G04 Created by KiCad (PCBNEW (6.0.2)) date 2022-12-18 20:59:20*
%MOMM*%
%LPD*%
G01*
G04 APERTURE LIST*
%ADD10C,6.000000*%
%ADD11C,1.400000*%
%ADD12O,1.400000X1.400000*%
%ADD13R,1.600000X1.600000*%
%ADD14O,1.600000X1.600000*%
%ADD15R,1.700000X1.700000*%
%ADD16O,1.700000X1.700000*%
%ADD17C,2.700000*%
%ADD18C,3.000000*%
%ADD19R,4.500000X2.500000*%
%ADD20O,4.500000X2.500000*%
%ADD21R,4.000000X4.000000*%
%ADD22C,4.000000*%
%ADD23R,2.600000X2.600000*%
%ADD24C,2.600000*%
%ADD25C,1.600000*%
%ADD26C,1.524000*%
G04 APERTURE END LIST*
D10*
%TO.C,REF\u002A\u002A*%
X204000000Y-72400000D03*
X204000000Y-47000000D03*
%TD*%
D11*
%TO.C,R1*%
X186808500Y-122808500D03*
D12*
X179188500Y-122808500D03*
%TD*%
D13*
%TO.C,U1*%
X182008500Y-112608500D03*
D14*
X184548500Y-112608500D03*
X187088500Y-112608500D03*
X189628500Y-112608500D03*
X189628500Y-104988500D03*
X187088500Y-104988500D03*
X184548500Y-104988500D03*
X182008500Y-104988500D03*
%TD*%
D15*
%TO.C,J2*%
X169558500Y-120058500D03*
D16*
X169558500Y-122598500D03*
X169558500Y-125138500D03*
X169558500Y-127678500D03*
X169558500Y-130218500D03*
X169558500Y-132758500D03*
%TD*%
D17*
%TO.C,F1*%
X163500000Y-64000000D03*
D18*
X152250000Y-64000000D03*
X174750000Y-64000000D03*
%TD*%
D19*
%TO.C,D1*%
X200500000Y-54000000D03*
D20*
X200500000Y-64900000D03*
%TD*%
D15*
%TO.C,J3*%
X190808500Y-122348500D03*
D16*
X190808500Y-119808500D03*
%TD*%
D15*
%TO.C,J1*%
X174558500Y-120058500D03*
D16*
X174558500Y-122598500D03*
X174558500Y-125138500D03*
X174558500Y-127678500D03*
X174558500Y-130218500D03*
X174558500Y-132758500D03*
%TD*%
D12*
%TO.C,R2*%
X185000000Y-92690000D03*
D11*
X185000000Y-100310000D03*
%TD*%
D21*
%TO.C,C1*%
X148069501Y-97750000D03*
D22*
X158069501Y-97750000D03*
%TD*%
D23*
%TO.C,J5*%
X187500000Y-47500000D03*
D24*
X180000000Y-47500000D03*
%TD*%
D23*
%TO.C,J4*%
X147000000Y-126750000D03*
D24*
X154500000Y-126750000D03*
%TD*%
D10*
%TO.C,REF\u002A\u002A*%
X204000000Y-111200000D03*
X204000000Y-85800000D03*
%TD*%
D25*
%TO.C,C2*%
X154250000Y-75250000D03*
X159250000Y-75250000D03*
%TD*%
D23*
%TO.C,J6*%
X169750000Y-47500000D03*
D24*
X162250000Y-47500000D03*
%TD*%
D15*
%TO.C,PS1*%
X176441500Y-111441500D03*
D26*
X176441500Y-108901500D03*
X176441500Y-106361500D03*
X176441500Y-103821500D03*
%TD*%
D19*
%TO.C,Q1*%
X200180000Y-93050000D03*
D20*
X200180000Y-98500000D03*
X200180000Y-103950000D03*
%TD*%
M02*
