M48
; DRILL file {KiCad (6.0.2)} date Mon Dec 19 21:18:41 2022
; FORMAT={-:-/ absolute / inch / decimal}
; #@! TF.CreationDate,2022-12-19T21:18:41+03:00
; #@! TF.GenerationSoftware,Kicad,Pcbnew,(6.0.2)
; #@! TF.FileFunction,Plated,1,2,PTH
FMAT,2
INCH
; #@! TA.AperFunction,Plated,PTH,ComponentDrill
T1C0.0276
; #@! TA.AperFunction,Plated,PTH,ComponentDrill
T2C0.0300
; #@! TA.AperFunction,Plated,PTH,ComponentDrill
T3C0.0315
; #@! TA.AperFunction,Plated,PTH,ComponentDrill
T4C0.0394
; #@! TA.AperFunction,Plated,PTH,ComponentDrill
T5C0.0512
; #@! TA.AperFunction,Plated,PTH,ComponentDrill
T6C0.0551
; #@! TA.AperFunction,Plated,PTH,ComponentDrill
T7C0.0591
; #@! TA.AperFunction,Plated,PTH,ComponentDrill
T8C0.0787
; #@! TA.AperFunction,Plated,PTH,ComponentDrill
T9C0.1378
%
G90
G05
T1
X7.0547Y-4.835
X7.2835Y-3.6492
X7.2835Y-3.9492
X7.3547Y-4.835
T2
X6.9465Y-4.0875
X6.9465Y-4.1875
X6.9465Y-4.2875
T3
X6.0728Y-2.9626
X6.2697Y-2.9626
X7.1657Y-4.1334
X7.1657Y-4.4334
X7.2657Y-4.1334
X7.2657Y-4.4334
X7.3657Y-4.1334
X7.3657Y-4.4334
X7.4657Y-4.1334
X7.4657Y-4.4334
T4
X6.6755Y-4.7267
X6.6755Y-4.8267
X6.6755Y-4.9267
X6.6755Y-5.0267
X6.6755Y-5.1267
X6.6755Y-5.2267
X6.8724Y-4.7267
X6.8724Y-4.8267
X6.8724Y-4.9267
X6.8724Y-5.0267
X6.8724Y-5.1267
X6.8724Y-5.2267
X6.9465Y-4.3875
X7.5121Y-4.7169
X7.5121Y-4.8169
T5
X5.9941Y-2.5197
X6.8799Y-2.5197
T6
X5.7874Y-4.9902
X6.0827Y-4.9902
X6.3878Y-1.8701
X6.6831Y-1.8701
X7.0866Y-1.8701
X7.3819Y-1.8701
T7
X7.8811Y-3.6634
X7.8811Y-3.878
X7.8811Y-4.0925
X7.8937Y-2.126
X7.8937Y-2.5551
T8
X5.8295Y-3.8484
X6.2232Y-3.8484
T9
X8.0315Y-1.8504
X8.0315Y-2.8504
X8.0315Y-3.378
X8.0315Y-4.378
T0
M30
