%TF.GenerationSoftware,KiCad,Pcbnew,(6.0.2)*%
%TF.CreationDate,2022-12-31T16:06:53+03:00*%
%TF.ProjectId,mcuPower,6d637550-6f77-4657-922e-6b696361645f,rev?*%
%TF.SameCoordinates,Original*%
%TF.FileFunction,Copper,L2,Bot*%
%TF.FilePolarity,Positive*%
%FSLAX46Y46*%
G04 Gerber Fmt 4.6, Leading zero omitted, Abs format (unit mm)*
G04 Created by KiCad (PCBNEW (6.0.2)) date 2022-12-31 16:06:53*
%MOMM*%
%LPD*%
G01*
G04 APERTURE LIST*
%TA.AperFunction,ComponentPad*%
%ADD10R,2.000000X2.000000*%
%TD*%
%TA.AperFunction,ComponentPad*%
%ADD11C,2.000000*%
%TD*%
%TA.AperFunction,ComponentPad*%
%ADD12R,2.500000X2.500000*%
%TD*%
%TA.AperFunction,ComponentPad*%
%ADD13C,2.500000*%
%TD*%
%TA.AperFunction,ComponentPad*%
%ADD14C,3.000000*%
%TD*%
%TA.AperFunction,ComponentPad*%
%ADD15R,2.400000X2.400000*%
%TD*%
%TA.AperFunction,ComponentPad*%
%ADD16C,2.400000*%
%TD*%
%TA.AperFunction,ComponentPad*%
%ADD17C,1.600000*%
%TD*%
%TA.AperFunction,ComponentPad*%
%ADD18R,2.600000X2.600000*%
%TD*%
%TA.AperFunction,ComponentPad*%
%ADD19C,2.600000*%
%TD*%
G04 APERTURE END LIST*
D10*
%TO.P,D1,1,+*%
%TO.N,VCC*%
X124042500Y-107957500D03*
D11*
%TO.P,D1,2*%
%TO.N,Net-(D1-Pad2)*%
X124042500Y-100457500D03*
%TO.P,D1,3*%
%TO.N,Net-(D1-Pad3)*%
X124042500Y-92957500D03*
%TO.P,D1,4,-*%
%TO.N,GND*%
X124042500Y-82957500D03*
%TD*%
D12*
%TO.P,J3,1,Pin_1*%
%TO.N,VCC*%
X143045000Y-132500000D03*
D13*
%TO.P,J3,2,Pin_2*%
%TO.N,GND*%
X137965000Y-132500000D03*
%TD*%
D14*
%TO.P,T1,1,AA*%
%TO.N,Net-(F1-Pad2)*%
X76000000Y-112000000D03*
%TO.P,T1,2*%
%TO.N,N/C*%
X76000000Y-107000000D03*
%TO.P,T1,3*%
X76000000Y-102000000D03*
%TO.P,T1,4*%
X76000000Y-97000000D03*
%TO.P,T1,5*%
X76000000Y-92000000D03*
%TO.P,T1,6*%
X76000000Y-87000000D03*
%TO.P,T1,7,AB*%
%TO.N,Net-(J1-Pad2)*%
X76000000Y-82000000D03*
%TO.P,T1,8*%
%TO.N,N/C*%
X106000000Y-82000000D03*
%TO.P,T1,9*%
X106000000Y-87000000D03*
%TO.P,T1,10,SB*%
%TO.N,Net-(D1-Pad3)*%
X106000000Y-92000000D03*
%TO.P,T1,11*%
%TO.N,N/C*%
X106000000Y-97000000D03*
%TO.P,T1,12,SA*%
%TO.N,Net-(D1-Pad2)*%
X106000000Y-102000000D03*
%TO.P,T1,13*%
%TO.N,N/C*%
X106000000Y-107000000D03*
%TO.P,T1,14*%
X106000000Y-112000000D03*
%TD*%
D15*
%TO.P,C2,1*%
%TO.N,VCC*%
X144012755Y-85500000D03*
D16*
%TO.P,C2,2*%
%TO.N,GND*%
X136512755Y-85500000D03*
%TD*%
D17*
%TO.P,C3,2*%
%TO.N,GND*%
X138000000Y-70000000D03*
%TO.P,C3,1*%
%TO.N,VCC*%
X143000000Y-70000000D03*
%TD*%
D12*
%TO.P,J2,1,Pin_1*%
%TO.N,VCC*%
X143080000Y-59000000D03*
D13*
%TO.P,J2,2,Pin_2*%
%TO.N,GND*%
X138000000Y-59000000D03*
%TD*%
D18*
%TO.P,J1,1,Pin_1*%
%TO.N,Net-(F1-Pad1)*%
X55250000Y-78500000D03*
D19*
%TO.P,J1,2,Pin_2*%
%TO.N,Net-(J1-Pad2)*%
X55250000Y-71000000D03*
%TD*%
D15*
%TO.P,C1,1*%
%TO.N,VCC*%
X144012755Y-106000000D03*
D16*
%TO.P,C1,2*%
%TO.N,GND*%
X136512755Y-106000000D03*
%TD*%
D17*
%TO.P,C4,1*%
%TO.N,VCC*%
X143000000Y-121500000D03*
%TO.P,C4,2*%
%TO.N,GND*%
X138000000Y-121500000D03*
%TD*%
D14*
%TO.P,F1,1*%
%TO.N,Net-(F1-Pad1)*%
X55000000Y-90250000D03*
%TO.P,F1,2*%
%TO.N,Net-(F1-Pad2)*%
X55000000Y-112750000D03*
%TD*%
%TA.AperFunction,Conductor*%
%TO.N,GND*%
G36*
X152370870Y-51023677D02*
G01*
X152389795Y-51037276D01*
X152392968Y-51039042D01*
X152392971Y-51039044D01*
X152435278Y-51062592D01*
X152485072Y-51113198D01*
X152500000Y-51172687D01*
X152500000Y-139829727D01*
X152479998Y-139897848D01*
X152440957Y-139936464D01*
X152370379Y-139980738D01*
X152303424Y-140000000D01*
X121126000Y-140000000D01*
X121057879Y-139979998D01*
X121011386Y-139926342D01*
X121000000Y-139874000D01*
X121000000Y-133807816D01*
X140794500Y-133807816D01*
X140805234Y-133928087D01*
X140861259Y-134123470D01*
X140955427Y-134303596D01*
X141083891Y-134461109D01*
X141241404Y-134589573D01*
X141421530Y-134683741D01*
X141616913Y-134739766D01*
X141648545Y-134742589D01*
X141734391Y-134750251D01*
X141734397Y-134750251D01*
X141737184Y-134750500D01*
X144352816Y-134750500D01*
X144355603Y-134750251D01*
X144355609Y-134750251D01*
X144441455Y-134742589D01*
X144473087Y-134739766D01*
X144668470Y-134683741D01*
X144848596Y-134589573D01*
X145006109Y-134461109D01*
X145134573Y-134303596D01*
X145228741Y-134123470D01*
X145284766Y-133928087D01*
X145295500Y-133807816D01*
X145295500Y-131192184D01*
X145284766Y-131071913D01*
X145228741Y-130876530D01*
X145134573Y-130696404D01*
X145006109Y-130538891D01*
X144848596Y-130410427D01*
X144668470Y-130316259D01*
X144473087Y-130260234D01*
X144441455Y-130257411D01*
X144355609Y-130249749D01*
X144355603Y-130249749D01*
X144352816Y-130249500D01*
X141737184Y-130249500D01*
X141734397Y-130249749D01*
X141734391Y-130249749D01*
X141648545Y-130257411D01*
X141616913Y-130260234D01*
X141421530Y-130316259D01*
X141241404Y-130410427D01*
X141083891Y-130538891D01*
X140955427Y-130696404D01*
X140861259Y-130876530D01*
X140805234Y-131071913D01*
X140794500Y-131192184D01*
X140794500Y-133807816D01*
X121000000Y-133807816D01*
X121000000Y-121452736D01*
X141195070Y-121452736D01*
X141207909Y-121720041D01*
X141260118Y-121982512D01*
X141350549Y-122234383D01*
X141352765Y-122238507D01*
X141420982Y-122365465D01*
X141477215Y-122470121D01*
X141480010Y-122473864D01*
X141480012Y-122473867D01*
X141564199Y-122586607D01*
X141637335Y-122684547D01*
X141640642Y-122687825D01*
X141640647Y-122687831D01*
X141824074Y-122869663D01*
X141827390Y-122872950D01*
X142043205Y-123031192D01*
X142047340Y-123033368D01*
X142047344Y-123033370D01*
X142176918Y-123101542D01*
X142280039Y-123155797D01*
X142284458Y-123157340D01*
X142528273Y-123242484D01*
X142528279Y-123242486D01*
X142532690Y-123244026D01*
X142795606Y-123293943D01*
X142922616Y-123298933D01*
X143058345Y-123304266D01*
X143058350Y-123304266D01*
X143063013Y-123304449D01*
X143158943Y-123293943D01*
X143324382Y-123275825D01*
X143324387Y-123275824D01*
X143329035Y-123275315D01*
X143444567Y-123244898D01*
X143583309Y-123208370D01*
X143587829Y-123207180D01*
X143712501Y-123153617D01*
X143829407Y-123103391D01*
X143829410Y-123103389D01*
X143833710Y-123101542D01*
X143837690Y-123099079D01*
X143837694Y-123099077D01*
X144057302Y-122963179D01*
X144057306Y-122963176D01*
X144061275Y-122960720D01*
X144075010Y-122949092D01*
X144261960Y-122790828D01*
X144261961Y-122790827D01*
X144265526Y-122787809D01*
X144359365Y-122680807D01*
X144438894Y-122590122D01*
X144438898Y-122590117D01*
X144441976Y-122586607D01*
X144444506Y-122582674D01*
X144584219Y-122365465D01*
X144584222Y-122365460D01*
X144586747Y-122361534D01*
X144696661Y-122117534D01*
X144769302Y-121859969D01*
X144787103Y-121720041D01*
X144802677Y-121597625D01*
X144802677Y-121597621D01*
X144803075Y-121594495D01*
X144805549Y-121500000D01*
X144785717Y-121233123D01*
X144775161Y-121186470D01*
X144727686Y-120976666D01*
X144726655Y-120972109D01*
X144629662Y-120722691D01*
X144496868Y-120490350D01*
X144331190Y-120280189D01*
X144136269Y-120096825D01*
X143916385Y-119944286D01*
X143912194Y-119942219D01*
X143680559Y-119827989D01*
X143680556Y-119827988D01*
X143676371Y-119825924D01*
X143421497Y-119744338D01*
X143276134Y-119720665D01*
X143161976Y-119702073D01*
X143161975Y-119702073D01*
X143157364Y-119701322D01*
X143023569Y-119699570D01*
X142894451Y-119697880D01*
X142894448Y-119697880D01*
X142889774Y-119697819D01*
X142624605Y-119733907D01*
X142620118Y-119735215D01*
X142620117Y-119735215D01*
X142588817Y-119744338D01*
X142367683Y-119808792D01*
X142363430Y-119810752D01*
X142363429Y-119810753D01*
X142311512Y-119834687D01*
X142124652Y-119920831D01*
X142120743Y-119923394D01*
X141904764Y-120064996D01*
X141904759Y-120065000D01*
X141900851Y-120067562D01*
X141701197Y-120245760D01*
X141530075Y-120451512D01*
X141391244Y-120680298D01*
X141287755Y-120927091D01*
X141286604Y-120931623D01*
X141286603Y-120931626D01*
X141223033Y-121181933D01*
X141221881Y-121186470D01*
X141195070Y-121452736D01*
X121000000Y-121452736D01*
X121000000Y-109015316D01*
X122042000Y-109015316D01*
X122052734Y-109135587D01*
X122108759Y-109330970D01*
X122202927Y-109511096D01*
X122331391Y-109668609D01*
X122488904Y-109797073D01*
X122669030Y-109891241D01*
X122864413Y-109947266D01*
X122896045Y-109950089D01*
X122981891Y-109957751D01*
X122981897Y-109957751D01*
X122984684Y-109958000D01*
X125100316Y-109958000D01*
X125103103Y-109957751D01*
X125103109Y-109957751D01*
X125188955Y-109950089D01*
X125220587Y-109947266D01*
X125415970Y-109891241D01*
X125596096Y-109797073D01*
X125753609Y-109668609D01*
X125882073Y-109511096D01*
X125976241Y-109330970D01*
X126032266Y-109135587D01*
X126043000Y-109015316D01*
X126043000Y-107257816D01*
X141812255Y-107257816D01*
X141822989Y-107378087D01*
X141879014Y-107573470D01*
X141973182Y-107753596D01*
X142101646Y-107911109D01*
X142259159Y-108039573D01*
X142439285Y-108133741D01*
X142634668Y-108189766D01*
X142666300Y-108192589D01*
X142752146Y-108200251D01*
X142752152Y-108200251D01*
X142754939Y-108200500D01*
X145270571Y-108200500D01*
X145273358Y-108200251D01*
X145273364Y-108200251D01*
X145359210Y-108192589D01*
X145390842Y-108189766D01*
X145586225Y-108133741D01*
X145766351Y-108039573D01*
X145923864Y-107911109D01*
X146052328Y-107753596D01*
X146146496Y-107573470D01*
X146202521Y-107378087D01*
X146213255Y-107257816D01*
X146213255Y-104742184D01*
X146202521Y-104621913D01*
X146146496Y-104426530D01*
X146052328Y-104246404D01*
X145923864Y-104088891D01*
X145828833Y-104011386D01*
X145771295Y-103964459D01*
X145771294Y-103964458D01*
X145766351Y-103960427D01*
X145586225Y-103866259D01*
X145390842Y-103810234D01*
X145359210Y-103807411D01*
X145273364Y-103799749D01*
X145273358Y-103799749D01*
X145270571Y-103799500D01*
X142754939Y-103799500D01*
X142752152Y-103799749D01*
X142752146Y-103799749D01*
X142666300Y-103807411D01*
X142634668Y-103810234D01*
X142439285Y-103866259D01*
X142259159Y-103960427D01*
X142254216Y-103964458D01*
X142254215Y-103964459D01*
X142196677Y-104011386D01*
X142101646Y-104088891D01*
X141973182Y-104246404D01*
X141879014Y-104426530D01*
X141822989Y-104621913D01*
X141812255Y-104742184D01*
X141812255Y-107257816D01*
X126043000Y-107257816D01*
X126043000Y-106899684D01*
X126032266Y-106779413D01*
X125976241Y-106584030D01*
X125882073Y-106403904D01*
X125753609Y-106246391D01*
X125596096Y-106117927D01*
X125415970Y-106023759D01*
X125220587Y-105967734D01*
X125188955Y-105964911D01*
X125103109Y-105957249D01*
X125103103Y-105957249D01*
X125100316Y-105957000D01*
X122984684Y-105957000D01*
X122981897Y-105957249D01*
X122981891Y-105957249D01*
X122896045Y-105964911D01*
X122864413Y-105967734D01*
X122669030Y-106023759D01*
X122488904Y-106117927D01*
X122331391Y-106246391D01*
X122202927Y-106403904D01*
X122108759Y-106584030D01*
X122052734Y-106779413D01*
X122042000Y-106899684D01*
X122042000Y-109015316D01*
X121000000Y-109015316D01*
X121000000Y-104126000D01*
X121020002Y-104057879D01*
X121073658Y-104011386D01*
X121126000Y-104000000D01*
X129000000Y-104000000D01*
X129000000Y-86757816D01*
X141812255Y-86757816D01*
X141822989Y-86878087D01*
X141879014Y-87073470D01*
X141973182Y-87253596D01*
X142101646Y-87411109D01*
X142259159Y-87539573D01*
X142439285Y-87633741D01*
X142634668Y-87689766D01*
X142666300Y-87692589D01*
X142752146Y-87700251D01*
X142752152Y-87700251D01*
X142754939Y-87700500D01*
X145270571Y-87700500D01*
X145273358Y-87700251D01*
X145273364Y-87700251D01*
X145359210Y-87692589D01*
X145390842Y-87689766D01*
X145586225Y-87633741D01*
X145766351Y-87539573D01*
X145923864Y-87411109D01*
X146052328Y-87253596D01*
X146146496Y-87073470D01*
X146202521Y-86878087D01*
X146213255Y-86757816D01*
X146213255Y-84242184D01*
X146202521Y-84121913D01*
X146146496Y-83926530D01*
X146052328Y-83746404D01*
X145923864Y-83588891D01*
X145766351Y-83460427D01*
X145586225Y-83366259D01*
X145390842Y-83310234D01*
X145359210Y-83307411D01*
X145273364Y-83299749D01*
X145273358Y-83299749D01*
X145270571Y-83299500D01*
X142754939Y-83299500D01*
X142752152Y-83299749D01*
X142752146Y-83299749D01*
X142666300Y-83307411D01*
X142634668Y-83310234D01*
X142439285Y-83366259D01*
X142259159Y-83460427D01*
X142101646Y-83588891D01*
X141973182Y-83746404D01*
X141879014Y-83926530D01*
X141822989Y-84121913D01*
X141812255Y-84242184D01*
X141812255Y-86757816D01*
X129000000Y-86757816D01*
X129000000Y-86500000D01*
X121126000Y-86500000D01*
X121057879Y-86479998D01*
X121011386Y-86426342D01*
X121000000Y-86374000D01*
X121000000Y-69952736D01*
X141195070Y-69952736D01*
X141207909Y-70220041D01*
X141260118Y-70482512D01*
X141350549Y-70734383D01*
X141352765Y-70738507D01*
X141420982Y-70865465D01*
X141477215Y-70970121D01*
X141480010Y-70973864D01*
X141480012Y-70973867D01*
X141564199Y-71086607D01*
X141637335Y-71184547D01*
X141640642Y-71187825D01*
X141640647Y-71187831D01*
X141824074Y-71369663D01*
X141827390Y-71372950D01*
X142043205Y-71531192D01*
X142047340Y-71533368D01*
X142047344Y-71533370D01*
X142176918Y-71601542D01*
X142280039Y-71655797D01*
X142284458Y-71657340D01*
X142528273Y-71742484D01*
X142528279Y-71742486D01*
X142532690Y-71744026D01*
X142795606Y-71793943D01*
X142922616Y-71798933D01*
X143058345Y-71804266D01*
X143058350Y-71804266D01*
X143063013Y-71804449D01*
X143158943Y-71793943D01*
X143324382Y-71775825D01*
X143324387Y-71775824D01*
X143329035Y-71775315D01*
X143444567Y-71744898D01*
X143583309Y-71708370D01*
X143587829Y-71707180D01*
X143712501Y-71653617D01*
X143829407Y-71603391D01*
X143829410Y-71603389D01*
X143833710Y-71601542D01*
X143837690Y-71599079D01*
X143837694Y-71599077D01*
X144057302Y-71463179D01*
X144057306Y-71463176D01*
X144061275Y-71460720D01*
X144075010Y-71449092D01*
X144261960Y-71290828D01*
X144261961Y-71290827D01*
X144265526Y-71287809D01*
X144359365Y-71180807D01*
X144438894Y-71090122D01*
X144438898Y-71090117D01*
X144441976Y-71086607D01*
X144444506Y-71082674D01*
X144584219Y-70865465D01*
X144584222Y-70865460D01*
X144586747Y-70861534D01*
X144696661Y-70617534D01*
X144769302Y-70359969D01*
X144787103Y-70220041D01*
X144802677Y-70097625D01*
X144802677Y-70097621D01*
X144803075Y-70094495D01*
X144805549Y-70000000D01*
X144785717Y-69733123D01*
X144775161Y-69686470D01*
X144727686Y-69476666D01*
X144726655Y-69472109D01*
X144629662Y-69222691D01*
X144496868Y-68990350D01*
X144331190Y-68780189D01*
X144136269Y-68596825D01*
X143916385Y-68444286D01*
X143912194Y-68442219D01*
X143680559Y-68327989D01*
X143680556Y-68327988D01*
X143676371Y-68325924D01*
X143421497Y-68244338D01*
X143276134Y-68220665D01*
X143161976Y-68202073D01*
X143161975Y-68202073D01*
X143157364Y-68201322D01*
X143023569Y-68199570D01*
X142894451Y-68197880D01*
X142894448Y-68197880D01*
X142889774Y-68197819D01*
X142624605Y-68233907D01*
X142620118Y-68235215D01*
X142620117Y-68235215D01*
X142588817Y-68244338D01*
X142367683Y-68308792D01*
X142363430Y-68310752D01*
X142363429Y-68310753D01*
X142311512Y-68334687D01*
X142124652Y-68420831D01*
X142120743Y-68423394D01*
X141904764Y-68564996D01*
X141904759Y-68565000D01*
X141900851Y-68567562D01*
X141701197Y-68745760D01*
X141530075Y-68951512D01*
X141391244Y-69180298D01*
X141287755Y-69427091D01*
X141286604Y-69431623D01*
X141286603Y-69431626D01*
X141223033Y-69681933D01*
X141221881Y-69686470D01*
X141195070Y-69952736D01*
X121000000Y-69952736D01*
X121000000Y-60307816D01*
X140829500Y-60307816D01*
X140840234Y-60428087D01*
X140896259Y-60623470D01*
X140990427Y-60803596D01*
X141118891Y-60961109D01*
X141276404Y-61089573D01*
X141456530Y-61183741D01*
X141651913Y-61239766D01*
X141683545Y-61242589D01*
X141769391Y-61250251D01*
X141769397Y-61250251D01*
X141772184Y-61250500D01*
X144387816Y-61250500D01*
X144390603Y-61250251D01*
X144390609Y-61250251D01*
X144476455Y-61242589D01*
X144508087Y-61239766D01*
X144703470Y-61183741D01*
X144883596Y-61089573D01*
X145041109Y-60961109D01*
X145169573Y-60803596D01*
X145263741Y-60623470D01*
X145319766Y-60428087D01*
X145330500Y-60307816D01*
X145330500Y-57692184D01*
X145319766Y-57571913D01*
X145263741Y-57376530D01*
X145169573Y-57196404D01*
X145041109Y-57038891D01*
X144883596Y-56910427D01*
X144703470Y-56816259D01*
X144508087Y-56760234D01*
X144476455Y-56757411D01*
X144390609Y-56749749D01*
X144390603Y-56749749D01*
X144387816Y-56749500D01*
X141772184Y-56749500D01*
X141769397Y-56749749D01*
X141769391Y-56749749D01*
X141683545Y-56757411D01*
X141651913Y-56760234D01*
X141456530Y-56816259D01*
X141276404Y-56910427D01*
X141118891Y-57038891D01*
X140990427Y-57196404D01*
X140896259Y-57376530D01*
X140840234Y-57571913D01*
X140829500Y-57692184D01*
X140829500Y-60307816D01*
X121000000Y-60307816D01*
X121000000Y-51126000D01*
X121020002Y-51057879D01*
X121073658Y-51011386D01*
X121126000Y-51000000D01*
X152297345Y-51000000D01*
X152370870Y-51023677D01*
G37*
%TD.AperFunction*%
%TD*%
M02*
