%TF.GenerationSoftware,KiCad,Pcbnew,(6.0.2)*%
%TF.CreationDate,2022-12-31T16:06:53+03:00*%
%TF.ProjectId,mcuPower,6d637550-6f77-4657-922e-6b696361645f,rev?*%
%TF.SameCoordinates,Original*%
%TF.FileFunction,Legend,Top*%
%TF.FilePolarity,Positive*%
%FSLAX46Y46*%
G04 Gerber Fmt 4.6, Leading zero omitted, Abs format (unit mm)*
G04 Created by KiCad (PCBNEW (6.0.2)) date 2022-12-31 16:06:53*
%MOMM*%
%LPD*%
G01*
G04 APERTURE LIST*
%ADD10C,0.150000*%
%ADD11C,0.120000*%
G04 APERTURE END LIST*
D10*
%TO.C,D1*%
X120694880Y-96095595D02*
X119694880Y-96095595D01*
X119694880Y-95857500D01*
X119742500Y-95714642D01*
X119837738Y-95619404D01*
X119932976Y-95571785D01*
X120123452Y-95524166D01*
X120266309Y-95524166D01*
X120456785Y-95571785D01*
X120552023Y-95619404D01*
X120647261Y-95714642D01*
X120694880Y-95857500D01*
X120694880Y-96095595D01*
X120694880Y-94571785D02*
X120694880Y-95143214D01*
X120694880Y-94857500D02*
X119694880Y-94857500D01*
X119837738Y-94952738D01*
X119932976Y-95047976D01*
X119980595Y-95143214D01*
%TO.C,J3*%
X140171666Y-137012380D02*
X140171666Y-137726666D01*
X140124047Y-137869523D01*
X140028809Y-137964761D01*
X139885952Y-138012380D01*
X139790714Y-138012380D01*
X140552619Y-137012380D02*
X141171666Y-137012380D01*
X140838333Y-137393333D01*
X140981190Y-137393333D01*
X141076428Y-137440952D01*
X141124047Y-137488571D01*
X141171666Y-137583809D01*
X141171666Y-137821904D01*
X141124047Y-137917142D01*
X141076428Y-137964761D01*
X140981190Y-138012380D01*
X140695476Y-138012380D01*
X140600238Y-137964761D01*
X140552619Y-137917142D01*
%TO.C,T1*%
X88738095Y-56952380D02*
X89309523Y-56952380D01*
X89023809Y-57952380D02*
X89023809Y-56952380D01*
X90166666Y-57952380D02*
X89595238Y-57952380D01*
X89880952Y-57952380D02*
X89880952Y-56952380D01*
X89785714Y-57095238D01*
X89690476Y-57190476D01*
X89595238Y-57238095D01*
X110404761Y-98142857D02*
X110452380Y-98000000D01*
X110452380Y-97761904D01*
X110404761Y-97666666D01*
X110357142Y-97619047D01*
X110261904Y-97571428D01*
X110166666Y-97571428D01*
X110071428Y-97619047D01*
X110023809Y-97666666D01*
X109976190Y-97761904D01*
X109928571Y-97952380D01*
X109880952Y-98047619D01*
X109833333Y-98095238D01*
X109738095Y-98142857D01*
X109642857Y-98142857D01*
X109547619Y-98095238D01*
X109500000Y-98047619D01*
X109452380Y-97952380D01*
X109452380Y-97714285D01*
X109500000Y-97571428D01*
X110404761Y-96761904D02*
X110452380Y-96857142D01*
X110452380Y-97047619D01*
X110404761Y-97142857D01*
X110309523Y-97190476D01*
X109928571Y-97190476D01*
X109833333Y-97142857D01*
X109785714Y-97047619D01*
X109785714Y-96857142D01*
X109833333Y-96761904D01*
X109928571Y-96714285D01*
X110023809Y-96714285D01*
X110119047Y-97190476D01*
X110404761Y-95857142D02*
X110452380Y-95952380D01*
X110452380Y-96142857D01*
X110404761Y-96238095D01*
X110357142Y-96285714D01*
X110261904Y-96333333D01*
X109976190Y-96333333D01*
X109880952Y-96285714D01*
X109833333Y-96238095D01*
X109785714Y-96142857D01*
X109785714Y-95952380D01*
X109833333Y-95857142D01*
X77285714Y-115452380D02*
X76714285Y-115452380D01*
X77000000Y-115452380D02*
X77000000Y-114452380D01*
X76904761Y-114595238D01*
X76809523Y-114690476D01*
X76714285Y-114738095D01*
X71452380Y-97809523D02*
X70452380Y-97809523D01*
X70452380Y-97428571D01*
X70500000Y-97333333D01*
X70547619Y-97285714D01*
X70642857Y-97238095D01*
X70785714Y-97238095D01*
X70880952Y-97285714D01*
X70928571Y-97333333D01*
X70976190Y-97428571D01*
X70976190Y-97809523D01*
X71452380Y-96809523D02*
X70785714Y-96809523D01*
X70976190Y-96809523D02*
X70880952Y-96761904D01*
X70833333Y-96714285D01*
X70785714Y-96619047D01*
X70785714Y-96523809D01*
X71452380Y-96190476D02*
X70785714Y-96190476D01*
X70452380Y-96190476D02*
X70500000Y-96238095D01*
X70547619Y-96190476D01*
X70500000Y-96142857D01*
X70452380Y-96190476D01*
X70547619Y-96190476D01*
%TO.C,C2*%
X140096088Y-95107142D02*
X140048469Y-95154761D01*
X139905612Y-95202380D01*
X139810374Y-95202380D01*
X139667516Y-95154761D01*
X139572278Y-95059523D01*
X139524659Y-94964285D01*
X139477040Y-94773809D01*
X139477040Y-94630952D01*
X139524659Y-94440476D01*
X139572278Y-94345238D01*
X139667516Y-94250000D01*
X139810374Y-94202380D01*
X139905612Y-94202380D01*
X140048469Y-94250000D01*
X140096088Y-94297619D01*
X140477040Y-94297619D02*
X140524659Y-94250000D01*
X140619897Y-94202380D01*
X140857993Y-94202380D01*
X140953231Y-94250000D01*
X141000850Y-94297619D01*
X141048469Y-94392857D01*
X141048469Y-94488095D01*
X141000850Y-94630952D01*
X140429421Y-95202380D01*
X141048469Y-95202380D01*
%TO.C,C3*%
X140333333Y-73207142D02*
X140285714Y-73254761D01*
X140142857Y-73302380D01*
X140047619Y-73302380D01*
X139904761Y-73254761D01*
X139809523Y-73159523D01*
X139761904Y-73064285D01*
X139714285Y-72873809D01*
X139714285Y-72730952D01*
X139761904Y-72540476D01*
X139809523Y-72445238D01*
X139904761Y-72350000D01*
X140047619Y-72302380D01*
X140142857Y-72302380D01*
X140285714Y-72350000D01*
X140333333Y-72397619D01*
X140666666Y-72302380D02*
X141285714Y-72302380D01*
X140952380Y-72683333D01*
X141095238Y-72683333D01*
X141190476Y-72730952D01*
X141238095Y-72778571D01*
X141285714Y-72873809D01*
X141285714Y-73111904D01*
X141238095Y-73207142D01*
X141190476Y-73254761D01*
X141095238Y-73302380D01*
X140809523Y-73302380D01*
X140714285Y-73254761D01*
X140666666Y-73207142D01*
%TO.C,J2*%
X140206666Y-63512380D02*
X140206666Y-64226666D01*
X140159047Y-64369523D01*
X140063809Y-64464761D01*
X139920952Y-64512380D01*
X139825714Y-64512380D01*
X140635238Y-63607619D02*
X140682857Y-63560000D01*
X140778095Y-63512380D01*
X141016190Y-63512380D01*
X141111428Y-63560000D01*
X141159047Y-63607619D01*
X141206666Y-63702857D01*
X141206666Y-63798095D01*
X141159047Y-63940952D01*
X140587619Y-64512380D01*
X141206666Y-64512380D01*
%TO.C,J1*%
X48142380Y-75083333D02*
X48856666Y-75083333D01*
X48999523Y-75130952D01*
X49094761Y-75226190D01*
X49142380Y-75369047D01*
X49142380Y-75464285D01*
X49142380Y-74083333D02*
X49142380Y-74654761D01*
X49142380Y-74369047D02*
X48142380Y-74369047D01*
X48285238Y-74464285D01*
X48380476Y-74559523D01*
X48428095Y-74654761D01*
%TO.C,C1*%
X140096088Y-115607142D02*
X140048469Y-115654761D01*
X139905612Y-115702380D01*
X139810374Y-115702380D01*
X139667516Y-115654761D01*
X139572278Y-115559523D01*
X139524659Y-115464285D01*
X139477040Y-115273809D01*
X139477040Y-115130952D01*
X139524659Y-114940476D01*
X139572278Y-114845238D01*
X139667516Y-114750000D01*
X139810374Y-114702380D01*
X139905612Y-114702380D01*
X140048469Y-114750000D01*
X140096088Y-114797619D01*
X141048469Y-115702380D02*
X140477040Y-115702380D01*
X140762755Y-115702380D02*
X140762755Y-114702380D01*
X140667516Y-114845238D01*
X140572278Y-114940476D01*
X140477040Y-114988095D01*
%TO.C,C4*%
X140333333Y-124707142D02*
X140285714Y-124754761D01*
X140142857Y-124802380D01*
X140047619Y-124802380D01*
X139904761Y-124754761D01*
X139809523Y-124659523D01*
X139761904Y-124564285D01*
X139714285Y-124373809D01*
X139714285Y-124230952D01*
X139761904Y-124040476D01*
X139809523Y-123945238D01*
X139904761Y-123850000D01*
X140047619Y-123802380D01*
X140142857Y-123802380D01*
X140285714Y-123850000D01*
X140333333Y-123897619D01*
X141190476Y-124135714D02*
X141190476Y-124802380D01*
X140952380Y-123754761D02*
X140714285Y-124469047D01*
X141333333Y-124469047D01*
%TO.C,F1*%
X60928571Y-101833333D02*
X60928571Y-102166666D01*
X61452380Y-102166666D02*
X60452380Y-102166666D01*
X60452380Y-101690476D01*
X61452380Y-100785714D02*
X61452380Y-101357142D01*
X61452380Y-101071428D02*
X60452380Y-101071428D01*
X60595238Y-101166666D01*
X60690476Y-101261904D01*
X60738095Y-101357142D01*
D11*
%TO.C,D1*%
X126942500Y-107507500D02*
X125542500Y-107507500D01*
X122342500Y-111757500D02*
X120942500Y-111757500D01*
X121142500Y-111557500D02*
X121142500Y-79357500D01*
X126942500Y-79357500D02*
X126942500Y-111557500D01*
X126942500Y-111557500D02*
X121142500Y-111557500D01*
X121142500Y-107507500D02*
X122542500Y-107507500D01*
X120942500Y-111757500D02*
X120942500Y-110457500D01*
X121142500Y-79357500D02*
X126942500Y-79357500D01*
%TO.C,J3*%
X145645000Y-134500000D02*
X135365000Y-134500000D01*
X136690000Y-133569000D02*
X136784000Y-133476000D01*
X145645000Y-130500000D02*
X135365000Y-130500000D01*
X145645000Y-136560000D02*
X135365000Y-136560000D01*
X145645000Y-136560000D02*
X145645000Y-128440000D01*
X145885000Y-130440000D02*
X145885000Y-128200000D01*
X136895000Y-133775000D02*
X136954000Y-133716000D01*
X139145000Y-131524000D02*
X139239000Y-131431000D01*
X138975000Y-131284000D02*
X139034000Y-131226000D01*
X145645000Y-128440000D02*
X135365000Y-128440000D01*
X145885000Y-128200000D02*
X143885000Y-128200000D01*
X135365000Y-136560000D02*
X135365000Y-128440000D01*
X144529000Y-133289000D02*
G75*
G03*
X144528953Y-131710911I-1483995J789000D01*
G01*
X143834000Y-131016000D02*
G75*
G03*
X143015617Y-130819550I-788998J-1483995D01*
G01*
X142256000Y-133984000D02*
G75*
G03*
X143834089Y-133983953I789000J1483995D01*
G01*
X141561000Y-131711000D02*
G75*
G03*
X141561047Y-133289089I1483995J-789000D01*
G01*
X143045000Y-130820000D02*
G75*
G03*
X142256288Y-131016648I-2J-1679991D01*
G01*
X139645000Y-132500000D02*
G75*
G03*
X139645000Y-132500000I-1680000J0D01*
G01*
%TO.C,T1*%
X114620000Y-135120000D02*
X114620000Y-58880000D01*
X114620000Y-135120000D02*
X67380000Y-135120000D01*
X67380000Y-58880000D02*
X114620000Y-58880000D01*
X67380000Y-58880000D02*
X67380000Y-135120000D01*
%TO.C,C2*%
X135021755Y-91663000D02*
X135021755Y-79337000D01*
X138981755Y-93479000D02*
X138981755Y-77521000D01*
X136301755Y-92549000D02*
X136301755Y-86940000D01*
X136141755Y-84060000D02*
X136141755Y-78542000D01*
X135661755Y-92152000D02*
X135661755Y-86940000D01*
X134301755Y-90975000D02*
X134301755Y-80025000D01*
X138421755Y-93369000D02*
X138421755Y-77631000D01*
X132861755Y-88803000D02*
X132861755Y-82197000D01*
X135701755Y-84060000D02*
X135701755Y-78821000D01*
X133661755Y-90191000D02*
X133661755Y-80809000D01*
X139782755Y-93566000D02*
X139782755Y-77434000D01*
X133861755Y-90458000D02*
X133861755Y-80542000D01*
X136941755Y-92871000D02*
X136941755Y-86940000D01*
X140182755Y-93580000D02*
X140182755Y-77420000D01*
X135101755Y-91730000D02*
X135101755Y-86940000D01*
X132261755Y-86851000D02*
X132261755Y-84149000D01*
X135781755Y-92233000D02*
X135781755Y-86940000D01*
X132461755Y-87718000D02*
X132461755Y-83282000D01*
X134821755Y-91489000D02*
X134821755Y-79511000D01*
X134581755Y-91263000D02*
X134581755Y-79737000D01*
X137061755Y-84060000D02*
X137061755Y-78077000D01*
X135581755Y-84060000D02*
X135581755Y-78904000D01*
X137061755Y-92923000D02*
X137061755Y-86940000D01*
X137701755Y-84060000D02*
X137701755Y-77834000D01*
X139862755Y-93571000D02*
X139862755Y-77429000D01*
X136261755Y-92527000D02*
X136261755Y-86940000D01*
X135941755Y-84060000D02*
X135941755Y-78664000D01*
X135261755Y-84060000D02*
X135261755Y-79142000D01*
X135461755Y-84060000D02*
X135461755Y-78990000D01*
X136501755Y-84060000D02*
X136501755Y-78343000D01*
X134261755Y-90932000D02*
X134261755Y-80068000D01*
X136021755Y-92386000D02*
X136021755Y-86940000D01*
X136221755Y-84060000D02*
X136221755Y-78496000D01*
X135981755Y-84060000D02*
X135981755Y-78639000D01*
X138261755Y-93330000D02*
X138261755Y-77670000D01*
X136701755Y-92758000D02*
X136701755Y-86940000D01*
X137101755Y-84060000D02*
X137101755Y-78060000D01*
X139181755Y-93508000D02*
X139181755Y-77492000D01*
X138141755Y-93299000D02*
X138141755Y-77701000D01*
X139341755Y-93528000D02*
X139341755Y-77472000D01*
X136821755Y-92816000D02*
X136821755Y-86940000D01*
X135701755Y-92179000D02*
X135701755Y-86940000D01*
X134701755Y-91378000D02*
X134701755Y-79622000D01*
X140022755Y-93577000D02*
X140022755Y-77423000D01*
X138621755Y-93413000D02*
X138621755Y-77587000D01*
X139942755Y-93574000D02*
X139942755Y-77426000D01*
X134621755Y-91302000D02*
X134621755Y-79698000D01*
X134861755Y-91525000D02*
X134861755Y-79475000D01*
X135821755Y-92259000D02*
X135821755Y-86940000D01*
X133381755Y-89773000D02*
X133381755Y-81227000D01*
X135501755Y-92039000D02*
X135501755Y-86940000D01*
X134141755Y-90797000D02*
X134141755Y-80203000D01*
X137181755Y-84060000D02*
X137181755Y-78026000D01*
X135541755Y-84060000D02*
X135541755Y-78932000D01*
X137181755Y-92974000D02*
X137181755Y-86940000D01*
X133501755Y-89959000D02*
X133501755Y-81041000D01*
X136181755Y-92481000D02*
X136181755Y-86940000D01*
X134381755Y-91060000D02*
X134381755Y-79940000D01*
X135621755Y-84060000D02*
X135621755Y-78876000D01*
X134661755Y-91340000D02*
X134661755Y-79660000D01*
X137781755Y-84060000D02*
X137781755Y-77807000D01*
X139061755Y-93491000D02*
X139061755Y-77509000D01*
X135181755Y-91795000D02*
X135181755Y-86940000D01*
X133261755Y-89576000D02*
X133261755Y-81424000D01*
X137301755Y-93022000D02*
X137301755Y-86940000D01*
X137941755Y-84060000D02*
X137941755Y-77758000D01*
X137501755Y-84060000D02*
X137501755Y-77903000D01*
X136621755Y-84060000D02*
X136621755Y-78281000D01*
X136581755Y-84060000D02*
X136581755Y-78301000D01*
X135901755Y-84060000D02*
X135901755Y-78689000D01*
X135101755Y-84060000D02*
X135101755Y-79270000D01*
X136461755Y-92636000D02*
X136461755Y-86940000D01*
X137861755Y-84060000D02*
X137861755Y-77782000D01*
X136981755Y-92889000D02*
X136981755Y-86940000D01*
X139301755Y-93524000D02*
X139301755Y-77476000D01*
X137261755Y-84060000D02*
X137261755Y-77994000D01*
X134061755Y-90704000D02*
X134061755Y-80296000D01*
X138221755Y-93320000D02*
X138221755Y-77680000D01*
X136741755Y-92778000D02*
X136741755Y-86940000D01*
X137021755Y-84060000D02*
X137021755Y-78094000D01*
X136701755Y-84060000D02*
X136701755Y-78242000D01*
X133101755Y-89290000D02*
X133101755Y-81710000D01*
X137661755Y-93153000D02*
X137661755Y-86940000D01*
X138501755Y-93387000D02*
X138501755Y-77613000D01*
X133821755Y-90406000D02*
X133821755Y-80594000D01*
X137421755Y-93068000D02*
X137421755Y-86940000D01*
X135581755Y-92096000D02*
X135581755Y-86940000D01*
X135221755Y-84060000D02*
X135221755Y-79173000D01*
X133741755Y-90300000D02*
X133741755Y-80700000D01*
X132701755Y-88424000D02*
X132701755Y-82576000D01*
X136901755Y-84060000D02*
X136901755Y-78147000D01*
X137581755Y-84060000D02*
X137581755Y-77875000D01*
X133781755Y-90354000D02*
X133781755Y-80646000D01*
X132421755Y-87574000D02*
X132421755Y-83426000D01*
X135421755Y-91980000D02*
X135421755Y-86940000D01*
X137981755Y-93254000D02*
X137981755Y-77746000D01*
X136101755Y-84060000D02*
X136101755Y-78566000D01*
X134981755Y-91629000D02*
X134981755Y-79371000D01*
X136221755Y-92504000D02*
X136221755Y-86940000D01*
X137621755Y-93139000D02*
X137621755Y-86940000D01*
X138821755Y-93452000D02*
X138821755Y-77548000D01*
X132581755Y-88097000D02*
X132581755Y-82903000D01*
X137781755Y-93193000D02*
X137781755Y-86940000D01*
X137541755Y-84060000D02*
X137541755Y-77889000D01*
X138101755Y-93288000D02*
X138101755Y-77712000D01*
X135861755Y-92285000D02*
X135861755Y-86940000D01*
X138381755Y-93360000D02*
X138381755Y-77640000D01*
X136781755Y-84060000D02*
X136781755Y-78203000D01*
X136941755Y-84060000D02*
X136941755Y-78129000D01*
X132781755Y-88620000D02*
X132781755Y-82380000D01*
X138701755Y-93429000D02*
X138701755Y-77571000D01*
X138021755Y-93265000D02*
X138021755Y-77735000D01*
X137381755Y-84060000D02*
X137381755Y-77947000D01*
X138301755Y-93340000D02*
X138301755Y-77660000D01*
X135741755Y-92206000D02*
X135741755Y-86940000D01*
X135501755Y-84060000D02*
X135501755Y-78961000D01*
X140062755Y-93578000D02*
X140062755Y-77422000D01*
X135341755Y-91920000D02*
X135341755Y-86940000D01*
X148952246Y-90055000D02*
X147352246Y-90055000D01*
X138541755Y-93396000D02*
X138541755Y-77604000D01*
X132821755Y-88713000D02*
X132821755Y-82287000D01*
X135301755Y-91890000D02*
X135301755Y-86940000D01*
X135901755Y-92311000D02*
X135901755Y-86940000D01*
X139381755Y-93533000D02*
X139381755Y-77467000D01*
X136661755Y-84060000D02*
X136661755Y-78261000D01*
X135381755Y-84060000D02*
X135381755Y-79050000D01*
X137541755Y-93111000D02*
X137541755Y-86940000D01*
X137941755Y-93242000D02*
X137941755Y-86940000D01*
X135861755Y-84060000D02*
X135861755Y-78715000D01*
X132661755Y-88320000D02*
X132661755Y-82680000D01*
X136501755Y-92657000D02*
X136501755Y-86940000D01*
X138781755Y-93444000D02*
X138781755Y-77556000D01*
X133061755Y-89215000D02*
X133061755Y-81785000D01*
X135421755Y-84060000D02*
X135421755Y-79020000D01*
X140102755Y-93579000D02*
X140102755Y-77421000D01*
X137901755Y-93230000D02*
X137901755Y-86940000D01*
X137701755Y-93166000D02*
X137701755Y-86940000D01*
X135341755Y-84060000D02*
X135341755Y-79080000D01*
X137381755Y-93053000D02*
X137381755Y-86940000D01*
X133221755Y-89507000D02*
X133221755Y-81493000D01*
X134021755Y-90656000D02*
X134021755Y-80344000D01*
X137221755Y-84060000D02*
X137221755Y-78010000D01*
X136621755Y-92719000D02*
X136621755Y-86940000D01*
X135461755Y-92010000D02*
X135461755Y-86940000D01*
X132901755Y-88890000D02*
X132901755Y-82110000D01*
X136981755Y-84060000D02*
X136981755Y-78111000D01*
X137021755Y-92906000D02*
X137021755Y-86940000D01*
X135821755Y-84060000D02*
X135821755Y-78741000D01*
X140222755Y-93580000D02*
X140222755Y-77420000D01*
X134461755Y-91143000D02*
X134461755Y-79857000D01*
X137301755Y-84060000D02*
X137301755Y-77978000D01*
X132221755Y-86598000D02*
X132221755Y-84402000D01*
X136421755Y-84060000D02*
X136421755Y-78385000D01*
X136861755Y-84060000D02*
X136861755Y-78166000D01*
X138661755Y-93421000D02*
X138661755Y-77579000D01*
X136741755Y-84060000D02*
X136741755Y-78222000D01*
X132181755Y-86265000D02*
X132181755Y-84735000D01*
X139822755Y-93569000D02*
X139822755Y-77431000D01*
X132541755Y-87978000D02*
X132541755Y-83022000D01*
X136821755Y-84060000D02*
X136821755Y-78184000D01*
X135301755Y-84060000D02*
X135301755Y-79110000D01*
X133021755Y-89137000D02*
X133021755Y-81863000D01*
X137461755Y-93082000D02*
X137461755Y-86940000D01*
X137741755Y-93180000D02*
X137741755Y-86940000D01*
X135141755Y-84060000D02*
X135141755Y-79237000D01*
X132621755Y-88211000D02*
X132621755Y-82789000D01*
X136581755Y-92699000D02*
X136581755Y-86940000D01*
X133981755Y-90608000D02*
X133981755Y-80392000D01*
X134341755Y-91018000D02*
X134341755Y-79982000D01*
X136061755Y-84060000D02*
X136061755Y-78590000D01*
X134941755Y-91595000D02*
X134941755Y-79405000D01*
X139021755Y-93485000D02*
X139021755Y-77515000D01*
X136861755Y-92834000D02*
X136861755Y-86940000D01*
X139582755Y-93552000D02*
X139582755Y-77448000D01*
X138461755Y-93378000D02*
X138461755Y-77622000D01*
X139141755Y-93503000D02*
X139141755Y-77497000D01*
X132941755Y-88975000D02*
X132941755Y-82025000D01*
X136341755Y-92572000D02*
X136341755Y-86940000D01*
X132341755Y-87252000D02*
X132341755Y-83748000D01*
X135741755Y-84060000D02*
X135741755Y-78794000D01*
X137141755Y-92957000D02*
X137141755Y-86940000D01*
X135621755Y-92124000D02*
X135621755Y-86940000D01*
X137821755Y-93205000D02*
X137821755Y-86940000D01*
X139622755Y-93555000D02*
X139622755Y-77445000D01*
X137461755Y-84060000D02*
X137461755Y-77918000D01*
X135141755Y-91763000D02*
X135141755Y-86940000D01*
X135661755Y-84060000D02*
X135661755Y-78848000D01*
X137901755Y-84060000D02*
X137901755Y-77770000D01*
X134101755Y-90751000D02*
X134101755Y-80249000D01*
X135061755Y-91697000D02*
X135061755Y-79303000D01*
X134181755Y-90843000D02*
X134181755Y-80157000D01*
X136061755Y-92410000D02*
X136061755Y-86940000D01*
X140262755Y-93581000D02*
X140262755Y-77419000D01*
X133461755Y-89898000D02*
X133461755Y-81102000D01*
X134781755Y-91452000D02*
X134781755Y-79548000D01*
X136141755Y-92458000D02*
X136141755Y-86940000D01*
X136101755Y-92434000D02*
X136101755Y-86940000D01*
X139461755Y-93541000D02*
X139461755Y-77459000D01*
X133901755Y-90509000D02*
X133901755Y-80491000D01*
X136341755Y-84060000D02*
X136341755Y-78428000D01*
X134541755Y-91224000D02*
X134541755Y-79776000D01*
X132981755Y-89057000D02*
X132981755Y-81943000D01*
X139982755Y-93576000D02*
X139982755Y-77424000D01*
X138941755Y-93472000D02*
X138941755Y-77528000D01*
X136261755Y-84060000D02*
X136261755Y-78473000D01*
X139101755Y-93497000D02*
X139101755Y-77503000D01*
X136461755Y-84060000D02*
X136461755Y-78364000D01*
X135941755Y-92336000D02*
X135941755Y-86940000D01*
X134421755Y-91102000D02*
X134421755Y-79898000D01*
X139261755Y-93519000D02*
X139261755Y-77481000D01*
X137741755Y-84060000D02*
X137741755Y-77820000D01*
X134501755Y-91184000D02*
X134501755Y-79816000D01*
X133941755Y-90559000D02*
X133941755Y-80441000D01*
X139742755Y-93564000D02*
X139742755Y-77436000D01*
X140142755Y-93580000D02*
X140142755Y-77420000D01*
X135221755Y-91827000D02*
X135221755Y-86940000D01*
X137221755Y-92990000D02*
X137221755Y-86940000D01*
X135381755Y-91950000D02*
X135381755Y-86940000D01*
X134901755Y-91560000D02*
X134901755Y-79440000D01*
X139501755Y-93545000D02*
X139501755Y-77455000D01*
X139541755Y-93549000D02*
X139541755Y-77451000D01*
X137341755Y-93037000D02*
X137341755Y-86940000D01*
X136541755Y-92678000D02*
X136541755Y-86940000D01*
X136541755Y-84060000D02*
X136541755Y-78322000D01*
X137621755Y-84060000D02*
X137621755Y-77861000D01*
X148152246Y-90855000D02*
X148152246Y-89255000D01*
X134221755Y-90888000D02*
X134221755Y-80112000D01*
X133181755Y-89436000D02*
X133181755Y-81564000D01*
X135981755Y-92361000D02*
X135981755Y-86940000D01*
X133341755Y-89709000D02*
X133341755Y-81291000D01*
X139221755Y-93514000D02*
X139221755Y-77486000D01*
X138581755Y-93405000D02*
X138581755Y-77595000D01*
X133141755Y-89364000D02*
X133141755Y-81636000D01*
X132741755Y-88524000D02*
X132741755Y-82476000D01*
X133701755Y-90246000D02*
X133701755Y-80754000D01*
X133541755Y-90019000D02*
X133541755Y-80981000D01*
X136661755Y-92739000D02*
X136661755Y-86940000D01*
X132501755Y-87851000D02*
X132501755Y-83149000D01*
X136421755Y-92615000D02*
X136421755Y-86940000D01*
X137141755Y-84060000D02*
X137141755Y-78043000D01*
X138741755Y-93437000D02*
X138741755Y-77563000D01*
X139421755Y-93537000D02*
X139421755Y-77463000D01*
X138061755Y-93277000D02*
X138061755Y-77723000D01*
X136021755Y-84060000D02*
X136021755Y-78614000D01*
X138181755Y-93310000D02*
X138181755Y-77690000D01*
X132381755Y-87420000D02*
X132381755Y-83580000D01*
X132301755Y-87064000D02*
X132301755Y-83936000D01*
X139902755Y-93573000D02*
X139902755Y-77427000D01*
X135781755Y-84060000D02*
X135781755Y-78767000D01*
X137661755Y-84060000D02*
X137661755Y-77847000D01*
X138861755Y-93459000D02*
X138861755Y-77541000D01*
X135261755Y-91858000D02*
X135261755Y-86940000D01*
X133421755Y-89836000D02*
X133421755Y-81164000D01*
X136381755Y-84060000D02*
X136381755Y-78406000D01*
X137421755Y-84060000D02*
X137421755Y-77932000D01*
X136381755Y-92594000D02*
X136381755Y-86940000D01*
X138901755Y-93466000D02*
X138901755Y-77534000D01*
X136181755Y-84060000D02*
X136181755Y-78519000D01*
X138341755Y-93350000D02*
X138341755Y-77650000D01*
X137101755Y-92940000D02*
X137101755Y-86940000D01*
X133581755Y-90077000D02*
X133581755Y-80923000D01*
X137581755Y-93125000D02*
X137581755Y-86940000D01*
X139662755Y-93558000D02*
X139662755Y-77442000D01*
X136301755Y-84060000D02*
X136301755Y-78451000D01*
X134741755Y-91416000D02*
X134741755Y-79584000D01*
X137501755Y-93097000D02*
X137501755Y-86940000D01*
X136781755Y-92797000D02*
X136781755Y-86940000D01*
X137821755Y-84060000D02*
X137821755Y-77795000D01*
X137341755Y-84060000D02*
X137341755Y-77963000D01*
X133301755Y-89643000D02*
X133301755Y-81357000D01*
X137261755Y-93006000D02*
X137261755Y-86940000D01*
X135181755Y-84060000D02*
X135181755Y-79205000D01*
X135541755Y-92068000D02*
X135541755Y-86940000D01*
X137861755Y-93218000D02*
X137861755Y-86940000D01*
X133621755Y-90134000D02*
X133621755Y-80866000D01*
X136901755Y-92853000D02*
X136901755Y-86940000D01*
X139702755Y-93561000D02*
X139702755Y-77439000D01*
X148382755Y-85500000D02*
G75*
G03*
X148382755Y-85500000I-8120000J0D01*
G01*
%TO.C,C3*%
X143170000Y-68945000D02*
X143170000Y-68279000D01*
X143170000Y-71721000D02*
X137830000Y-71721000D01*
X137830000Y-71721000D02*
X137830000Y-71055000D01*
X143170000Y-68279000D02*
X137830000Y-68279000D01*
X143170000Y-71721000D02*
X143170000Y-71055000D01*
X137830000Y-68945000D02*
X137830000Y-68279000D01*
%TO.C,J2*%
X145680000Y-61000000D02*
X135400000Y-61000000D01*
X136930000Y-60275000D02*
X136989000Y-60216000D01*
X145680000Y-63060000D02*
X135400000Y-63060000D01*
X139010000Y-57784000D02*
X139069000Y-57726000D01*
X145680000Y-63060000D02*
X145680000Y-54940000D01*
X145680000Y-57000000D02*
X135400000Y-57000000D01*
X145920000Y-56940000D02*
X145920000Y-54700000D01*
X136725000Y-60069000D02*
X136819000Y-59976000D01*
X145920000Y-54700000D02*
X143920000Y-54700000D01*
X145680000Y-54940000D02*
X135400000Y-54940000D01*
X135400000Y-63060000D02*
X135400000Y-54940000D01*
X139180000Y-58024000D02*
X139274000Y-57931000D01*
X143869000Y-57516000D02*
G75*
G03*
X143050617Y-57319550I-788998J-1483995D01*
G01*
X141596000Y-58211000D02*
G75*
G03*
X141596047Y-59789089I1483995J-789000D01*
G01*
X143080000Y-57320000D02*
G75*
G03*
X142291288Y-57516648I-2J-1679991D01*
G01*
X144564000Y-59789000D02*
G75*
G03*
X144563953Y-58210911I-1483995J789000D01*
G01*
X142291000Y-60484000D02*
G75*
G03*
X143869089Y-60483953I789000J1483995D01*
G01*
X139680000Y-59000000D02*
G75*
G03*
X139680000Y-59000000I-1680000J0D01*
G01*
%TO.C,J1*%
X60210000Y-82550000D02*
X61050000Y-82550000D01*
X60810000Y-82310000D02*
X60810000Y-67190000D01*
X54181000Y-69725000D02*
X54227000Y-69772000D01*
X61050000Y-82550000D02*
X61050000Y-81950000D01*
X56489000Y-72034000D02*
X56524000Y-72069000D01*
X53975000Y-69930000D02*
X54011000Y-69965000D01*
X49690000Y-82310000D02*
X60810000Y-82310000D01*
X56273000Y-72227000D02*
X56319000Y-72274000D01*
X49690000Y-82310000D02*
X49690000Y-67190000D01*
X51650000Y-82310000D02*
X51650000Y-67190000D01*
X60150000Y-82310000D02*
X60150000Y-67190000D01*
X49690000Y-67190000D02*
X60810000Y-67190000D01*
X58250000Y-82310000D02*
X58250000Y-67190000D01*
X55934000Y-76965000D02*
G75*
G03*
X54566958Y-76964573I-684001J-1534993D01*
G01*
X56785000Y-79184000D02*
G75*
G03*
X56930253Y-78471195I-1535001J683999D01*
G01*
X56930000Y-78500000D02*
G75*
G03*
X56784756Y-77816682I-1679992J1D01*
G01*
X54566000Y-80035000D02*
G75*
G03*
X55933042Y-80035427I684001J1534993D01*
G01*
X53715000Y-77816000D02*
G75*
G03*
X53714573Y-79183042I1534993J-684001D01*
G01*
X56930000Y-71000000D02*
G75*
G03*
X56930000Y-71000000I-1680000J0D01*
G01*
%TO.C,C1*%
X132581755Y-108597000D02*
X132581755Y-103403000D01*
X137101755Y-113440000D02*
X137101755Y-107440000D01*
X138541755Y-113896000D02*
X138541755Y-98104000D01*
X139782755Y-114066000D02*
X139782755Y-97934000D01*
X135701755Y-104560000D02*
X135701755Y-99321000D01*
X134341755Y-111518000D02*
X134341755Y-100482000D01*
X138221755Y-113820000D02*
X138221755Y-98180000D01*
X137541755Y-113611000D02*
X137541755Y-107440000D01*
X132341755Y-107752000D02*
X132341755Y-104248000D01*
X138261755Y-113830000D02*
X138261755Y-98170000D01*
X136541755Y-104560000D02*
X136541755Y-98822000D01*
X133021755Y-109637000D02*
X133021755Y-102363000D01*
X135101755Y-112230000D02*
X135101755Y-107440000D01*
X137061755Y-104560000D02*
X137061755Y-98577000D01*
X135981755Y-104560000D02*
X135981755Y-99139000D01*
X137341755Y-113537000D02*
X137341755Y-107440000D01*
X137261755Y-113506000D02*
X137261755Y-107440000D01*
X134941755Y-112095000D02*
X134941755Y-99905000D01*
X137581755Y-113625000D02*
X137581755Y-107440000D01*
X133381755Y-110273000D02*
X133381755Y-101727000D01*
X139381755Y-114033000D02*
X139381755Y-97967000D01*
X137381755Y-104560000D02*
X137381755Y-98447000D01*
X135421755Y-104560000D02*
X135421755Y-99520000D01*
X135061755Y-112197000D02*
X135061755Y-99803000D01*
X136381755Y-104560000D02*
X136381755Y-98906000D01*
X134741755Y-111916000D02*
X134741755Y-100084000D01*
X139902755Y-114073000D02*
X139902755Y-97927000D01*
X137661755Y-104560000D02*
X137661755Y-98347000D01*
X136061755Y-112910000D02*
X136061755Y-107440000D01*
X137501755Y-113597000D02*
X137501755Y-107440000D01*
X135181755Y-112295000D02*
X135181755Y-107440000D01*
X135941755Y-104560000D02*
X135941755Y-99164000D01*
X137861755Y-104560000D02*
X137861755Y-98282000D01*
X133941755Y-111059000D02*
X133941755Y-100941000D01*
X137221755Y-113490000D02*
X137221755Y-107440000D01*
X138061755Y-113777000D02*
X138061755Y-98223000D01*
X136341755Y-113072000D02*
X136341755Y-107440000D01*
X132901755Y-109390000D02*
X132901755Y-102610000D01*
X137461755Y-113582000D02*
X137461755Y-107440000D01*
X135221755Y-104560000D02*
X135221755Y-99673000D01*
X132221755Y-107098000D02*
X132221755Y-104902000D01*
X138421755Y-113869000D02*
X138421755Y-98131000D01*
X134861755Y-112025000D02*
X134861755Y-99975000D01*
X133061755Y-109715000D02*
X133061755Y-102285000D01*
X137061755Y-113423000D02*
X137061755Y-107440000D01*
X136181755Y-112981000D02*
X136181755Y-107440000D01*
X138181755Y-113810000D02*
X138181755Y-98190000D01*
X140102755Y-114079000D02*
X140102755Y-97921000D01*
X137421755Y-104560000D02*
X137421755Y-98432000D01*
X136621755Y-113219000D02*
X136621755Y-107440000D01*
X133661755Y-110691000D02*
X133661755Y-101309000D01*
X132421755Y-108074000D02*
X132421755Y-103926000D01*
X135621755Y-104560000D02*
X135621755Y-99376000D01*
X135541755Y-112568000D02*
X135541755Y-107440000D01*
X135461755Y-112510000D02*
X135461755Y-107440000D01*
X136501755Y-113157000D02*
X136501755Y-107440000D01*
X132661755Y-108820000D02*
X132661755Y-103180000D01*
X139261755Y-114019000D02*
X139261755Y-97981000D01*
X139822755Y-114069000D02*
X139822755Y-97931000D01*
X135741755Y-112706000D02*
X135741755Y-107440000D01*
X136621755Y-104560000D02*
X136621755Y-98781000D01*
X136901755Y-113353000D02*
X136901755Y-107440000D01*
X137021755Y-113406000D02*
X137021755Y-107440000D01*
X135861755Y-104560000D02*
X135861755Y-99215000D01*
X135501755Y-104560000D02*
X135501755Y-99461000D01*
X137421755Y-113568000D02*
X137421755Y-107440000D01*
X137141755Y-113457000D02*
X137141755Y-107440000D01*
X137901755Y-104560000D02*
X137901755Y-98270000D01*
X134621755Y-111802000D02*
X134621755Y-100198000D01*
X135341755Y-104560000D02*
X135341755Y-99580000D01*
X136941755Y-113371000D02*
X136941755Y-107440000D01*
X135781755Y-112733000D02*
X135781755Y-107440000D01*
X136461755Y-104560000D02*
X136461755Y-98864000D01*
X132781755Y-109120000D02*
X132781755Y-102880000D01*
X138461755Y-113878000D02*
X138461755Y-98122000D01*
X137141755Y-104560000D02*
X137141755Y-98543000D01*
X134381755Y-111560000D02*
X134381755Y-100440000D01*
X139582755Y-114052000D02*
X139582755Y-97948000D01*
X137781755Y-104560000D02*
X137781755Y-98307000D01*
X140182755Y-114080000D02*
X140182755Y-97920000D01*
X138861755Y-113959000D02*
X138861755Y-98041000D01*
X136421755Y-104560000D02*
X136421755Y-98885000D01*
X139982755Y-114076000D02*
X139982755Y-97924000D01*
X138101755Y-113788000D02*
X138101755Y-98212000D01*
X139622755Y-114055000D02*
X139622755Y-97945000D01*
X136381755Y-113094000D02*
X136381755Y-107440000D01*
X135541755Y-104560000D02*
X135541755Y-99432000D01*
X136901755Y-104560000D02*
X136901755Y-98647000D01*
X136061755Y-104560000D02*
X136061755Y-99090000D01*
X133861755Y-110958000D02*
X133861755Y-101042000D01*
X136861755Y-113334000D02*
X136861755Y-107440000D01*
X133621755Y-110634000D02*
X133621755Y-101366000D01*
X135781755Y-104560000D02*
X135781755Y-99267000D01*
X137541755Y-104560000D02*
X137541755Y-98389000D01*
X139341755Y-114028000D02*
X139341755Y-97972000D01*
X133101755Y-109790000D02*
X133101755Y-102210000D01*
X137781755Y-113693000D02*
X137781755Y-107440000D01*
X134581755Y-111763000D02*
X134581755Y-100237000D01*
X137621755Y-104560000D02*
X137621755Y-98361000D01*
X136141755Y-112958000D02*
X136141755Y-107440000D01*
X135661755Y-112652000D02*
X135661755Y-107440000D01*
X140062755Y-114078000D02*
X140062755Y-97922000D01*
X137741755Y-104560000D02*
X137741755Y-98320000D01*
X135341755Y-112420000D02*
X135341755Y-107440000D01*
X135901755Y-112811000D02*
X135901755Y-107440000D01*
X133181755Y-109936000D02*
X133181755Y-102064000D01*
X133221755Y-110007000D02*
X133221755Y-101993000D01*
X138901755Y-113966000D02*
X138901755Y-98034000D01*
X138821755Y-113952000D02*
X138821755Y-98048000D01*
X135181755Y-104560000D02*
X135181755Y-99705000D01*
X135581755Y-104560000D02*
X135581755Y-99404000D01*
X138341755Y-113850000D02*
X138341755Y-98150000D01*
X133981755Y-111108000D02*
X133981755Y-100892000D01*
X133501755Y-110459000D02*
X133501755Y-101541000D01*
X136941755Y-104560000D02*
X136941755Y-98629000D01*
X136541755Y-113178000D02*
X136541755Y-107440000D01*
X138981755Y-113979000D02*
X138981755Y-98021000D01*
X139181755Y-114008000D02*
X139181755Y-97992000D01*
X136661755Y-113239000D02*
X136661755Y-107440000D01*
X135261755Y-112358000D02*
X135261755Y-107440000D01*
X135821755Y-112759000D02*
X135821755Y-107440000D01*
X137461755Y-104560000D02*
X137461755Y-98418000D01*
X134901755Y-112060000D02*
X134901755Y-99940000D01*
X139101755Y-113997000D02*
X139101755Y-98003000D01*
X137741755Y-113680000D02*
X137741755Y-107440000D01*
X139461755Y-114041000D02*
X139461755Y-97959000D01*
X137821755Y-104560000D02*
X137821755Y-98295000D01*
X137101755Y-104560000D02*
X137101755Y-98560000D01*
X136261755Y-113027000D02*
X136261755Y-107440000D01*
X135501755Y-112539000D02*
X135501755Y-107440000D01*
X134981755Y-112129000D02*
X134981755Y-99871000D01*
X133421755Y-110336000D02*
X133421755Y-101664000D01*
X134421755Y-111602000D02*
X134421755Y-100398000D01*
X139501755Y-114045000D02*
X139501755Y-97955000D01*
X134781755Y-111952000D02*
X134781755Y-100048000D01*
X134301755Y-111475000D02*
X134301755Y-100525000D01*
X136701755Y-113258000D02*
X136701755Y-107440000D01*
X136301755Y-113049000D02*
X136301755Y-107440000D01*
X139662755Y-114058000D02*
X139662755Y-97942000D01*
X137301755Y-113522000D02*
X137301755Y-107440000D01*
X133141755Y-109864000D02*
X133141755Y-102136000D01*
X135901755Y-104560000D02*
X135901755Y-99189000D01*
X136021755Y-104560000D02*
X136021755Y-99114000D01*
X138781755Y-113944000D02*
X138781755Y-98056000D01*
X133901755Y-111009000D02*
X133901755Y-100991000D01*
X137901755Y-113730000D02*
X137901755Y-107440000D01*
X137501755Y-104560000D02*
X137501755Y-98403000D01*
X135821755Y-104560000D02*
X135821755Y-99241000D01*
X136141755Y-104560000D02*
X136141755Y-99042000D01*
X138701755Y-113929000D02*
X138701755Y-98071000D01*
X134061755Y-111204000D02*
X134061755Y-100796000D01*
X139421755Y-114037000D02*
X139421755Y-97963000D01*
X132181755Y-106765000D02*
X132181755Y-105235000D01*
X137941755Y-104560000D02*
X137941755Y-98258000D01*
X139862755Y-114071000D02*
X139862755Y-97929000D01*
X138381755Y-113860000D02*
X138381755Y-98140000D01*
X133341755Y-110209000D02*
X133341755Y-101791000D01*
X132501755Y-108351000D02*
X132501755Y-103649000D01*
X135021755Y-112163000D02*
X135021755Y-99837000D01*
X133781755Y-110854000D02*
X133781755Y-101146000D01*
X138501755Y-113887000D02*
X138501755Y-98113000D01*
X140142755Y-114080000D02*
X140142755Y-97920000D01*
X136221755Y-113004000D02*
X136221755Y-107440000D01*
X148952246Y-110555000D02*
X147352246Y-110555000D01*
X136861755Y-104560000D02*
X136861755Y-98666000D01*
X132461755Y-108218000D02*
X132461755Y-103782000D01*
X132821755Y-109213000D02*
X132821755Y-102787000D01*
X139301755Y-114024000D02*
X139301755Y-97976000D01*
X132741755Y-109024000D02*
X132741755Y-102976000D01*
X135301755Y-104560000D02*
X135301755Y-99610000D01*
X136741755Y-113278000D02*
X136741755Y-107440000D01*
X148152246Y-111355000D02*
X148152246Y-109755000D01*
X136421755Y-113115000D02*
X136421755Y-107440000D01*
X135981755Y-112861000D02*
X135981755Y-107440000D01*
X136261755Y-104560000D02*
X136261755Y-98973000D01*
X136821755Y-113316000D02*
X136821755Y-107440000D01*
X136981755Y-113389000D02*
X136981755Y-107440000D01*
X133261755Y-110076000D02*
X133261755Y-101924000D01*
X134821755Y-111989000D02*
X134821755Y-100011000D01*
X138301755Y-113840000D02*
X138301755Y-98160000D01*
X137341755Y-104560000D02*
X137341755Y-98463000D01*
X135661755Y-104560000D02*
X135661755Y-99348000D01*
X132621755Y-108711000D02*
X132621755Y-103289000D01*
X137861755Y-113718000D02*
X137861755Y-107440000D01*
X137021755Y-104560000D02*
X137021755Y-98594000D01*
X136581755Y-104560000D02*
X136581755Y-98801000D01*
X138741755Y-113937000D02*
X138741755Y-98063000D01*
X132301755Y-107564000D02*
X132301755Y-104436000D01*
X134261755Y-111432000D02*
X134261755Y-100568000D01*
X135101755Y-104560000D02*
X135101755Y-99770000D01*
X136461755Y-113136000D02*
X136461755Y-107440000D01*
X138581755Y-113905000D02*
X138581755Y-98095000D01*
X135421755Y-112480000D02*
X135421755Y-107440000D01*
X136821755Y-104560000D02*
X136821755Y-98684000D01*
X137181755Y-113474000D02*
X137181755Y-107440000D01*
X136981755Y-104560000D02*
X136981755Y-98611000D01*
X138021755Y-113765000D02*
X138021755Y-98235000D01*
X135701755Y-112679000D02*
X135701755Y-107440000D01*
X136301755Y-104560000D02*
X136301755Y-98951000D01*
X132261755Y-107351000D02*
X132261755Y-104649000D01*
X134101755Y-111251000D02*
X134101755Y-100749000D01*
X136181755Y-104560000D02*
X136181755Y-99019000D01*
X134181755Y-111343000D02*
X134181755Y-100657000D01*
X137981755Y-113754000D02*
X137981755Y-98246000D01*
X132941755Y-109475000D02*
X132941755Y-102525000D01*
X134461755Y-111643000D02*
X134461755Y-100357000D01*
X137301755Y-104560000D02*
X137301755Y-98478000D01*
X134661755Y-111840000D02*
X134661755Y-100160000D01*
X137701755Y-104560000D02*
X137701755Y-98334000D01*
X137821755Y-113705000D02*
X137821755Y-107440000D01*
X135621755Y-112624000D02*
X135621755Y-107440000D01*
X139541755Y-114049000D02*
X139541755Y-97951000D01*
X135741755Y-104560000D02*
X135741755Y-99294000D01*
X136581755Y-113199000D02*
X136581755Y-107440000D01*
X135381755Y-112450000D02*
X135381755Y-107440000D01*
X135261755Y-104560000D02*
X135261755Y-99642000D01*
X134221755Y-111388000D02*
X134221755Y-100612000D01*
X134021755Y-111156000D02*
X134021755Y-100844000D01*
X134501755Y-111684000D02*
X134501755Y-100316000D01*
X138141755Y-113799000D02*
X138141755Y-98201000D01*
X137701755Y-113666000D02*
X137701755Y-107440000D01*
X135221755Y-112327000D02*
X135221755Y-107440000D01*
X139141755Y-114003000D02*
X139141755Y-97997000D01*
X136501755Y-104560000D02*
X136501755Y-98843000D01*
X139702755Y-114061000D02*
X139702755Y-97939000D01*
X135301755Y-112390000D02*
X135301755Y-107440000D01*
X139942755Y-114074000D02*
X139942755Y-97926000D01*
X137381755Y-113553000D02*
X137381755Y-107440000D01*
X134701755Y-111878000D02*
X134701755Y-100122000D01*
X136101755Y-104560000D02*
X136101755Y-99066000D01*
X136741755Y-104560000D02*
X136741755Y-98722000D01*
X139742755Y-114064000D02*
X139742755Y-97936000D01*
X140022755Y-114077000D02*
X140022755Y-97923000D01*
X134541755Y-111724000D02*
X134541755Y-100276000D01*
X133301755Y-110143000D02*
X133301755Y-101857000D01*
X137661755Y-113653000D02*
X137661755Y-107440000D01*
X132381755Y-107920000D02*
X132381755Y-104080000D01*
X137941755Y-113742000D02*
X137941755Y-107440000D01*
X135461755Y-104560000D02*
X135461755Y-99490000D01*
X138661755Y-113921000D02*
X138661755Y-98079000D01*
X138941755Y-113972000D02*
X138941755Y-98028000D01*
X133541755Y-110519000D02*
X133541755Y-101481000D01*
X138621755Y-113913000D02*
X138621755Y-98087000D01*
X136701755Y-104560000D02*
X136701755Y-98742000D01*
X133701755Y-110746000D02*
X133701755Y-101254000D01*
X137261755Y-104560000D02*
X137261755Y-98494000D01*
X136021755Y-112886000D02*
X136021755Y-107440000D01*
X136101755Y-112934000D02*
X136101755Y-107440000D01*
X140262755Y-114081000D02*
X140262755Y-97919000D01*
X135941755Y-112836000D02*
X135941755Y-107440000D01*
X139221755Y-114014000D02*
X139221755Y-97986000D01*
X132541755Y-108478000D02*
X132541755Y-103522000D01*
X139021755Y-113985000D02*
X139021755Y-98015000D01*
X132981755Y-109557000D02*
X132981755Y-102443000D01*
X139061755Y-113991000D02*
X139061755Y-98009000D01*
X133821755Y-110906000D02*
X133821755Y-101094000D01*
X137181755Y-104560000D02*
X137181755Y-98526000D01*
X135141755Y-104560000D02*
X135141755Y-99737000D01*
X136341755Y-104560000D02*
X136341755Y-98928000D01*
X133741755Y-110800000D02*
X133741755Y-101200000D01*
X140222755Y-114080000D02*
X140222755Y-97920000D01*
X135581755Y-112596000D02*
X135581755Y-107440000D01*
X137621755Y-113639000D02*
X137621755Y-107440000D01*
X135141755Y-112263000D02*
X135141755Y-107440000D01*
X136781755Y-113297000D02*
X136781755Y-107440000D01*
X135861755Y-112785000D02*
X135861755Y-107440000D01*
X134141755Y-111297000D02*
X134141755Y-100703000D01*
X133461755Y-110398000D02*
X133461755Y-101602000D01*
X136781755Y-104560000D02*
X136781755Y-98703000D01*
X132861755Y-109303000D02*
X132861755Y-102697000D01*
X137581755Y-104560000D02*
X137581755Y-98375000D01*
X133581755Y-110577000D02*
X133581755Y-101423000D01*
X135381755Y-104560000D02*
X135381755Y-99550000D01*
X132701755Y-108924000D02*
X132701755Y-103076000D01*
X137221755Y-104560000D02*
X137221755Y-98510000D01*
X136661755Y-104560000D02*
X136661755Y-98761000D01*
X136221755Y-104560000D02*
X136221755Y-98996000D01*
X148382755Y-106000000D02*
G75*
G03*
X148382755Y-106000000I-8120000J0D01*
G01*
%TO.C,C4*%
X137830000Y-123221000D02*
X137830000Y-122555000D01*
X143170000Y-123221000D02*
X137830000Y-123221000D01*
X137830000Y-120445000D02*
X137830000Y-119779000D01*
X143170000Y-120445000D02*
X143170000Y-119779000D01*
X143170000Y-119779000D02*
X137830000Y-119779000D01*
X143170000Y-123221000D02*
X143170000Y-122555000D01*
%TO.C,F1*%
X56750000Y-112860000D02*
X59910000Y-112860000D01*
X50090000Y-90140000D02*
X50090000Y-112860000D01*
X50090000Y-90140000D02*
X53250000Y-90140000D01*
X59910000Y-90140000D02*
X59910000Y-112860000D01*
X50090000Y-112860000D02*
X53250000Y-112860000D01*
X56750000Y-90140000D02*
X59910000Y-90140000D01*
%TD*%
M02*
