%TF.GenerationSoftware,KiCad,Pcbnew,(6.0.2)*%
%TF.CreationDate,2022-12-31T16:00:28+03:00*%
%TF.ProjectId,mcuPower,6d637550-6f77-4657-922e-6b696361645f,rev?*%
%TF.SameCoordinates,Original*%
%TF.FileFunction,Soldermask,Top*%
%TF.FilePolarity,Negative*%
%FSLAX46Y46*%
G04 Gerber Fmt 4.6, Leading zero omitted, Abs format (unit mm)*
G04 Created by KiCad (PCBNEW (6.0.2)) date 2022-12-31 16:00:28*
%MOMM*%
%LPD*%
G01*
G04 APERTURE LIST*
%ADD10C,1.600000*%
%ADD11C,4.500000*%
%ADD12C,3.000000*%
%ADD13R,2.500000X2.500000*%
%ADD14C,2.500000*%
%ADD15R,2.600000X2.600000*%
%ADD16C,2.600000*%
%ADD17C,2.700000*%
%ADD18R,2.000000X2.000000*%
%ADD19C,2.000000*%
%ADD20C,2.400000*%
%ADD21R,2.400000X2.400000*%
G04 APERTURE END LIST*
D10*
%TO.C,C4*%
X143000000Y-121500000D03*
X138000000Y-121500000D03*
%TD*%
D11*
%TO.C,T1*%
X72500000Y-64500000D03*
X72500000Y-129500000D03*
X109500000Y-64500000D03*
X109500000Y-129500000D03*
D12*
X76000000Y-112000000D03*
X76000000Y-107000000D03*
X76000000Y-102000000D03*
X76000000Y-97000000D03*
X76000000Y-92000000D03*
X76000000Y-87000000D03*
X76000000Y-82000000D03*
X106000000Y-82000000D03*
X106000000Y-87000000D03*
X106000000Y-92000000D03*
X106000000Y-97000000D03*
X106000000Y-102000000D03*
X106000000Y-107000000D03*
X106000000Y-112000000D03*
%TD*%
D13*
%TO.C,J3*%
X143045000Y-132500000D03*
D14*
X137965000Y-132500000D03*
%TD*%
D13*
%TO.C,J2*%
X137955000Y-59000000D03*
D14*
X143035000Y-59000000D03*
%TD*%
D15*
%TO.C,J1*%
X55250000Y-78500000D03*
D16*
X55250000Y-71000000D03*
%TD*%
D17*
%TO.C,F1*%
X55000000Y-101500000D03*
D12*
X55000000Y-90250000D03*
X55000000Y-112750000D03*
%TD*%
D18*
%TO.C,D1*%
X124042500Y-107957500D03*
D19*
X124042500Y-100457500D03*
X124042500Y-92957500D03*
X124042500Y-82957500D03*
%TD*%
D10*
%TO.C,C3*%
X138000000Y-70000000D03*
X143000000Y-70000000D03*
%TD*%
D20*
%TO.C,C2*%
X136512755Y-85500000D03*
D21*
X144012755Y-85500000D03*
%TD*%
%TO.C,C1*%
X144012755Y-106000000D03*
D20*
X136512755Y-106000000D03*
%TD*%
M02*
