M48
; DRILL file {KiCad (6.0.2)} date Sat Dec 31 16:06:55 2022
; FORMAT={-:-/ absolute / inch / decimal}
; #@! TF.CreationDate,2022-12-31T16:06:55+03:00
; #@! TF.GenerationSoftware,Kicad,Pcbnew,(6.0.2)
; #@! TF.FileFunction,Plated,1,2,PTH
FMAT,2
INCH
; #@! TA.AperFunction,Plated,PTH,ComponentDrill
T1C0.0315
; #@! TA.AperFunction,Plated,PTH,ComponentDrill
T2C0.0394
; #@! TA.AperFunction,Plated,PTH,ComponentDrill
T3C0.0472
; #@! TA.AperFunction,Plated,PTH,ComponentDrill
T4C0.0512
; #@! TA.AperFunction,Plated,PTH,ComponentDrill
T5C0.0551
%
G90
G05
T1
X5.4331Y-2.7559
X5.4331Y-4.7835
X5.6299Y-2.7559
X5.6299Y-4.7835
T2
X4.8836Y-3.266
X4.8836Y-3.6597
X4.8836Y-3.955
X4.8836Y-4.2503
T3
X2.9921Y-3.2283
X2.9921Y-3.4252
X2.9921Y-3.622
X2.9921Y-3.8189
X2.9921Y-4.0157
X2.9921Y-4.2126
X2.9921Y-4.4094
X4.1732Y-3.2283
X4.1732Y-3.4252
X4.1732Y-3.622
X4.1732Y-3.8189
X4.1732Y-4.0157
X4.1732Y-4.2126
X4.1732Y-4.4094
X5.3745Y-3.3661
X5.3745Y-4.1732
X5.6698Y-3.3661
X5.6698Y-4.1732
T4
X2.1654Y-3.5531
X2.1654Y-4.439
X5.4317Y-5.2165
X5.4331Y-2.3228
X5.6317Y-5.2165
X5.6331Y-2.3228
T5
X2.1752Y-2.7953
X2.1752Y-3.0906
T0
M30
